<mxfile host="app.diagrams.net" modified="2024-03-18T00:55:00.735Z" agent="Mozilla/5.0 (Windows NT 10.0; Win64; x64) AppleWebKit/537.36 (KHTML, like Gecko) Chrome/122.0.0.0 Safari/537.36" etag="AhjO7hZuktug2pAC3wdE" version="24.0.7" type="device" pages="3">
  <diagram name="POST" id="2YBvvXClWsGukQMizWep">
    <mxGraphModel dx="1195" dy="628" grid="1" gridSize="10" guides="1" tooltips="1" connect="1" arrows="1" fold="1" page="1" pageScale="1" pageWidth="850" pageHeight="1100" math="0" shadow="0">
      <root>
        <mxCell id="0" />
        <mxCell id="1" parent="0" />
        <mxCell id="aM9ryv3xv72pqoxQDRHE-1" value="Client" style="shape=umlLifeline;perimeter=lifelinePerimeter;whiteSpace=wrap;html=1;container=0;dropTarget=0;collapsible=0;recursiveResize=0;outlineConnect=0;portConstraint=eastwest;newEdgeStyle={&quot;edgeStyle&quot;:&quot;elbowEdgeStyle&quot;,&quot;elbow&quot;:&quot;vertical&quot;,&quot;curved&quot;:0,&quot;rounded&quot;:0};" parent="1" vertex="1">
          <mxGeometry x="40" y="40" width="100" height="450" as="geometry" />
        </mxCell>
        <mxCell id="aM9ryv3xv72pqoxQDRHE-2" value="" style="html=1;points=[];perimeter=orthogonalPerimeter;outlineConnect=0;targetShapes=umlLifeline;portConstraint=eastwest;newEdgeStyle={&quot;edgeStyle&quot;:&quot;elbowEdgeStyle&quot;,&quot;elbow&quot;:&quot;vertical&quot;,&quot;curved&quot;:0,&quot;rounded&quot;:0};" parent="aM9ryv3xv72pqoxQDRHE-1" vertex="1">
          <mxGeometry x="45" y="70" width="10" height="370" as="geometry" />
        </mxCell>
        <mxCell id="5Wq_7XuYk5Ms4TRdeuI5-37" value="" style="endArrow=classic;html=1;rounded=0;" parent="aM9ryv3xv72pqoxQDRHE-1" source="aM9ryv3xv72pqoxQDRHE-2" target="aM9ryv3xv72pqoxQDRHE-2" edge="1">
          <mxGeometry width="50" height="50" relative="1" as="geometry">
            <mxPoint x="110" y="320" as="sourcePoint" />
            <mxPoint x="-10" y="310" as="targetPoint" />
            <Array as="points">
              <mxPoint x="-10" y="410" />
              <mxPoint x="-10" y="110" />
            </Array>
          </mxGeometry>
        </mxCell>
        <mxCell id="aM9ryv3xv72pqoxQDRHE-5" value="Server" style="shape=umlLifeline;perimeter=lifelinePerimeter;whiteSpace=wrap;html=1;container=0;dropTarget=0;collapsible=0;recursiveResize=0;outlineConnect=0;portConstraint=eastwest;newEdgeStyle={&quot;edgeStyle&quot;:&quot;elbowEdgeStyle&quot;,&quot;elbow&quot;:&quot;vertical&quot;,&quot;curved&quot;:0,&quot;rounded&quot;:0};" parent="1" vertex="1">
          <mxGeometry x="220" y="40" width="100" height="450" as="geometry" />
        </mxCell>
        <mxCell id="aM9ryv3xv72pqoxQDRHE-6" value="" style="html=1;points=[];perimeter=orthogonalPerimeter;outlineConnect=0;targetShapes=umlLifeline;portConstraint=eastwest;newEdgeStyle={&quot;edgeStyle&quot;:&quot;elbowEdgeStyle&quot;,&quot;elbow&quot;:&quot;vertical&quot;,&quot;curved&quot;:0,&quot;rounded&quot;:0};" parent="aM9ryv3xv72pqoxQDRHE-5" vertex="1">
          <mxGeometry x="45" y="80" width="10" height="360" as="geometry" />
        </mxCell>
        <mxCell id="aM9ryv3xv72pqoxQDRHE-7" value="&lt;span style=&quot;color: rgb(25, 28, 32); font-family: consolas, &amp;quot;lucida console&amp;quot;, &amp;quot;courier new&amp;quot;, monospace; font-size: 12px; text-align: left; white-space: pre-wrap;&quot;&gt;HTTP POST &lt;/span&gt;&lt;span style=&quot;color: rgb(25, 28, 32); font-family: &amp;quot;Segoe UI&amp;quot;, tahoma, sans-serif; font-size: 12px; text-align: start; text-wrap: wrap;&quot;&gt;https://studies.cs.helsinki.fi/exampleapp/new_note&lt;/span&gt;" style="html=1;verticalAlign=bottom;endArrow=block;edgeStyle=elbowEdgeStyle;elbow=vertical;curved=0;rounded=0;exitX=0.5;exitY=0.757;exitDx=0;exitDy=0;exitPerimeter=0;" parent="1" edge="1">
          <mxGeometry x="-0.004" relative="1" as="geometry">
            <mxPoint x="90" y="420.09000000000003" as="sourcePoint" />
            <Array as="points">
              <mxPoint x="186.32" y="420" />
            </Array>
            <mxPoint x="271.32" y="420" as="targetPoint" />
            <mxPoint as="offset" />
          </mxGeometry>
        </mxCell>
        <mxCell id="aM9ryv3xv72pqoxQDRHE-8" value="" style="html=1;verticalAlign=bottom;endArrow=open;dashed=1;endSize=8;edgeStyle=elbowEdgeStyle;elbow=vertical;curved=0;rounded=0;" parent="1" edge="1">
          <mxGeometry relative="1" as="geometry">
            <mxPoint x="95" y="460" as="targetPoint" />
            <Array as="points">
              <mxPoint x="270" y="460" />
            </Array>
            <mxPoint x="250" y="460" as="sourcePoint" />
          </mxGeometry>
        </mxCell>
        <mxCell id="5Wq_7XuYk5Ms4TRdeuI5-3" value="" style="shape=image;verticalLabelPosition=bottom;labelBackgroundColor=default;verticalAlign=top;aspect=fixed;imageAspect=0;image=data:image/png,iVBORw0KGgoAAAANSUhEUgAAAQwAAABFCAYAAAC/rNiDAAAKK0lEQVR4Ae1d7Y3bMAz1jAG6z6HIADdDgXSEjnD91V8doSgOnUINJVEiJcqREzu243fAwY4+KPKRepYUSxncMDj8AwPEAGKgJwYGX8jhDwgAASBwA4FhcCCMGxghGwgAgYgACAOhAASAQDcCIIxuqFAQCACBFmF8fj+5gTK/fgAkIAAEgEBAwCSMPxd3Gs4OVIEoAQJAQCHQJIwvF/epSuIDEAACh0cAhHH4EAAAQKAfAZMwfp6xdtEPIUoCgeMgoAnjw50pAQudxwkAWAoEpiCgCSPWxAhjCoQoCwSOg4BJGPQtCRY9jxMEsBQI9CIAwuhFCuWAABCgfWf1XhKMMBAZQAAIWAg0CWM4ucsfqwbSgAAQOCwCJmE45/Bq+GFDAoYDgTYCLcJo10AOEAACh0UAhHFY18NwIDAdARDGdMxQAwgcFgEQxmFdD8OBwHQEQBjTMVuixueP6/kjb3SkwKe7vA9u+NZ5uMDf61EEb9dvxun/3d5h/PGN8p90XEHU5/zLuWzTEohB5ioIvDphhG975v6KeIE9N7/OijBOPyYeLkD1t0AY7orN2+ASYTR0WiXY0ejjCIAw7sFwIcKInYtGBHMSxj0W3l+HCOPkLn+dcyMkdr981FwVAYswfv/+vYJOn+7yhV465X8xhKbNcCl9cKfv8enrTwYb3Pk7nRAW6/EemKJOqp924rbb+/g6uOHLxV3oGuWefxIkZR3O1yOYuUc1JYGUn72zrM55a7riRzVXG+KURpGUrBtHDCkoirzu6VMSgJvdIkD9ofxdkucTRuyI3NklmpEUEklEIvAdOOYNfJygzIsyWp2XSSFQj27f5w1MTDoviB0fYbTalGZNuS8JovzsZVmEwY2YebRWEkcCXC5daZQgCNtPM/Jnap+mHPg7IAKbIAweKfinuHZC3flEZx0jkyimrk8ZUQaPSvgaCSsQBneQ6YShLXj8U0kQ5WffgkkKse1GHsmh0YUaWVAVKs8LqemaySUsZk5YmH0cAkjYCgIWYTxdN2NkwDrUHX5GwkjTE24tXI9CGGx1RQBEGD3f0jCxYGGToXz9q0UY//79e7LhkQSsKUkkk7EpiZkXLagJhzLiqKGxwe5RwrDbvB9SPxLgDhw7qTkqaHVcqtPKY7VoXYLLxDWKvmnH1Xdq+sICW9cRX7eqIH07CFiE8fw1DMIjBhJPD3hdQm6Ei3lhAdI51zElqeSmUQWTBi9c8pqFc7cJQ2zO8zotu+jp5CLj+8V9/DjlaQQ/5dPUQbyPMZYXv/7MU4885fDRWdZlMuH3RER7fcTCMc+485SP03HdBQLbIYxdwAUlZ0DAj8Cs0eQMsiFiYQQswnj+lGRhIyF+Gwjwt1ogi2344x4tLMK4Rw7qAAEgcAAELMJYZw3jAGDDRCCwdwRAGHv3IPQHAk9EAITxRLDRFBDYOwIWYezdJugPBIDAQghYhIFvSRYCG2KBwN4RsAgDi5579yr0BwILIbBFwpj71eq5ofOvavs3H+m1aGPz1twNQh4QWAIBsQWg+3Q0izDWnpJMIwxrN+kS6GaZHlxBGOrVaPVKdfn6cyAYfh1b1ZOvf/MBNLnJcMdleF9JmW98ThvL6FXu9Ho3FYxHAaZXvItXww1ZOSnXVXtalO35nA1vJ+ue2ov5QifePevxKWwcy8t6GXeqXdtGxkj5wxBVJbHsQte827f0fyWhSmBdNAYZb44d7csghutmO4x6hH/SN8Qjlfd1hS8qxTjBIgzOW+u6C8LwoAeHZAeRA3KQqE1jsYPqshzAJIfvW84j2Sd3/nYSDr/hIerAIgh8UKRg0XXH8nRJDrJguyIMXTDsDzLIj3Cp6pGuSTduIwocy6valAkBM3/6FyX7Dp7940t6jM7u/D71jA/bH6njkVwRC1Kr1r2PF+GvXK6Ms5yT7rrsIJ2l/QIfX98+Eza1QTcWYayyhhF3pfIJV0PaScqblfImsSFuIAubxEQ6GTMMLm1OS7tSuYwEi6y/AkZ10oY0Bc3jH6QT5D1Jps+t6YwR2NzJ+jt2GWThcyuIWX6/0bcJo6VrT1tjZaw831ZBTmX7oYwkBu4wJVaMAuXLJzKnO8c6lG2kEt6/ZbylXOOG2mqVb+nHYm7ZEcqRzvmBxXUnXjdBGMUW9tERRnV2RntK4gkl7Vuwyl2BXpAwOKjIJTKw/H3cdZqfqtlxsqxPFWRT5eVqxR0HESXTPQWLTOMn7pVMqVOYT7ZCpPp4izCKtkRdiYtIFrftusGWPBrjSh6XgjBkO3RPWJdpYaTT6pABt8pHPf6YShhR5iUeaqQfJkG/NB0pjkzMNrXsiA+oNIJj1O64boEw9HZy3joutoxXow9jFJGIgUG4OpuMK/+rclx+3iuTAp/9zR2dA5da4zTVchVoFLT5yVPXKYOJy8ZO94t+hoA7WEyjA3qLP1Nfsd5QP5lCu9XUIsqt9cwN5gDPafluTO5YXpbAd6GdD/+zDaxnaptwTh0oyK1tZEnyessfsWzlRynDuPfl5Qig7aswOo0+7bJD62y03p9kEUZ/7XlKjhLGzTMvrJED6XUFiYxbaroxYnrZ+XzRGBAcuF7Dci5vBJmXJTpufsowCbQUCZ1ATUGMqU6uPTWoRjqvb6etX+q0ufF4NyIzrgFJ/KrqRQJjl4mAiYGxiaMrie+NkRbLzH5gGYW9hi8L9fRHKq/aZl11sfCJyaTPDtI5Y2DJm5C2BcLQU5DY0XkNQ01B8npGtU5RjRy4rBipVLjMTyrUGbTjuVF2cvxcdKoQiDw64Dr11ZdLT8Y6X6aUZb1ujbq+rApYKcm6D8FqdeCxdkiSTRiEj7EY6pseywu6BfyKTlsSZLMTtzpnaDePRGocSoxTiRttKSJPNgr9S92T4NaiOBUw7CA5k/wqGrJut0AY+ci8MIUIPxvAHZ07vsyTUxLnXDFlqciEjIz/6Tg/D8Y1ICh9rlGIdzI/cfI1sbvKF8FRnX4V6lqdsRmglnNj50xPQ0kWShd7Yc8WaT/VtI3StlqKRRihw2fMgs6BQMfyWHooY7TrOy7LbRGy0dG84DsIQ7UX21UdlvEzdFF1pS1cx5LHCNC1tKOoxyMppY+s33G/DcLoUBRFgAAQWB8BEMb6PoAGQGA3CIAwduMqKAoE1kcAhLG+D6ABENgNAiCM3bgKigKB9REAYazvA2gABHaDAAhjN66CokBgfQRKwggvUc34bsL6JkIDIAAE5kKgJIwgN7wslV+Amqs1yAECQGDXCNiEEX5fFISxa9dCeSAwPwIgjPkxhUQg8LIItAiD1jL0vouXhQCGAQEg0ItAizCovt5F2isR5YAAEHhZBFqEgRHGy7ochgGB+xFoEQYdaoNFz/txRU0g8JIIgDBe0q0wCggsgwAIYxlcIRUIvCQCNmHgxa2XdDaMAgKPIlASBl4NfxRR1AcCL4xASRgvbCpMAwJA4FEEEmEMg/8ZNPopNPwDA8QAYqAVA/8Bozskup/SsAgAAAAASUVORK5CYII=;" parent="1" vertex="1">
          <mxGeometry x="130" y="430" width="112.64" height="29" as="geometry" />
        </mxCell>
        <mxCell id="5Wq_7XuYk5Ms4TRdeuI5-6" value="" style="endArrow=classic;html=1;rounded=0;" parent="1" edge="1">
          <mxGeometry width="50" height="50" relative="1" as="geometry">
            <mxPoint x="95" y="155" as="sourcePoint" />
            <mxPoint x="265" y="155" as="targetPoint" />
          </mxGeometry>
        </mxCell>
        <mxCell id="5Wq_7XuYk5Ms4TRdeuI5-8" value="HTTP GET&amp;nbsp;&lt;div&gt;https://studies.cs.helsinki.fi/exampleapp/notes&lt;/div&gt;" style="text;html=1;align=center;verticalAlign=middle;whiteSpace=wrap;rounded=0;" parent="1" vertex="1">
          <mxGeometry x="100" y="120" width="160" height="30" as="geometry" />
        </mxCell>
        <mxCell id="5Wq_7XuYk5Ms4TRdeuI5-10" value="" style="endArrow=classic;html=1;rounded=0;" parent="1" edge="1">
          <mxGeometry width="50" height="50" relative="1" as="geometry">
            <mxPoint x="269.84" y="180" as="sourcePoint" />
            <mxPoint x="90.15034482758605" y="180" as="targetPoint" />
          </mxGeometry>
        </mxCell>
        <mxCell id="5Wq_7XuYk5Ms4TRdeuI5-12" value="HTML" style="text;html=1;align=center;verticalAlign=middle;whiteSpace=wrap;rounded=0;" parent="1" vertex="1">
          <mxGeometry x="152" y="159" width="60" height="30" as="geometry" />
        </mxCell>
        <mxCell id="5Wq_7XuYk5Ms4TRdeuI5-14" value="" style="endArrow=classic;html=1;rounded=0;" parent="1" edge="1">
          <mxGeometry width="50" height="50" relative="1" as="geometry">
            <mxPoint x="96" y="220" as="sourcePoint" />
            <mxPoint x="266" y="220" as="targetPoint" />
          </mxGeometry>
        </mxCell>
        <mxCell id="5Wq_7XuYk5Ms4TRdeuI5-15" value="HTTP GET&amp;nbsp;&lt;div&gt;&lt;span style=&quot;color: rgb(25, 28, 32); font-family: &amp;quot;Segoe UI&amp;quot;, tahoma, sans-serif; text-align: start; background-color: rgb(255, 255, 255);&quot;&gt;https://studies.cs.helsinki.fi/exampleapp/main.css&lt;/span&gt;&lt;br&gt;&lt;/div&gt;" style="text;html=1;align=center;verticalAlign=middle;whiteSpace=wrap;rounded=0;" parent="1" vertex="1">
          <mxGeometry x="101" y="185" width="160" height="30" as="geometry" />
        </mxCell>
        <mxCell id="5Wq_7XuYk5Ms4TRdeuI5-16" value="" style="endArrow=classic;html=1;rounded=0;" parent="1" edge="1">
          <mxGeometry width="50" height="50" relative="1" as="geometry">
            <mxPoint x="265" y="240" as="sourcePoint" />
            <mxPoint x="95" y="240" as="targetPoint" />
          </mxGeometry>
        </mxCell>
        <mxCell id="5Wq_7XuYk5Ms4TRdeuI5-17" value="main.css" style="text;html=1;align=center;verticalAlign=middle;whiteSpace=wrap;rounded=0;" parent="1" vertex="1">
          <mxGeometry x="152" y="219" width="60" height="30" as="geometry" />
        </mxCell>
        <mxCell id="5Wq_7XuYk5Ms4TRdeuI5-18" value="" style="endArrow=classic;html=1;rounded=0;" parent="1" edge="1">
          <mxGeometry width="50" height="50" relative="1" as="geometry">
            <mxPoint x="97" y="279" as="sourcePoint" />
            <mxPoint x="267" y="279" as="targetPoint" />
          </mxGeometry>
        </mxCell>
        <mxCell id="5Wq_7XuYk5Ms4TRdeuI5-19" value="HTTP GET&amp;nbsp;&lt;div&gt;&lt;span style=&quot;color: rgb(25, 28, 32); font-family: &amp;quot;Segoe UI&amp;quot;, tahoma, sans-serif; text-align: start; background-color: rgb(255, 255, 255);&quot;&gt;https://studies.cs.helsinki.fi/exampleapp/main.js&lt;/span&gt;&lt;br&gt;&lt;/div&gt;" style="text;html=1;align=center;verticalAlign=middle;whiteSpace=wrap;rounded=0;" parent="1" vertex="1">
          <mxGeometry x="102" y="244" width="160" height="30" as="geometry" />
        </mxCell>
        <mxCell id="5Wq_7XuYk5Ms4TRdeuI5-20" value="" style="endArrow=classic;html=1;rounded=0;" parent="1" edge="1">
          <mxGeometry width="50" height="50" relative="1" as="geometry">
            <mxPoint x="265" y="300" as="sourcePoint" />
            <mxPoint x="95" y="300" as="targetPoint" />
          </mxGeometry>
        </mxCell>
        <mxCell id="5Wq_7XuYk5Ms4TRdeuI5-21" value="main.js" style="text;html=1;align=center;verticalAlign=middle;whiteSpace=wrap;rounded=0;" parent="1" vertex="1">
          <mxGeometry x="152" y="279" width="60" height="30" as="geometry" />
        </mxCell>
        <mxCell id="5Wq_7XuYk5Ms4TRdeuI5-22" value="" style="endArrow=classic;html=1;rounded=0;" parent="1" edge="1">
          <mxGeometry width="50" height="50" relative="1" as="geometry">
            <mxPoint x="97" y="339" as="sourcePoint" />
            <mxPoint x="267" y="339" as="targetPoint" />
          </mxGeometry>
        </mxCell>
        <mxCell id="5Wq_7XuYk5Ms4TRdeuI5-23" value="HTTP GET&lt;div&gt;&lt;span style=&quot;color: rgb(25, 28, 32); font-family: &amp;quot;Segoe UI&amp;quot;, tahoma, sans-serif; text-align: start; background-color: rgb(255, 255, 255);&quot;&gt;https://studies.cs.helsinki.fi/exampleapp/data.json&lt;/span&gt;&lt;br&gt;&lt;/div&gt;" style="text;html=1;align=center;verticalAlign=middle;whiteSpace=wrap;rounded=0;" parent="1" vertex="1">
          <mxGeometry x="102" y="304" width="160" height="30" as="geometry" />
        </mxCell>
        <mxCell id="5Wq_7XuYk5Ms4TRdeuI5-24" value="" style="shape=image;verticalLabelPosition=bottom;labelBackgroundColor=default;verticalAlign=top;aspect=fixed;imageAspect=0;image=data:image/png,iVBORw0KGgoAAAANSUhEUgAAAk0AAABFCAYAAABXNtIcAAATkElEQVR4Ae2dO45k2XVFcxI0BNDgnGQTBNrhJAhBoxBEehpAsy06NNmcgyRTPulQgGjISGIVezV2Hd73iYiMrMiofYHg/Z3fXe/dkyeqi5Uvry8vr/2UQd+BvgN9B/oO9B3oO9B3YP8dePkE6LWtBEqgBEqgBEqgBEpgk8DLy2uLpk063SiBEiiBEiiBEiiBHwi0aOqrUAIlUAIlUAIlUAInCLRoOgGpIiVQAiVQAiVQAiXQoqnvQAmUQAmUQAmUQAmcINCi6QSkipRACdxE4J9++rPXP/3pzzfZ+OjKP//FNz8y+NW//Ovrv/37b77okYjh++//eHEM//lf//3KWfbat7/97lBG/a048LP13vAusceHRn/NWYzhS/ZbZ/ySMdX3DoFZNOXL6EvJBXjERtLZuyirl3FeeC6/56TnAmdjH522EiiB6wms7qLWyDnzh/DR3Vb3mp58NguWmRem3VWMU+Zozhmx8yhtq1g5iu+I1ZH+3L8mjrM6Z+VmTO8537sb7xkHvlZ3471juNYftcC819fa2tXbKppSiYe6V5yk7HuOjxLr6mWcF34WRVyyBD/33/N89VUCz0JgdRc926ogObrb6l7Tr4qXI3+rGC/1vfJ7qY23lL+2oJg59NaYronjTF5+i2d269nO6O/djTP6bynzaO/oJWd7qKJpJhRech40n/mnUHOPh0DjBUY+27ws2NIuezYuqevaSD+sYX+21fq88PPyTfBzXx+sP2IhaXztS+CRCHAX8x57v3MNGXLN6m77DZh95Pjk/Zt2ODv75h9ZIKdv1+ixZ5t5aNomhkvzGTrEYp4ihox/+jSW6dv17I1FLujQtmyqawzEpa579Fu+WU+uKz+scWbtIM959cO+zTiYK0M//SivDXqfJWPZKoeP6Udd1/WnTs7n+ZnbsKOs4zlX1vMl54x1xo78jBNbR/Hkfj4f1id/n40xal+e8EGGj7Hk+ZF3nd49z6pd5rJmjTjy7MrZa0vbxuM+ttxTlr25zrOgJRPk36Sd/ZMmDypInWfgc48D+/DQn0EnYA6pLLYTNnr61y89/oST645Xer5AyuDTB85axsR87qfenm/l2pdACfw9web95m56f7jbuQevebdNiqmT9zvH8kZ22uV+531HFtt8aDM/aGvGeGk+M37zWOaZGeeZ3JdxcXbPhH3GW+dQjx4/yY053Gmez3iJn31a2s7xp80f/gd5bSGDnzlXHrswUE6fW7bRm3k5z6Fd1mz41j9r7GGfxrrPH7v6T/n5jNBPHsyV9xz6Ro597a5suYcN7azi1ObKRr7racd40i6y2MhGnDLxfVUmnz86qa991pHXD2dKTswzxvTtGPmUYW5M88z6lV36xp7+3Z9n0OfF/VbRRLB+0ihr2QiED409A2TOWAAeIHW9LKzlA2MOENZo2BXcp4Uf/oeH40PNdcczHtaxY0zMGSPnZ/phf65pv30JlMA5AvMucnfNG5kntDbv9irhpQz2j+7pyg/+uOPs0bCBrdmmLvMpN/PZzE3pZ8pm7IyPcp/xwQUOs22dI+UyBtaJV7/Y9fmo43mxzVloW34yrpTXVuZV45jPcKW30mcNXZ8h8/kD1NjVn+djH44rlujM5z397c0532SZ70LqMs4243RvFQ+8bOzvPaPJJ+Wxkc+PefrDj++J/piznnbwgR3P5FydVZ8s2Od5yE4fqcc+dmnzTCt2xpI2Lh5vFU0aArxBCQ7H+SG4hKVurqnrHj0QtI2ftMnYB6Mua/liJLC06zhfTNfQ92VijbE2sccnW+7nesclUALnCXB3ucc27pnJMPNE7psbWEN23s1pw/zhfdaW/SqJImueUQ6/2nJtxmhOcp9+5rM8L/uZj6as/uyNST+sr84Fg+SU8azOkfsZA+vI6xe7xpI9csSROXTlJ5/XlMdG5lV84mM+35We8ac+a+gnb2zKKxnmWXz/0PcM2rdPeca26W9vPjljI+NX90ycyOZnKx5tsb/imM8amXk38vmxn/ZklXEwljdnQ57nyZrPwrkxr3rsoGtDx+ekXffoc5+4mNsYzxiZ39yOiiYOnY5yPJ3Pvfmw5n6+TIKdNnPugxMqUAC11fLFVGa+LFOGGH346Mx97bQvgRI4T4B75b1FK5Md69yzbPNuzySObOYPdWeOcJ0eHxkDa9NPypMrjGsV46X5LBlk7NfkPuOcP+xczz7PkesZA+uZG/fszryuzfSTz2sln3nVOFhDz7bScy/1WUu2Z56VduzRJw79z/fIecqzZkv/rOXc8yk791OW8arpX5/OlU0brCW7HCufz4c1eGqb+dxPf9jjTFsN3dW7hI+jNs+ReQKf+M6W9xefzG3EwefN21HRhEMCMZh8sWYw7CnHHvMExZiD0Tg8gJxzOOSPWj5cfO1BYS/9YztjcJ4PgnhSh3HuG9+043r7EiiBfySwlwwzIas57zZ3OW2YP5TPnruJzbzLyK/yCza3GjbMBasYMwcYT+YzdbE/4yeWlF3FNuPyXMZCn2PkiYNPNmSMBa7m6IwBeeIxDs+Tdhyzpz3X6NMP59XPSh5948w48mdC6s1zpj6+893AN59s+Jhr7ue7ph39KYNuvivKub83x3fywpac0U/drTjPxCNvbKYdOOLD902f8qfPeNgnxrQ3/WNPfeSzaU99dDn/9JE6jpMFa/lsiD854gd5W76/rM195W7uzxRNOEnoBM7cD1Bsrim/OiR7AOSTDxJAU9+H5Xq++EJhL2MwFvppM/XZJz7sZCMuH/g8K77Uy9hTv+MSKIHPCcw7mskQSe4cMt67ebdN4nkfvfNbOSKTLPbnPcfmzAfoEIef1NmLkT0+mROUxxZ+iN2Yp+zMU9jZOpfr2kpW+GJ96xz4kfGMAR3WbNOGevjjLLQpIy+fFzIpr230lc04WOMM+Eq9eebUx6bndqyf7NFBzg82fS7KMWefRgzKOlaOdfmztjfnfNpFTnZbtlZxnoknffis0JOjZyAGnpuN+HwWrmErbcjffefY2jpT+uBM2Dxq2EquxJB6ecYpi23j0fd8P/NMR7Fs7s+iaVPwig0OP1+QK8xUpQRK4CsnMJP4JTi28hC5KRP0JTYr+5gE+CH5Jj8Y3/B4WRS+odnPTK0KCAUsmpxnv3U3UqbjQaBF0wDSaQmUwMMRuKVomt9WORw/XPlh1vZcBCiE55+afOkTPnLRtLob9+Y1/7SIgu9D/eFKi6Z7vyK1XwIlcCuBW4qmW31XvwRuIfDIRdMt5/pqde9ZNH21UHvwEiiBEiiBEiiB5yPQoun5nmlPVAIlUAIlUAIlcAcCLZruALUmS6AESqAESqAEno9Ai6bne6Y9UQmUQAmUQAmUwB0ItGi6A9SaLIESKIESKIESeD4CLZqe75n2RCVQAiVQAiVQAncg0KLpDlBrsgRKoARKoARK4PkItGh6vmfaE5VACZRACZRACdyBQIumO0CtyRIogRIogRIogecj0KLpumf61v/Ka38P1nXPoVolUAIlUAIl8G4EZtHEL/DzNwXb8ysMHrHxe3P8bcar+ChE9n6nDec7e7ZZ1LRoWhHvWgmsCXB/zCf0q1+qyp06kkk73u3V77LCDvbaSqAESuBNCWwVTemEBLRXnKTse47PFE3EvvoFjiRakm6Lpvd8YvX1tRLgruU9nHeP+SykKHqy8EEm8xBjvuRlQ2au5X7HJVACJXATgTNF0yxO8hvhLDrmHkmM5p9gZbDIZhLMb4yZLEm2+Q0UG+mHvVWiNBGnLf2jg78Zf/oxyeea5zF25u5rm37GPP3kWeGLHc/AOLmk3Y5L4CMS4J32PhE/77f3krswCybPmHeBe+YdcX/2eY/mXuclUAIlcDOBM0VTJiuSWyY49kyGc4+kSBKjHRVNJFFlkUfXQiP954Hxt1dcYI/YZiJFx1j1gV3ktGfRo79pg/gyLuZy8ayZ4JHVNj32bBZQymccyrQvgY9MgHfaPME5vIOMuTu5l+fMgor7xT3aa/Oe7sl2rwRKoAQuJrBVNJGc/KTRmbRIahYe7PmDHx3GFgeMpy7J0kJiJk6SKGs09FZJ9WzRlIkXeyZW9I09/X1yOpK5Orln7KwxNt5kovz8IZG6yEz76rUvgWcgwPudd5g77R3Ye/fz3sCBObrorNqerZV810qgBErgIgJbRZNGSEImNwsfklZ+KBKyQFI319R1jz6LJvykTcYWIeqylon3bNGEL3Sxw1m0m0WTyXjGoL+ZjDN27E+7MvO8uT9tIbNaU7d9CXx0AvN+5/3gLnnP5jnnFx730fdOu0bfe5Q0Oi6BEnhzAkdFE8mM5GTLsWv2cw9dkpht7mfhsZc41bd4oqddUjT5pz/pJ4smYmVvq81knLGjk0WRvtIW+/ijZQzKwMZzuda+BJ6FAPfn0sKIs+/p5f2V07ynrrcvgRIogTchcFQ04YTklD/wKQpWjWJAOfaZk8RsjP2GaTHmHJvIH7VMiqukmfrImqgtuNLH1KdwUT7tME5bzLFj7MwZa1tfWQSlbc6KPRvzLJrYS9vKtS+Bj0pg3p95Dt7/zB3sc5+8U8zn/uqesJb3bvrpvARKoARuInCmaMIBSc0f5CQm5n4ySbmmPLI2CyX2TIjaRIakOPUtQFzPgi3tZQz6w3cWQdif/tLe9JWxW9i4Rvxpi3Em+IxNFsZFj2yeCbuegXHaTr2OS+AjEuCdzru4OkPeCe5G3k3kZ36Y+8jkPVr56FoJlEAJ3ERgFk03GRvKFAEksbYSKIESKIESKIES+PAEWjR9+EfYA5RACZRACZRACbwHgRZN70G5PkqgBEqgBEqgBD48gXsWTR8eTg9QAiVQAiVQAiVQAhJo0SSJ9iVQAiVQAiVQAiWwQ6BF0w6cbpVACZRACZRACZSABFo0SaJ9CZRACZRACZRACewQaNG0A6dbJVACJVACJVACJSCBFk2SaF8CJVACJVACJVACOwRaNO3A6VYJlEAJlEAJlEAJSKBFkyTal0AJlEAJlEAJlMAOgRZNO3C6VQIl8KYE/v9/fvf6f7//59f//Y+fvP7l1y+feuast5VACZTAwxP42oum+Ut8H/6BNcAS+KAE/vqHX34qlCiWVh/22/5OoHmpb0IJPCiBVdH0/fd/fOW3jPthTrvkF/BeInspGn5burHR89vRr21NTteSq14JnCdwVDBZRO0VTuSUvPff/va7zwKYeSE3yRHq7uWLmfvQMf+lvXuPm5fuTbj2S+BKArNoIkH8/BfffGbN5HRJIXSJ7GfODibEQiLLRswkzGtak9M11KpTAucJ8J/eLIrO9Fv/qY57Tl6hWUBtzckTFkfkhix8WDenzVMgp97ce89589J70q6vEriAwCyaSCZc2NnmtzhlSDDzG9xK1iSXdtHNZKYd+lURtLKR9hynnZkAMzaKw5mcLMqwkbrIZqz6al8CJbBPgL+zdKZYUgb5M407aZ5Y5S3usEVV2uMem79ynfFR0bSVW1Z66d9cR8zaSN9HeSllOy6BEviCBGbRZGGy+ibGHpfexjzlsrBYyZIssplIWMtxyuQYX+kv9xxnDKxh1wTp2ehpJiqLIfo8H7r6m3b1174ESmCfgH/p26LoqEf+qHF3867OLz/os29RlfaQ9V7nOuNV8aPMzAGZW1Z6s2iac2M4ykv6b18CJfAABGbRZEgkCC65BQXrsxBS1j6T0ZQ1MShLn4VSFigpk+NVYsx9EiR2smUcJClsZEub6GaSXdlL3Y5LoASOCRwVSav9LavcUfLSvOd5j9VdFU3zi5Gy9uxjPz/kkFUuyNxypmjKXJryR3nJ2NqXQAk8AIGtosnQSDwWGpkk3OfCZ4LJb0/o2tBFLhuJLxOJhZo2UpYxcWztsY8tY1U3/a4Sa67pP88zk7N225dACZwjcK8/aeKe+iUn77FRcZ/dZw0ZPnsti5mUO8otKz3iI//QZq5L+VXsq7WMp+MSKIEvROCoaMqig3EWQjMJMbeombIc76hoEgE+SCqzkQDT/2p/FjkZB7EZn7qZzBhnklWmfQmUwPUE7vV3mvI+Myb/ZMt8s5VTUp5xFjO5R17Yyy2r/bNFU55Dn5mXXGtfAiXwAARm0cQFptCwkUQsVFjPRJRFEvLsoU+bsqxl4iLJIL8qjrC7WscGycR4Pjl6ff3k02InfShvTPr0fM71hdxMjPqYdl1vXwIlsE/grf7fc6uiyLtrvvFuc5eVR8YcsB/pdtGE3swB5ArtrvyfLZrMQ8bu3LMdxdz9EiiBdyQwiyYvPxfeT4ZDomCdhDRlWTOJoJOyzE0G6LPHx8RAQtIf63sNH8oaS8rv7aUufojZGLDBPPXdmwkz/XVcAiWwT+At/p2mvLvcUe+mnpl7d7mvtqmnjPvZY2Mv/6hLT67Iln4cWwhlrkNn+lEeu6u8lH46LoES+IIEZtH0BUOp6xIogScmcFQ47f3Dlk+MpUcrgRL4SARaNH2kp9VYS+BjE+A/1fF3nPzL4fTMt/5By4992kZfAiXwdARaND3dI+2BSqAESqAESqAE7kGgRdM9qNZmCZRACZRACZTA0xFo0fR0j7QHKoESKIESKIESuAeBFk33oFqbJVACJVACJVACT0egRdPTPdIeqARKoARKoARK4B4EWjTdg2ptlkAJlEAJlEAJPB2BH4uml5fX137KoO9A34G+A30H+g70Heg7sPkO/A2la+mBggZr2QAAAABJRU5ErkJggg==;" parent="1" vertex="1">
          <mxGeometry x="320" y="410" width="247.55" height="29" as="geometry" />
        </mxCell>
        <mxCell id="5Wq_7XuYk5Ms4TRdeuI5-25" value="" style="shape=image;verticalLabelPosition=bottom;labelBackgroundColor=default;verticalAlign=top;aspect=fixed;imageAspect=0;image=data:image/png,iVBORw0KGgoAAAANSUhEUgAAAjkAAABECAYAAABjyCRbAAATp0lEQVR4Ae2dzY0kWRWF242RWGAADmACRiAkhA1ISAixQmLHCiF8GFiyYQfYAEiYMNhQ6Cv6G5259SIiMyu7Oir7PCnn/dz/E+/euFXd0/nh6cOHp36KQe9A70DvQO9A70DvwKPdgQ/PAT11FIEiUASKQBEoAkXggRD48OGpTc4DPc+GUgSKQBEoAkWgCHxEoE1Or0IRKAJFoAgUgSLwkAi0yXnIx9qgikARKAJFoAgUgTY5vQNFoAgUgSJQBIrAQyLQJuchH2uDKgKnQuCr733/6Ztv/nsqn97amR//5KffYvDLX/366fd/+ONbu/Ade/jwt7/9/Ttnl2z++a9/PxHL3vj6T38+5FF+yw/sbN0b7hI0PgzmW2LRh885b8X4OX16KNuzycnL4yXiwp5xUCT2Lvbq8swEJVmNk5mEywEdmY4iUARuR2CVi2qj5syX5lFuK3vLTD2bDcasC1PvysfJc7QnRvScZWw1F0f+HWF1JD/pt/hxqcylfNOnt9zv5cZb+oGtVW7c4sOp7vpWk5OB8RD2monkfcv1USFcXZ6ZoLOJISmyAE76W8ZXW0XgURBY5aKxrRqIo9xW9pZ5VYCP7K18vNb2yu61Ou7Jf2sDMGvoa326xY9L6vI9ntlrY7tEfi83LpG/J8+97ui99NwltkuanFkAuJQ8GD7ztzyTRrAMLhz8OeblRpd6oTlIKs/VkXY4Q/8cq/OZoDNZaOYuaXKQO2PjNzHovgicAQFyMfPY/M4zeMi9VW77EyZ0+Phk/k09xAzd+iMG8GnbM2b0OWYdmrrx4dp6hgy+WKfwIf2fNvVl2vY8Z30RF2QYWzqV1Qf8UlYa85ZtzhPXlR3OiFk98BOvdqA79IO9PMzTjvzqYPZZshZb+bAx7SjrufaUyf2Mn70DPfK6nnt5jS9xTl+n7/BPP9F15E/S8/lwPvH32eij+sUTfODhoy8ZP/yeMys3z9OPS+NKn+6yvqTJIQgfioFrHJrBTxpBGaSJqBwzdC4Gg1leaV7EtP/M/PE/2FM+z12v5Hzg8mBT/zlLn9hPesrt2ZavcxEoAv8viJnf5Kb5Q21IGnjN3KYWTJnM71yL96wpnJPfme+codtaM+uDuqaP19Yz/UdOP4x/+omP+rOKS5+Y9cOY2LPeiiNlsZP62YN76tVf/IHOSN25fiZ+/A/86oIHO3MvP3rBQD5tbulGbtbljEO9nDmwrX3OoKGfwbl4o1f7yT+fEfKJB3v5jUPb8EFX70qXNHSoZ+WnOlc6ModSj/6kXnjRkQM/xQQ88FmefP7ITHlkp35jgj/9YY9ubSU26c/d1ltNDob9pDHOchC8F2Q6S5ACz3rKAowgJsDoBwDOGMgJSNoGOOXz3PX0h3P06BN71vD5mXagzzP1dy4CReAyBGYukrvWjawTapu5PYssfMmD/qM8XdlBDzkOjYEOdM0xZdlPvlnPZm1KO5M3fWd9VPv0D1zAYY6tOJIvfeAcf7WLXp+PMsaLbmJhbNlJv5JfXVlX9WM+w5XcSp4zZH2G7IklcdF35Wd80OFPGXmZ5/Oe9vb2xDexzLuQsqxzTD+lrfwBLwf0vWc08Ul+dOTzY5/2sOM9WdnjLONjvxcXtPRdnXebt5ocDeCsyWqgOJUfAJkgIZ9nyqqX2cvNGjupk7VAKstZgsGF1LfU63oCzTnynDtYq3N1yZOuTOciUASuQ4DcJY8d5JqFP+tE0jO3Z9GFb+qwfpjP6nJGhzY9g9c64xl21eXZ9NGaJJ151rOMF3rWo8mrPWd90g7nq7j2auAqji1/OYdfu+jVl5zhw4+soSs7+bwmv1gYDzaxgc0cKznpsy4jn3ijU/2JYcaSd8EY1O+c/Kwd097eHl/QnyP9V/YSP+HNjzrV4V5d7Fc45rOGZ+ZGPj/oqQ/Z+aySDn/edWnpN2vxT7rPDB13G0dNDkZxyJFrz5wnbYI76fnw81Kqb86CwczYS3DoeZHUNR/u5MHHBHrS1dO5CBSByxEgr8xbpMjdLHLkWY6Z27Powpv1Q9lZIzxnxkb6wNm0k/zUCv1CzrU819azxCB9v6X26QO4iKNnc844kpY+cJ61cU/vrOvqTDv5vFb8YGmd1Q/OMpaVnLZSnrPE9pJnpR5n5PFD+/MeuU9+zhxpn7PcG5+8k568rFdD+9p0L2/q4Cyxy7X8+Xw4A091s5/0tIc+YsoBHR2OqW8rLvmZtZF+JP3m9VGTg2IKAR9GXoRpFJp88s7ASQQGQBG4e0CdwE397BM8bHkpV7zQ0r7y2nSPL45M1BVdPvSmHs87F4Ei8BKBWYQzdy1uKZV0zsnl1GH9SBnX1ojM5VVhhn+v+GbhXvmYNUB/rAmz9kz/qXXJe03t0xfmXBMPfvDJAY91EFz5MNIH9vijH8aTelxDU59nzGmHeLWz4kdeP9OPfCek3Iwz5bGddwPbfHJgY55Jz7umHu3Jg2zeFfmk7+2xnXihS5yRT9ktPy/xR7zRmXrAERveN22KP3P6Ax0fU9+0TzypL+0hP5/PpMOzGshh667jkiYHgwkSjrD3k055Jj+8DsGGRtB8EihAnfKC63le1NSXPmiPeepMeejzYXCGXz7gGSt+KJe+Px/2P0WgCCwRIG8yR8mvzEVyDh7zbua2RTfzUX1bNYL8tP6gH5050Jk+QEPGWsOcMns+QuOTNUF+9GAHX/R58s46hZ6tuDxXV2KFLc634sCOGE8fkOHMMXUohz1xnTzi5fNCV/KrG3l50w/OiAFbKTdjTnl0Grdr7eSMDHx+0OlzkY89dAY+yOtaPs7Fn7O9PfGpFz6x29K18vMSf9KGzwo5cTQGfOC5OfDPZ+EZulKH+EtnRo+f5IWmLxnrKi71qge5u4/Z5NzTAAFkkPfUXV1FoAh8OQjMontN5Ft1iNoEreNxEODlPV+4nzu6bOI+lS80CVt32SZnZXsrN1a87/asTc67fXR1vAh8MQi8psnhpTd/QuRlyMun47EQoHGdv5X43BGeuclZ5cbnxuvu9tvk3B3SKiwCReDOCLymybmzK1VXBK5C4MxNzlWBvFfmT9nkvFdM6ncRKAJFoAgUgSLwAAi0yXmAh9gQikARKAJFoAgUgZcItMl5iUlPikARKAJFoAgUgQdAoE3OAzzEhlAEikARKAJFoAi8RKBNzktMelIEikARKAJFoAg8AAJtch7gITaEIlAEikARKAJF4CUCbXJeYtKTIlAEikARKAJF4AEQaJPzAA+xIRSBIlAEikARKAIvEWiT8xKTnhSBIlAEikARKAIPgECbnNse4r3/Fct+j85tz6FSRaAIFIEiUAQ2EZhNDl/Y5TeCOs/vfdlU9sYEvncjv011mqdx4LM1iO/S2GYT0iZnC9WeF4FtBMgj6wpzfpnipJm7yZ/rs31H0XbUpRSBIvDZENhqctIhCsteM5G8b7m+pMnB91UxpLmhiLbJecsnVltfKgLk4CoX+WHBQT6uclX6Gb9hWt86F4EicFIELmlyZjNBYfInqtkkTJo/jfkbooRh/jYEXerN4meBlIaOtMP56mvmsY3vqUv7yGBv+q8NZgtunhmPvrOXrm7m6fO0k7HiI3qMgfUZm8qMr+sicA0C3GnzaUvuiKdNzhZyPS8CRWATgUuaHF7ivoB5IfNxZDMwaTQCFC7GUZNDAZMXfmRtDNK+dpmxt9cMWDSZ9R85iyXy2uAcPvXZpGhv6sC/9Iu9uBhr2oRX3czoc9jwyJ9+yNO5CLxXBMgl8uNocO/3GiHz9khP6UWgCBSBbxHYanJ4Kfv5lvnp6fks97ygbRTypQ8PL21f5r74U5bC54ufdRa4LIzoTZo6Lm1y8M8GBFl8wp9sctKe+tMnZZKm75yxtpAnJvJngc64pU/9nncuAu8dgbz7xGItmPWFHPCMOXMWuannveNS/4tAEXgDBLaaHE1TeCgujFmcLEi81KHBmyPPlE16vuxngUO3TYOynGWzc2mTg01k0UMs6s0mh3PjyVl7+Ie8I33nbOoVM/mTPnXBszpTtnMReM8IrH6AIB7z2tjIAfPNs5zJodn4JL3rIlAEisALBI6aHIoOL31Hrj1znjRkKVyOSc9GgfVegUOHRdFm45omx9+upJ1scrANbWvMJiR9RyabGG2lrizQ6YM8YGNcnnUuAo+CwOp+m8/G2CZHJDoXgSJwNwSOmhwM0Qz4ExQvaF7iqwFNPujss8lhzcueYfPkHp3wH41sNrJJWcll0bSgpo0pTyHearRSF7bQo+/sWatbW9m0pG5iRZ+Dfb4EoKVu+ToXgfeKwLzjxGGeGNPMMc+dyYmsL553LgJFoAhsInBJk4MwL2FfvBQj9n7my9xz+PNlbmMDnYZgNgoUMGWZkbcQek6xdKS+9EH6LJroNwZ4ZpMzbaXvFmnPpu/otclBd/pmLPrFDG/GhF5jYJ1+plzXReC9IjBzYuYF996ccM5YyYk2OYlI10WgCBwiMJucQ4ErGHhp2xRcIVbWIlAEikARKAJFoAi8HoE2Oa/HsBqKQBEoAkWgCBSBEyLQJueED6UuFYEiUASKQBEoAq9H4FM2Oa/3rhqKQBEoAkWgCBSBInAjAm1ybgSuYkWgCBSBIlAEisC5EWiTc+7nU++KQBEoAkWgCBSBGxFok3MjcBUrAkWgCBSBIlAEzo1Am5xzP596VwSKQBEoAkWgCNyIQJucG4GrWBEoAkWgCBSBInBuBNrknPv51LsiUASKQBEoAkXgRgTa5NwIXMWKQBEoAkWgCBSBcyPQJufcz6feFYFHQuCv//nH08++/sXTD373o6evfvPD55k95x1FoAgUgbsj8KU3OfNLO+8OcBUWgSLwjMDP//Lb58aG5mb1gd5xHwSyrvHlwvkdgvlFxFibX5R6qQf9wtRLkSrfZ0Vg1eRwef0W4EyAa75w8xreawGY32ac3/59ra4sBtfKlr8IFIHLEDhqcGx69hqdfDlTl3h555h1IWmu5WFeDWsf8xzYvHQc1RXo6COm1aCmfaq6ht5VfCs/9s7QQRwdReDUCMwmh4ubXT/OW0yuaVyu4b0GIHyZxQaft4rWke6jYnQkX3oRKAL7CPBHUTYxl8xbf3RFntsUMGeTMPfUiVWTwBlyW/XC+jdrDBGuzrYiP6orNjnW1tSDb9Tglf/Jt7fes4/urfj3dE4aWGGnowicGoHZ5JB0q4tLUpDkfuSxaHBuUq54LUIJBvwkikPdzKskXOlQNufUo0/S0zeSfRYDm6iMB1l401f1dS4CRWAfAf7OzSXNjTzwXzLyZb2qW+QwNcPhSznlpDnDQ83Y0icfc9aKrFnIZw1KH5Sn7vCBbw7tz9qVOidtr65lLCsdnKWPyTPrcNJS74yh+yJwGgRmk2MjwQWeAxoFwsE++bIRWPGSIDlIVBuHXCdPrrGV9pLmOn3gDL02ZMbGzLAw6ANzxoes9qZe7XUuAkVgHwH/krFNzNEM/9EgdzNX5w8ryEP3JZ31KM+nHZsc5a0N7LN+zVphLbG2rPxJW9CpLZNPP9OPlS/X1DXtaH/GT1z6Dc2YjSnlpHGGHP53FIFTIzCbHJ3lsnOJ81KbgPLM2cTlfPKyzyIBTzY22VBMve5nQfDcmaRET470YyY7fKkTWYsitJW+1N11ESgCxwgcNTUr+pZWcpQ6MvM881jZfJlvreV1zuZivuSzfs1agXz6kGt15wydeoQNfHMoN/2Y8V5T12bdSyywS1zoW9U745x+IoeP+NtRBE6NwFaTo9MkhBc5E0s6CUSS+GHPmLzss0jAQwJlE4UteNShDWcLg/s5r5Iu7VpAUi7PtG8szLO4pGzXRaAIHCPwqX6TQ37y8mVkHuuRL/NZNzyXL+dsLjjPBgF7DnRQW3KknZU/W7zWwaxV6cdr61rGgA8zfuLCNnZYzw8Yr3xYnWWMXReBUyBw1ORk4rEmQRwkMh9HJvnkhSeLBHuTW3lnbJBAc6x+mkge6LMpST9I9tlApQ+sLZqpt+siUARuR+BT/Z2czOf5IsdbX97zpe1+VWM4mzXEpiDr16pWZGOT6xVyWSutWxlP+iE99VxT1yY2xqM+cVrZkWdFm3rl7VwEToXAbHK4uCSQg2SzseE8Ez0TFX5oyDMmL2fZvJA08K8KzV6BoLjoz7Ohjz9toW/aYA+/PmnT+NzrA3yzwGkjffescxEoAscI3Ov/rqIu5Mj6Yb0xt8nlya8suWy98Mw5mwvPrBNZ+7IuwiePMrM2eu486fg09WctmvXn2rqWWMz4sSturLewgWatJA72qdfYOheBUyEwmxyLBRfYTzpMcnm5J+9M3ORFh4UAeWh8TBqTXFranGsKmL7pS/Ls0VIW+/isD+hgn/LSZpFJe10XgSKwj8A9/p2czF1y1NzUMntzl3zdGvMln3zooC7MYV3I8+mPjQI8WevyXPlZK7HLmWPlh7ExJy8y6cusa9CSf8aPPn2cNT1xzJiQmT7re+cicCoEZpNzKufqTBEoAg+DwFGjs/cPAT4MCA2kCBSBt0WgTc7b4l1rReBLRoA/uuLv6PiXkZnZb/0DgF8yVo29CBSBOyDQJucOIFZFESgCRaAIFIEicD4E2uSc75nUoyJQBIpAESgCReAOCLTJuQOIVVEEikARKAJFoAicD4E2Oed7JvWoCBSBIlAEikARuAMCbXLuAGJVFIEiUASKQBEoAudD4Nsm58OHp6d+ikHvQO9A70DvQO9A78AD3YH/AaLVFd4vnt59AAAAAElFTkSuQmCC;" parent="1" vertex="1">
          <mxGeometry x="320" y="150" width="249" height="29.76" as="geometry" />
        </mxCell>
        <mxCell id="5Wq_7XuYk5Ms4TRdeuI5-27" value="" style="shape=image;verticalLabelPosition=bottom;labelBackgroundColor=default;verticalAlign=top;aspect=fixed;imageAspect=0;image=data:image/png,iVBORw0KGgoAAAANSUhEUgAAAlIAAABMCAYAAACmnFmxAAAUsklEQVR4Ae2dTYos23VG7zQEbngAnoCG4EEYg/AYBAYh1DK455YRnoOkpjruSZ6Cf8A9d+UxlFkPreLzficiI7Iy82ZlfQeS87fP/lkRZ+eu++679e3t27e3fsqg70Dfgb4DfQf6DvQd6Dtw/h34BrR//5+3fsqg70Dfgb4DfQf6DvQd6Dtw4h2ghvqhkHprK4ESKIESKIESKIESOEeghdQ5XpUugRIogRIogRIogXcCLaTeUXRQAiVQAiVQAiVQAucItJA6x6vSJVACJVACJVACJfBOoIXUO4oOSqAESqAESqAESuAcgRZS53hVugRKoARKoARKoATeCbSQekfRQQmUQAmUQAmUQAmcI9BC6hyvSpdACZRACZRACZTAO4EWUu8oOiiBEngggZ/8xV++/elP//tAi89n6m/+9mfvDH7xy1+9/fOv/+W7OokPf/jDH0/78B//+V9vxLLXfvPb312U8fyWH9jZem94l9jjQ6O/JhZ9+J79Vozf06db2d57hrey8XA9RwqpfEF9UbkUz9hIRHuXZ/WCziRAQjBOei51NvY501YCJXA9gdVdVBs5Z34xX7rbnr2mJ5/NImbmhal35eOUuTQnRvQ8S9sqYC75d4nVpfNz/xo/jp45Kjd9euR872480g9sre7Go314entnCqkMhge9V7Ck7CPHl5Lt6gWdSWAWSly8TLJz/5Hx1VYJvAqB1V00tlWRculue/aaflXQXLK38vGs7ZXdszpuKX9tkTFz6Ed9usaPI3n5Fs/so7EdOb93N46cv6XMs72jt4ztZrquLaRmkuHF5+HzmX9aNfd4MDReauSzzQuELvWyZ+Piuq6OtMMa+mdbrc8kMC8kBeORQopzz1hcTgadl8AzEOAu5j32fucaMty91d32J2X2keOT92/qIWb2zT8yQE7brtGjzzbz0NSND2fzGWfwxTyFD+n/tKkv07br2euLXDhD29LpWX3AL8+6R79lm/XkurLDGjGrB3ni1Q77Nv1grgz9tKO8Ouh9loxlqxw2ph3Puq49z+R8xs/chh5lHc+5ssaXnNPX6Tvy0090XfIn9/P5sD75+2z0Uf3yhA8y+qI+Y3DueeT1md6mbfVPP3wOymePfXXqV8aYdtK+sqnrpuNrCykc9sETXD4E9giONvcISOBe9gyIfV4+Gr2yzNkTctrP89jzfK47Xp3LB4scNvWfefq02le3L4Tz9iVQAtsEuIt5v5l7d8kNuYeWebdNlHkm73eO9WLmFNa533nfWUO3uWbmB3VNH8/mM/3nnH4Yy/TzSO5Lv4jdmNDPeCsOz+lDcsOuud349Bf/2ael7hynbuTVhQx25lx59MJAOW1u6ebczNsZh3pZs2Fb+6yxh34a6z5/9Go/5ecz4nzyYK68cWgbOfbVu9LlHjrUs/JTnSsdeYdSj/6kXmTRkQ0/ZeL76nzGwFxm6Ejd07Z+TT+cpw+O0YENm74mR/fQow3X7tqfKaRw2E86xVo2YAp0BsnLYYCM51lACYixDw39jAXJudzTPrA971r20x/16hNzxsj5mXbYn2tpo+MSKIHLBOZd5O6aNzJPqGnebWTNBysZ9F+6pys76OKOs0dDB7pmm2eZT7mZz2ZuSjtTNn1nbKyX4oILrGbbiiPl0gfW8Ve76PX5eMZ40U0stC076VfKqyvzqn7MWFfnVudZ46zPkDmxJBd99/yMj33k84yy9PN5T3t7c+KbLPNdyLOMs00/3Vv5Ay8b+3vPaPJJeXTk8zsy1y59vkf5DHOsfL4HrtEnk7mecbLHfHLLMzcfnymkNE6ggKH58HA6P0CfD0J5H6Zn1UvvBWKMXOpk7KX2LGsJkZde31KvY3RyNtt8mMioc3WRcj/1dFwCJXCcAHc37yJ3zS8X1rln2ebdnokd2anD/OF9Tn2M0aFN95A1z7hGTlGXa9NH5shkm/ks40Uu89GU1Z69PmmH9VVck1P6s4oj99MH1pHXLnr1JXvk8COf18pOPq8pj47Mq9jEBjazrc65n+dZ43zyRqe8kmHGku+CMajfPuUZ26a9vfnkjI7037NH/EQ2P1v+qIv9Fcd81sjMu5HPz/18PnMfG+mX71HazrF+JwfX8J31VTMubKHP5vNj/e7tmkJKQDq35+jcm+Dmfr5g+eJra/ZCpKftJRH2Vw9pvkBTBh/zAc396VPnJVAClwlwr7y3SHN3/SJjfSbOebdn4kZH5g89mDnCdXpspA+sTTspT67Qr5WPZ/NZMkjfr8l9+gkXObo2+4wj99IH1jM37umdeV2daSef10o+86p+sJaxrM5pK8+zlmyPPCv12HMeP7Q/3yPnKc+aLe2zlnPjU3bupyzjVdO+Np0rmzpYS3Y5Vj6fD2vwVDfzub83z+fO2XyP0naO9WM+R9e3OLhv/OmzttF513ZNIYVDJBs+tHzZprPsKadsBsUYyDSgAss5D4rzlxo6hIctzm019tI+cumDc3yxzZcC+dxXbupxvX0JlMCPCcxEn3fXpJincp917nLqMH/kGcfcTXTmXUZ+lV/2EjY60EVb+Zg5QH8yn3mW89N/fEnZlW/GY29c+kKfY+Twg082ZPQFrnxo6QNz/NEP40k9jtlTn2v0aYd4tbOS57x+ph/5nZDnZpx5Htv5bmCbTzZszDX3811Tj/aU4Wy+K8q5vzfHdvJCl5w5n2e3/Dzij7zRmXrgiA3fN23Knz79YR8fU9/ePN8bbasvn2GOkaPlc2Ssj9ie9v985L1DHi7ZmCfr3LvZ+NpCCgfyQeAocz8ZjGvKZ1CAdB/QfASHDcC573lfINd5oLbUlz64v9KZ59nHP/Rkwy8f4owVPzyXvuf5jkugBP4/Ae5N3lHuV95F7hwy3rt5t03keR/Vt5UjuJ/mH/TPe47O9AGPOWOuoc8zez6yxydzgvLowQ6+6POUPZP7jFddyQpbrG/FgR0ZTx84w5pt6vAc9uQ6ZeTl80JXyqub88qmH6wRA7by3Iw5z6PTuB1rJ3vOIOcHnT4X5ZizT8MHZR0rx7r8WdubE596kZPdlq6Vn0f8SRs+K87J0Rjwgedmwz+fhWvoSh2X5ukz53yPtJ1+aIOec9pmPP3CVz7o9B1wDZ9oW+9g2rnp+EghdUuDBA6cthIogRL4CIGZyM/o2spD5Kb8Mjyjs7LPSYAv1SwAnsHLLBTv5Q/Fxda7nMXMtL91N6Zc50GghVTA6LAESuDTEPhIIcUXqz+9GjBfuP7U7Fr7z08g/4TjWaJ55kJqdTeehdvT+tFC6mkfTR0rgRLYIfCRQmpHbbdK4O4EnrmQunvwr2jg0YXUKzJsTCVQAiVQAiVQAl+UQAupL/rgG3YJlEAJlEAJlMDHCbSQ+jjDaiiBEiiBEiiBEviiBFpIfdEH37BLoARKoARKoAQ+TqCF1McZVkMJlEAJlEAJlMAXJdBC6os++IZdAiVQAiVQAiXwcQItpD7OsBpKoARKoARKoAS+KIEWUl/0wTfsEiiBEiiBEiiBjxNoIfVxhtVQAiVQAiVQAiXwRQm0kLrdg7/1v1bb3/t1u2dTTSVQAiVQAiVwFwJHCil+iaG/Xdl+/p6quzh3hVJ+T1D+tuipguKEz1YjvqOxzUKnhdQW1a6XwDYB7pF5hT5/wezc8+6mfI79rfHb1rpTAiVQAjcmcKaQStMkr72CJWUfOT5SSOH7KuFSQJGoW0g98onV1lclwB1c3UV+ILFxH1d31X1yUBZerrcvgRIogYcRuLaQmgULyc+fDGchMvf8qdI/6cpg55/qoEu9mWBNwu6hI+2wjv7ZsI3vqUsZzmBv+q8NepN6rhmPvjN3X9300+dpJ2PFR/QYA+NnLFwzvo5L4AwB3mnv09a5SzItpLbIdb0ESuBhBK4tpCgU/JLnS5+PLQuOuUexQXKkXSqkSJLKIs9Zi4+0r1167O0VHCZmev3nnAmZ89pgHTn1WQhpb+rAv/SLuVyMNW0iq2569NksqpRPP5RpXwKflQB3iftxqfHe7xVb3ttLerpfAiVQAncjcKaQ4ovfTzrEWjaKAIsR9iwGkGFswcB4niW5WlwwziSayZdzuaf9o4UU/lnkcBaf8CcLqbSn/vTJM7mn76wx9ssimSifXwIZt/tTv+vtS+CzE8h3n1jMBdzrzAncAdfo885ybur57FzqfwmUwCckcKaQMjySGwmMNhOgSY/CgT1ks+WaZ3M/C4qZRNFtYeJZ1rKgOlpIYZOz6CEW9WYhxbrxZK89/OO8LX1nbeqVmfK5P3Uhs1rzbPsS+MwEVj+kEI/32ti4A94317LnDs3iKvc7LoESKIG7E7imkCKxUVjYcuya/dzjLMnRNvezGGG8l0TRYeK1oDlTSPmnRGknCylss7fVZqGTvnMmCyVtpa78EkgflIGNcbnWvgRehcDq/fY+G2MLKUm0L4ESeFoC1xRSBEPB4U+CFAEUCqvGnnLsM89CijEFBc0CzTk6kb/UsqDJQmh1LhOzSTttzPMk+61iLnVhCz36zpyxurWVhVHqJlb02ZjnFw17qVu59iXwWQnMd5w4vCfGNO+Y6/bcicwvrrcvgRIogYcRuLaQwkG+6P1yJ+Ex9zMLBteRz4LB4ol9io5ZjJAkPUvPeZOt6yRkW+pLH9yfiRn9xoDMLKSmrfTdLwLXpu/otZBCd/pmLPpFj2zGhF5jYJx+5rmOS+CzEph3Yt4L3nvvhH3Gyp1oIZVEOi6BEng4gSOF1C2dojCw8Lil3uoqgRIogRIogRIogYcTaCH1cOQ1WAIlUAIlUAIl8CoEWki9ypNsHCVQAiVQAiVQAg8n8OhC6uEB1mAJlEAJlEAJlEAJ3ItAC6l7ka3eEiiBEiiBEiiBlyfQQurlH3EDLIESKIESKIESuBeBFlL3Ilu9JVACJVACJVACL0+ghdTLP+IGWAIlUAIlUAIlcC8CLaTuRbZ6S6AESqAESqAEXp5AC6mXf8QNsARKoARKoARK4F4EWkjdi2z1lkAJlEAJlEAJvDyBFlIv/4gbYAk8NYF//e9/e/u73/z921/901+//eQffvpDz5z1thIogRJ4egItpH78iOYvMv6xRFdKoARuQeDnv//HH4onCqjVh/222xDIvMYvXM/feZq/nB1r85dHH/Wgv0T6KKnKvRSBo4UUF8Tfvp6X7MwvIT4jexby/C3yv/jlr86qeJfPhPO+2EEJlMBNCVwqoiys9oqpLADISxQI2WZeyD3HytCvmrmPfjZsHm2X8gr76COmVSOn3SuvoXcV38qPvTV0EEdbCXwpAkcKKS5H/vQCIBPWmeLojOyZh4AvM6Hh81ZivKT7UsK7dL77JVAC+wT4z3YWSkf6rf/Mxz238KDPQmTOyROrQoQ1zm3lC/PfzDFEuFrbivxSXrGQMremHnwjB6/8T7m98Z59dG/Fv6dz7sEKO20l8KUIHCmkuNiry8HFI5H4UcbExLoXfyVrokvgyHMZbeqmX130lQ7PZp969Mn99I2EMhOOhVrGw1lk01f1tS+BEtgnwN+BOlJAKYP8kZYFwSpvcYfJGTa/+POce/bIkDO29ClHn7kicxbnMwelD54n7/BBbjbtz9yVOufeXl7LWFY6WEsfU2bm4dxLvTOGzkvgZQkcKaQsVrgks7FHErIxT7ksNlayXMJsJAOLkxynTI6xlfZyz3H6wBp6LfqMjZ5m8tEH+oyPs9qberXXvgRKYJ+Af7HcQulSj/ylxt3Nuzp/IOI8+xYCmY9yfdqxkPK8uYF55q+ZK8wl5paVP2mLfXLLlNPP9GPly5m8ph3tz/iJS7/ZM2ZjynPuscY5/G8rgS9F4EghJRAuFBclL46XXJnZmxxYn7LMMxEhk8VTFi1Tr/OZdFy35+KjJ1v6MRMKcqmTsyZe9lb6UnfHJVAClwlcKpxW+1tauaPkkXnP8x57NguGrbGy9lnAzEIi89fMFZxPH3Ks7uzZJx9hA99snpt+zHjP5LWZ95IFdokLfat8Z5zTT87hI/62lcCXInCmkBIMl87LkpfXfS4pF9EPc9qUZZ6JCBkuaRZq2EJGHdqwN/k4n/3qYqddk1SeyzXtGwv9TGB5tuMSKIHLBO71J1LcT77gaXmP9ciCYeYN15XLPgsY1rMIwZ4NHeSWbGln5c+WrHkwc1X68dG8ljHgw4yfuLCNHcbzA+OVD6u1jLHjEnhJAtcUUnm5GXMJbSQLPrZMJFMWmUxEzE0gnrfHBpd0ttVPRSnD/ix80g8SyizS0gfGJubU23EJlMD1BO71d6TyPs9iAW8tEGZh4HyVY1ibOcTCI/PXKldk8ZTjFbnMleatjCf9cD/1nMlrk43xqE9OKzvKrPamXmXbl8BLEzhSSHE5uKQ2LrTFE+uZTDIZIM8e52lTlrUskLiYyK+S2V4SIoHpzw+G/vxTI/qmDebI65M2jc+5PiA3k6g20nfX2pdACVwmcKv/a4+8kC3zh/nGu81dnvKe5S6bL1yzzwLGNfNE5r7Mi8gp45mZG123n/v4NPVnLpr552xeSxYzfuzKjfEWG/bMlcTBPPUaW/sSeGkCRwopExKXxE9C4QJ7gabsTA4piw6TDefZ4+PFNJG4lzbnmCSpb/qSMnt7eRb7+KwP6GCe592biSztdVwCJbBP4Bb/jlTeXe6od1PLzL273NetNguJlEMHeWE280KuT38sRpDJXJfrnp+5Erus2VZ+GBt9ynImfZl5jb2Un/GjTx9nTk+OGRNnps/63r4EXprAkULqpQE0uBIoge9G4FIxtfePcX43p2u4BEqgBJJAC6mk0XEJlMCjCfCf+fg7U/4FdHrmW/8I56P9q70SKIES2CXQQmoXTzdLoARKoARKoARKYJtAC6ltNt0pgRIogRIogRIogV0CLaR28XSzBEqgBEqgBEqgBLYJtJDaZtOdEiiBEiiBEiiBEtgl0EJqF083S6AESqAESqAESmCbQAupbTbdKYESKIESKIESKIFdAi2kdvF0swRKoARKoARKoAS2CbSQ2mbTnRIogRIogRIogRLYJdBCahdPN0ugBEqgBEqgBEpgm8B7IfXt29tbP2XQd6DvQN+BvgN9B/oO9B049Q78H0g1HbPtKJr9AAAAAElFTkSuQmCC;" parent="1" vertex="1">
          <mxGeometry x="320" y="210" width="250" height="31.99" as="geometry" />
        </mxCell>
        <mxCell id="5Wq_7XuYk5Ms4TRdeuI5-28" value="" style="shape=image;verticalLabelPosition=bottom;labelBackgroundColor=default;verticalAlign=top;aspect=fixed;imageAspect=0;image=data:image/png,iVBORw0KGgoAAAANSUhEUgAAAjcAAABMCAYAAACRUpaFAAAUfElEQVR4Ae2dTY4kW1KFaxstMegFsAGWwCJQS4g1ICEhxAiJGaNWiz00DJkwa1gDILGEZg2JvtT7Xp2yd909PDIyIzLyXCl0f+z/XDdzy6qsim8v37699FMM+gz0Gegz0Gegz0CfgWd5Br69BvLSUQSKQBEoAkWgCBSBJ0Dg27eXNjdPcI8NoQgUgSJQBIpAEfgJgTY3fRSKQBEoAkWgCBSBp0Kgzc1TXWeDKQJFoAgUgSJQBNrc9BkoAkWgCBSBIlAEngqBNjdPdZ0NpggUgSJQBIpAEWhz02egCBSBIlAEikAReCoE2tw81XU2mCLw8Aj86k9+/fLHP/7fw/v5ng7+xW/+8mcM/vbv/v7lt7/75/c0d6gbH/7wh/845JsM//Xf//NCLHvj9//yr4c8ym/5gZ2t54ZnCRofBvM1sejDPeetGO/p061s793hno2r82OvucmHxoeHB/URB8Vh74FePTQzMUlS42QG1BzQkekoAkXgegRWuag2as58WR7ltrLXzNSz2VjMujD1rnycPEd7YkTPo4ytpuLIvyOsjuQn/Ro/LpW5lG/69JH7vdz4SD+wtcqNj/bhTfYuaW7SAODvNRHJ+5HrowK4emhmYs7mhWTIwjfpHxlfbRWBZ0FglYvGtmocjnJb2WvmVZNxZG/l41nbK7tnddyS/9oX/6yhb/XpGj8uqcu3uLO3xnaJ/F5uXCJ/S55He0ZPx3a2uZmJz8PIhfCZf6ozaYDF4EGDP8d8qNGlXmgOkslzdaQdztA/x+p8JuZMEpq4S5ob5B6x4ZsYdF8EHgEBcjHz2PzOM3jIvVVu+xMldPj4ZP5NPcQM3fojBvBp2zNm9DlmHZq68eFsPUMGX6xT+JD+T5v6Mm17nrO+iAsyjC2dyuoDfikrjXnLNueJ68oOZ8SsHviJVzvQHfrBXh7maUd+dTB7l6zFVj5sTDvKeq49ZXI/42fvQI+8rudeXuNLnNPX6Tv80090HfmT9Lwfzif+3o0+ql88wQcefVGfMbhXHn59ZnZoW/3TD+9Bfmcxc5+60bk5zjY3KPYyCDiBgaaxScNBQTAB06kMgAdDXnigGXjaT3nsIbc1VnIJNnLY1H/26dOKri0vyX3nIlAEthEgFzO/2Zu71IakoWXmtsUzZTK/c60Xs6ZwTn5nvnOGbmvNrA/qmj6erWf6j5x+GMv085Lal34RuzGhn/VWHMrpQ+KGXWu78ekv/kNnpO5cp2741QUPduZefvSCgXza3NKN3KzbGYd6OXNgW/ucQUM/g3PvH73aT/55R8gnHuzlNw5twwddvStd0tChnpWf6lzpyBxKPfqTeuFFRw78FBOfV/czBvZiho7UPW3r1/TDffrgGv36l2vpm/MlzQ2X4ScVcZaDAA0yLxAeLszAWE/ZdJq1QCLLmjMGckl7PVwUQM+dpz+co0ef2LOGz8+0A32eqb9zESgClyEwc5ECaN3IOqE26BY3zuC1Hqx40H+Upys76CLHoTHQga45piz7yTfrWfqPvrQzedN31sZ6FBe45ItFv7fikM6cPrDHX+2i1/tRxnjRTSyMLTvpV/KrK+uqfsxYV3Irec6Q9Q7ZE0viou/Kz/igw58y8jLP+5729vbEN7HMZyFlWeeYfkpb+QNeDuh7dzTxSX505P1dstcucz5HeYe5lj+fA8+YfSZcT/yS94f1Jc2NAhjHWYaAcgH5wfAER34BVla9zBkAfKmTNXT1SMsL5EHUt9TrGp3YzTEBhkedq4c76amn6yJQBC5HgPzNXCTXLFir2jFzexZbLE8dqxqRHqJDm56T+9YZz6gp6vJs+sgenhyznmW88GU9mrzac9Yn7XBunUqbE6ekreJIevrAOfzaRa++5AzfrKErO3lfkx8dWVexiQ1s5ljJSU95zpBPvNEpXolhxpLPgjGo3zn5WTumvb39xBkd6b+yl/gJb362/FEX9BWOedfwzNzI+5Oe9zPp2Ei/fI7Sdq71O3HwjHliBh/6886S/+f1meZGpxXGwNaYtBnMpGcArOHfG14YM2MvsaGvgJuXOnnwMf2Y9D3/SisCRWCNAHll3sJB7lqoOCfPcszcnsUU3qwfys4a4TkzNtIHzqad5KdW6NfKx7P1LDFI36+pffoJLuLo2ZwzjqSlD5xnbdzTO+u6OtNO3teKP+uqfnCWsazktJXynCW2l9yVepyRxw/tz+fIffJz5kj7nOXe+OSd9ORlvRra16Z7eVMHZ4ldruXP++EMPNXNftL39nnvyOZzlLZzrR/zHj1fYQYNfvRvjjPNDUooAHwY+QBMA9DkkxdnHOkYgXIhOgp4yB8NdHgJ2EJua0BL+/ClD+7xxTEvCv6kyzf1eN65CBSBXyIwi2/m7izUSCedPbmcOqwfv7T0vVBnLsO/qi/o3Br4Zf1Y+Zg1QH+ynim78h9fknfl2/QLffihL3MNP37wyQGfvoArH0b6wB5/9MN4Uo9raOrzjDntcF/aWfEjr5/pR74TUi5jxlbKs89nA9t8cmBjnknPZ0092pMH2XxW5JO+t8d24oUucUY+Zbf8vMQf8UZn6gFHbPi8aVP8mdMf6PiY+vb2+dxoW315h7mGj5H3yFofkXf9E+vrhE+r8595zjY3CCY4OMHeD8A7PJM/L5XgpOP8DADHpSvvpXoOyI7Ulz5IZ546Ux56gqscfnmxM1b8UG4XZJV1LgJF4DWvM0fJr8xFco7cMu9mbltcMx/Vt1UjyE/rD/rRmQOd6QM0ZKw1zCmz5yM0PlkT5EcPdvBFnyfvrFPo2YrLc3UlVtjifCsO7Ijx9AEZzhxTh3LYE9fJI17eF7qSX93Iy5t+cEYM2Eq5GXPKo9O4XWsnZ2Tg84NO70U+9tAZ+CCva/k4F3/O9vbEp174xG5L18rPS/xJG94VcuJoDPjAvTnwz7vwDF2p42ifPiPnc6Tt9EMbzMhpm7V+5TORutWbOn5Y7zU3PzC+ccPl41hHESgCReAtCMziekbXVh2iNuUL6ozO8j4mArwc86X8CF7mi/q9/JnNVdrJBiPPWW/lxuT76D2Y2fScst3m5hRcZS4CReDOCLylueFlh3wOXoKHPwWmQNefAgEa1qteiu8Y3SM3N6vceEcoLlJNw0WzdtVoc3MVbBUqAkXgTgi8pbm5k8s1WwReEXjk5ubRroimZv612SkfP6q5OeVUmYtAESgCRaAIFIEicC0CbW6uRa5yRaAIFIEiUASKwEMi0ObmIa+lThWBIlAEikARKALXItDm5lrkKlcEikARKAJFoAg8JAJtbh7yWupUESgCRaAIFIEicC0CbW6uRa5yRaAIFIEiUASKwEMi0ObmIa+lThWBIlAEikARKALXItDm5lrkKlcEikARKAJFoAg8JAJtbh7yWupUESgCRaAIFIEicC0CbW6uRe673K3/18l+z813bLsqAkWgCBSBInAagb3mxu918L9BZp7fy3La4DsJ8L0YfovoygQNA5+tcSa22Xy0udlCtedFYBsB8ihrS37J4aSZu8mf60f7DqHtqEspAkXgQxC4pLlJRygoe01E8n7k+pLmBt9XRZCGjeJ5aeMGb36DcJubj7zp2vrsCJCDq1wkjxzk2CpXpT/iNz7rW+ciUAQeAIGzzc1sIihI/gQ1m4NJ86cv/0Qow58NArrUm0XPwigNHWmH82w8tIFtfE9d0pDB3vRfG8wW2jwzHn1nL13dzNPnaSdjxUf0GAPrR2wmM76ui8AZBHimzactuSOeNjdbyPW8CBSBVwTONje8vH3x8iLm48gmYNJoAChYjKPmhsIlL/zI2hCkfe0yY2+vCbBYMus/chZJ5LXBOXzqsznR3tSBf+kXe3Ex1rQJr7qZ0eew0ZE//ZCncxH4rAiQS+TH0eC532uAzNsjPaUXgSLwRRG4pLnhZewnYeIsBy9mGwRovqDhYe1LnPWUpeD5wmedhS0LInJJ0/6lzQ3+2Xggi0/4k81N2lN/+qRM0vSdM9YW8MRE/izMGbf0qd/zzkXgsyOQzz6xWAvI66wJ5IBnzJmzyE09nx2X+l8EisCNEbikudEkBYeiwphFyULEyxwavDnyTNmk50t+FjZ02ywoy1k2OZc2N9hEFj3Eot5sbjg3npy1h3/IO9J3zqZeMZM/6VMXPKszZTsXgc+MwOoHB+Ixr42NHDDfPMuZHJoNT9K7LgJF4IsjcKa5odjwsnfk2jPnSUOWguWY9GwQWO8VNnRYDG0yzjQ3/mlK2snmBtvQtsZsPtJ3ZLJ50VbqysKcPsgDNsblWeci8CwIrJ5v89kY29yIROciUASuQuBMc4MBmgB/YuLFzMt7NaDJB519NjeseckzbJrcoxP+o5FNRjYnK7kslhbStDHlKcBbDVbqwhZ69J09a3VrK5uV1E2s6HOwz+IPLXXL17kIfFYE5jNOHOaJMc0c89yZnMj64nnnIlAEisArAmebG4R4+frCpQix9zNf4p7Dny9xGxroNAKzQaBwKcuMvAXQc4qkI/WlD9JnsUS/McAzm5tpK323OHs2fUevzQ260zdj0S9meDMm9BoD6/Qz5bouAp8VgZkTMy947s0J54yVnGhzk4h0XQSKwA8I7DU3PzC+ccPL2mbgjaoqXgSKQBEoAkWgCBSBbQTa3GxjU0oRKAJFoAgUgSLwCRFoc/MJL60uF4EiUASKQBEoAtsIfFRzs+1BKUWgCBSBIlAEikARuCECbW5uCGZVFYEiUASKQBEoAvdHoM3N/e+gHhSBIlAEikARKAI3RKDNzQ3BrKoiUASKQBEoAkXg/gi0ubn/HdSDIlAEikARKAJF4IYItLm5IZhVVQSKQBEoAkWgCNwfgTY397+DelAEikARKAJFoAjcEIE2NzcEs6qKQBEoAkWgCBSB+yPQ5ub+d1APisBXRODf//c/X/7q93/z8qf/9Ocvv/qHP3ud2XPeUQSKQBF4EwJtbr7DN79M8zulqyJQBG6JwF//2z++NjQ0NasP9I7bIJB1jS/9ze/4yy8Ixtr8AtNLPegXmV6KVPk+DIGj5oaH1m/lzQf/zBdhnuE9G/j8duH8Nu6zurIInJUtfxEoApchcNTY2OzsNTj5UqYu8dLOMetC0lzLw7wa1j7mObB56TiqK9DRR0yrQU17r7qG3lV8Kz/2ztBBHB1F4GEQ2GtueGCzy8dpi8iZhuUM7xlg8GUWGXzeKlZHuo+K0JF86UWgCOwjwF852bxcMm/9FRV5bjPAnM3B3FMnVs0BZ8ht1Qvr36wxRLg624r8qK7Y3FhbUw++UYNX/iff3nrPPrq34t/TOWlghZ2OIvAwCOw1NyTb6oElGUhuP/JYLDg3GVe8Fp8EAX4SxKFu5lXyrXQom3Pq0Sfp6RtJPouAzVPGgyy86av6OheBIrCPAL9Tc0lTIw/8l4x8Sa/qFjlMzXD4Mk45ac7wUDO29MnHnLUiaxbyWYPSB+WpO3zgm0P7s3alzknbq2sZy0oHZ+lj8sw6nLTUO2PovgjcBYG95sYGggd3DmgUBgf75MsGYMVLYuQgQW0Ycp08ucZW2kua6/SBM/TaiBkbM8OCoA/MGR+y2pt6tde5CBSBfQT85WGbl6MZ/qNB7mauzh9SkIfuyznrUZ5POzY3ylsb2Gf9mrXCWmJtWfmTtqBTWyaffqYfK1/O1DXtaH/GT1z6Dc2YjSnlpHGGHP53FIGHQWCvudFJHnIe3nyYTTx55mzCcj552WdxgCcbmmwkpl73sxB47kwyoidH+jGTHL7UiazFENpKX+ruuggUgWMEjpqZFX1LKzlKHZl5nnmsbL7Et9byOmdTMV/uWb9mrUA+fci1unOGTj3CBr45lJt+zHjP1LVZ9xIL7BIX+lb1zjinn8jhI/52FIGHQeCS5kZnSQQf4Ewo6SQOyeGHPWPyss/iAA+Jk80TtuBRhzacLQju57xKtrRr4Ui5PNO+sTDPopKyXReBInCMwHv9yQ35yUuXkXmsR77EZ93wXL6cs6ngPBsD7DnQQW3JkXZW/mzxWgezVqUfb61rGQM+zPiJC9vYYT0/YLzyYXWWMXZdBD4cgTPNTSYcaxLDQQLzcWRyT154sjiwN6mVd8YGiTPH6qeH5IE+m5H0gySfjVP6wNpimXq7LgJF4HoE3ut3bjKf5wscb31pz5e1+1WN4WzWEJuBrF+rWpENTa5XyGWttG5lPOmH9NRzpq5NbIxHfeK0siPPijb1ytu5CNwNgb3mhgeWxHGQZDY0nGeCZ4LCDw15xuTlLJsWkgX+VYHZKwwUFf15NfTTT1fomzbYw69P2jQ+9/oA3yxs2kjfPetcBIrAMQK3+tdS1IUcWT+sN+Y2uTz5lSWXrReeOWdT4Zl1Imtf1kX45FFm1kbPnScdn6b+rEWz/pyta4nFjB+74sZ6Cxto1kriYJ96ja1zEbgbAnvNjUWCB9dPOkpS+VBP3pmwyYsOCwDy0PiYLCa3tLQ51xQufdOX5NmjpSz28Vkf0ME+5aXN4pL2ui4CRWAfgVv8PzeZu+Souall9uYu+bo15ss9+dBBXZjDupDn0x8bBHiy1uW58rNWYpczx8oPY2NOXmTSl1nXoCX/jB99+jhreuKYMSEzfdb3zkXgbgjsNTd3c6qGi0AReGoEjhqcvf/A76mBaXBFoAjcBoE2N7fBsVqKQBE4hwB/RcXv4PhLxszst/7jvnPay10EisCXRqDNzZe+/gZfBIpAESgCReD5EGhz83x32oiKQBEoAkWgCHxpBNrcfOnrb/BFoAgUgSJQBJ4PgTY3z3enjagIFIEiUASKwJdGoM3Nl77+Bl8EikARKAJF4PkQaHPzfHfaiIpAESgCRaAIfGkE2tx86etv8EWgCBSBIlAEng+BNjfPd6eNqAgUgSJQBIrAl0agzc2Xvv4GXwSKQBEoAkXg+RBoc/N8d9qIikARKAJFoAh8aQTa3Pzy+vliOb4IbmvwBXJ+udwWT8+LQBEoAkWgCBSBOyHwc3Pz7dvLSz/FoM9An4E+A30G+gz0GXiCZ+D/ARNaWH5uZsTSAAAAAElFTkSuQmCC;" parent="1" vertex="1">
          <mxGeometry x="319.5" y="270.48999999999995" width="250" height="33.51" as="geometry" />
        </mxCell>
        <mxCell id="5Wq_7XuYk5Ms4TRdeuI5-30" value="" style="shape=image;verticalLabelPosition=bottom;labelBackgroundColor=default;verticalAlign=top;aspect=fixed;imageAspect=0;image=data:image/png,iVBORw0KGgoAAAANSUhEUgAAAlUAAABECAYAAACoE8ClAAATDklEQVR4Ae2dzY1kSRVG2w0kFhiAA5iAEQhphA1ISAixQmLHCiF8mJklG3aADYCECWBDodPMaX19ifdeZnZmVVbmF1IS8SLuX5x4cfNWdzP14eXDh5d+yqDvQN+BvgN9B/oO9B3oO/Bl78CHjwBf2kqgBEqgBEqgBEqgBC4m8OHDS4uqi+lVsQRKoARKoARKoAS+I9Ciqq9CCZRACZRACZRACVyBQIuqK0CsiRIogRIogRIogRJoUdV3oARKoARKoARKoASuQKBF1RUg1kQJlEAJlEAJlEAJtKjqO1ACJVACJVACJVACVyDQouoKEGuiBEpgk8D3vv+Dl3//+z+b68+w8JOffvWJwS9/9euX3//hj2+6bWL4y1/+enYMf//HP1/Yy177+ptvD2XU34oDP1vvDe8Sa3xo9JfsxRjest/a41vGtPKd7+9q/Uvn3vMZ/t/es6jKl5VN8uGC3GMjKe1dpNXLOhMCL4r7pOeCZ2MdnbYSKIHLCazuotbIOfNL+uhuq3tJTz6bBc3MC9PuKsYpc/R86y+lI/9zfauYmXLz+YjVlD96viSOU3VOlTuK8Zbre3fjln5Xtld3Q7lT399b3l1juft+VVRl0Bz6XvGSsq85Pjq81cs6E8IsmriEmXDn+mvur75K4FEIrO6ie1sVLEd3W91L+tWXw5G/VYzn+l75PdfGNeUvLThmDv3SmC6J45S8fI0z+9K9naK/dzdO0b+mzN47ureWMRzdpZR92PFRUTUhcQl4EfjMP8WaaxwEjRcc+WzzMmFLu6zZuMTOayP9MIf92VbzMyHMy0nxyH5tcz3n77HQNL72JXBPBLiLeY+93zmHDHdvdbf9CZp15Pjk/Zt22Dvr5h9ZIKdv5+ixZ5t5aNomhnPzGTrEYp4ihox/+jSW6dv57I1FLujQtmyqawzEpa5r9Fu+mU+uKz/MsWftIM9+9cO6zTh4VoZ++lFeG/SeJWPZKoeP6Udd5/WnTj7P/fNsw46yjuezsu4vOWesM3bkZ5zYOoon1/N8mJ/8PRtj1L48eYaRccz3N30hwzMtY899aYde9h8V4n9SftoPsU8xIZ/xrva55Svt3WR8VFTlZoGbB8KaQOcaG/Zwvfi5AdZ5EWn0yvLMmkDSf+rjT/2cd7zSE7wy+DR+5jImnud66u35Vq59CZTA/4qWvN/cTe8PuSHX4DXvtgk+dfJ+51jeyE673O+878hi21wz84O2Zozn5jPjR4+WeWbGeUruy7jYu3vCPuOtfahnDMkNv+Z292e8xM86LW3nOG0jry1k8DOflZeFcvrcso3ezMu5D+0yZ8O3/pljDfs05j1/7Oo/5ecZoZ88eFbefegbOda1u7LlGja0s4pTmysb+a6nHeNJu8hiIxtxymTan+9v2pqyrKVtxtpln8ki/ed8jlNmxk3MxjL36XPqv9p4VVSxKT8ZCHPZgO0LOUEA0IMWZuoCRPh5oMgAhDkadj2U1J+Hl2vq+bK6hh1jYo6x+1z5YX3lW3vtS6AEjgnM3MDdNW9kntDSvNvImg9WMqu7q5z9yg9r3HHzBHcdW7NNXZ6n3Mxn5jZtpZ8pmzmGsXs92hdc/FLRD/3WPlImY2CeePWLXc9HHfeLbfZC2/KTcaW8tjKvGsfc60pvpc8cup4hz+wluRi7+nN/rCOfOsrSz/Oe/vae2d9kme9C6jLONuN0bRUPvGys753R5JPy2PBMtEefMef8jAWG891P+Tz7nJ8ccj/I8ez7qV7GvXpftnypf7N+VVTpjKAEJDw2nx8OPjenbs6p6xp9Hhx+0iZjAarLXII+5fDQzTbBJ/TVpcr1tNNxCZTA6QS4u3kXuWt+0TDPPcs27zayzGWbNswfmSNSfvUFhax5RlnynbacmzHyjEy2mc9yv8ixR+emrP7sjUk/zK/2NTllPKt95HrGwDzy+sWusWSP3MyhKz95XlMeG5lX8YmPeb4rPeNPfebQly3P2JRXMsy9+P4h7x60b5/yjG3T397z5IyNjF/dU+JENj9b8WiL9RXHPGtk5t3Id1Ufcy7jYGxbvZOesTqejTr0rHmGxs+cssQ83xHl0F/tMzmnr5uP94oqAk1gOZ6BzbW5ybmeL1tegmnXZwEKfnV4ytKvgM6XacoQo4e4ZSN9dFwCJXBMgHvlvUWau+uXGvPcw2zzbueXtHKZP5ybOcJ5enxkDMxNPylPrjCuVYzn5rNkkLFfkvuMc34ZOp997iPnMwbmMzfu2Z15XZvpJ89rJZ951ziYQ8+20nMt9ZlLtqeclXbs0ScO/c/3yOeUZ86W/pnLZ/en7FxPWcarpn99+qxs2mAu2eVY+Twf5uCpbZ6JGb1s+tC38j4rO+8Utnk3bPPsnNe+z/Tapice4srGPPZoq31u+UobNxnvFVU4BBIfWr54MxjWlFPWDfPMWLgAAKLPHPIENu1rA5A0fHkJVrKspX/19elzvjyspQ7jXNdP7sW59iVQAmsCM2Hm3TVxpmauM89dThvmj9RxzN3EZt5l5Ff5BZtbLRP2KsbMAcZjbpm5Z8ZPLCm7im3G5b6MhT7HyBMHn2zIoEuDKx9axsAz8RiH+/koOP6HNe3lUvphv/pZyaNvnBlHfiek3txn6hNDvhv45pMNH3PO9XzXtKM/ZdDNd0U51/ee8Z28sCVn9FN3K85T4pE3NtMOHPHh+6ZP+dNnPKwT44zZOI9iSZ7YyrMyFn2zZlzaRycbMvikpTzPc5+sZ+NZXzl/8/FRUUUAeSgEyrMfN6yc88DKTQqUdWDwESi6HIa69Kx5gM7nxUh7GUMCmzZTH7kVdOLyBZ17JQ71Mvb02XEJlMDnBLg3eUdn4uXOIeO9m3ebe8ta3kftbeWIzD/Yn8kVmzMfoGOuoU+dvRhZ45M5QXns4IfYjXnKsrf0i52tfTmvrWSFDea39oEfGc8Y0GHONm2ohz/2Qpsy8vK8kEl5baOvbMbBHHvAV+rNPac+Nt23Y/1kj04yxqbnohzPyNCIQXnHyqU/5vae2Z92kZPdlq1VnKfEkz48K/Tk6B6IgXOzEZ9n4Rw988jykZPvXNpyrK5niN58F7GZZ8fYWJT3rNO3tumdp1/tM2XTV87ffJxF1TWdAYdNtZVACZTAlxAgqWcCPcfWVh4iN7HW9jgE+IK+9D25FQUKCQuHW/mwIFnZt6harW3djZXsrefYw8O0FlUPc5TdSAk8JIEvKar4kkU/G19yfNm1PRaBN/uTiR2M91xUre7GzlZutvRw97FF1c3elRougRK4AoEvKaqu4L4mSuBiAvdcVF28qSspzr8qvJLZtzdzq6Lq7XfWCEqgBEqgBEqgBErgFQm0qHpF2HVVAiVQAiVQAiXwuARaVD3u2XZnJVACJVACJVACr0igRdUrwq6rEiiBEiiBEiiBxyXQoupxz7Y7K4ESKIESKIESeEUCLapeEXZdlUAJlEAJlEAJPC6BFlWPe7bdWQmUQAmUQAmUwCsSaFH1irDrqgRKoARKoARK4HEJtKh63LPtzkqgBEqgBEqgBF6RQIuq82Ff+7+S299Ddv4ZVKMESqAESqAE7o5AFlX8gsX8LdCM5+/NupcN8HuL9n5RJYUKn612zt5m0dOiaotq50tgmwD3KPNL/vLbuebdTfkc8ysu2kqgBErg7gisiqoMkkS2V7yk7GuOTymqiH2VfCkUSdqnFozI5m+0b1H1middX++dgL/ja95F7pGNOzbXXaMnB2URlmsdl0AJlMDdEDgqqmbxQiL0J8ZZlMw1f9r0T8By07MwwZZ2M9makF3DRvphPgsefeCb2NOWa+jgb8avD3oTfM65H2Pn2XVt08+Yp5/cKzFixz0wvsciNvfXcQmcQ4B32vu0pXck06Jqi1znS6AE7orAUVFF0eAXPgUAH1sWH3ONwoNESTsqqkiYyiKProVI+tcvPf72ig+TNL3xo2dyRl8fzCOnPYsi/U0bxJdx8SwX95o+kdU2PfZsFljKZxzKtC+B90qAu8T9OGq893uFl/f2yE7XS6AESuBNCayKKooAPxkcc9koCCxMWLMwQIaxxQPjqUuitdBgnAk1EzF6uab/U4sq4rPgQZeYiCeLqvSn/YxJnVwzduYY+8WRTJTPL4Tct+vTvvPtS+C9E8h3n72YC7jXmRO4A87R551Fb9p571wafwmUwIMSWBVVbpVERzKjzWRoAqSIYA3ZbDmnbq5ncTETKrYtUtRlLourU4sqfKKLHfai3SyqmHc/2euP+NC3ZezMTbsyUz7Xpy1kVnPqti+B90xg9QML+/FeuzfugPfNuey5Q7PQyvWOS6AESuAuCOwVVSQ5igxbjp2zn2vokihtcz0LE8Z7CRUbJmGLm3OKKv/0KP1kUYVv1rbaLHoydnSyaNJX2sovhIxBGdi4L+fal8CjEFi9395n99iiShLtS6AE3jWBvaKKjVF8+BMiBQFFw6qxphzrPGdRxZjigmax5jM2kT9qWdxkUbTSyyRtAk8fU5/Ev1XYpS18YcfYeWasbX1lkZS22Sv2bDznlw5raVu59iXwXgnMd5x9eE/c07xjzttzJzK/ON++BEqgBO6KwFFRRbB86ftFT/Lj2c8sHpxHPosHCynWKUBmYULCVJcefROv8yRnW9rLGFyfSRr77gGZWVRNXxm7XwrOzdixa1GF7YzNvRgXPbK5J+y6B8YZZ+p1XALvlcC8E/Ne8N57J+xzr9yJFlVJpOMSKIG7JJBF1TUDpEiwCLmm3doqgRIogRIogRIogbsk0KLqLo+lQZVACZRACZRACbw3Ai2q3tuJNd4SKIESKIESKIG7JHCrououN9ugSqAESqAESqAESuBWBFpU3Yps7ZZACZRACZRACTwVgRZVT3Xc3WwJlEAJlEAJlMCtCLSouhXZ2i2BEiiBEiiBEngqAi2qnuq4u9kSKIESKIESKIFbEWhRdSuytVsCJVACJVACJfBUBFpUPdVxd7MlUAIlUAIlUAK3ItCi6lZka7cESqAESqAESuCpCLSoeqrj7mZL4M0I/Plff3v52de/ePnh73788r3f/OhjzzPzbSVQAiXwEASeuaiav2T5IQ60myiBOyTw8z/99mMhRTG1+rDeVgIlUALvnsAsqvht8P6W+PxN8uf8guRzZM8FOH/b/S9/9etzTXySb1H1CUUHJXAzAkcFlUXWUWGVeenrb779LN6ZF3Jxby3lHJNT0hd5Ihs5cuYd5Odc6nRcAiXwJASyqCJZ/OSnX322c5PXOYXSObKfOTt4IBaSVzZiJmle0lpUXUKtOiVwOgH+as+i6ZR+668CufvkFRt5wHvPPM+uI2uBs7emrezJf7OIwpb2kJ1FFTrMtZVACZTASxZVJKOZUEA0f9JThkRDMuNj0lnJmtgSN/KZiLRDb7JM+ZWNXHecdozJtYzN5JkxWLTlftBt0pRg+xI4jwD/ZuqUYkoZ5E9p+QPRKm9xh8kZe2vTz0pWmcwBWVSRY9BrK4ESKIGPBLKosnBZJQnWSCw2E5bPmXRWsiS5bFlU5ThlckxMq7hSJmNgHrsWgO6NnmaBZVFFn/vLZDntps+OS6AEtgn4j9Itmo565E9p3El/+MoCS13X99aUtefOa9M5e3KPucSiimfnlGtfAiXw5ASyqBIFCYkiyIKD+VkoKWtPcrHombIWNMrSZyGVBUzK5Bj7GU+uMSYZYidbxpFJUZm0ORPqyp567UugBE4jcFRErdaPLHNv+djyHjt3SVGFDjlj1cg9+mRMfpw/KK70OlcCJfBkBFZFlQhIMiaSLFBcp1AxudBfWlRhz0JOG/qwJ46tNWQy6amTxdwq8eac/nM/s0jTbvsSKIHTCFz7T6q4p/OHq7zHRoUcPxjtrSlrP3+wcp6e3IMtGv6RZQ4/bSVQAiXwicBeUZVFySyqSDAmGYwxtuiZsqzPn+pISjM5IrdKmsyTIPcS2OpPljIOYjM+7NEyhr2E+p14uxIogTMJXOvfVJmL6GfjXmcuYt18s7d2ih1lLNJ4tqhijN+9vKR++xIogSchkEUVCSiTFsnDhGFSE0sWUczNP6kyqSmPHYsoCiDWfVaGHruredYofIxHHWLGHi19KM86TZ/uz2d9IYf9VZt2VzKdK4ES+H8C1/p//5EXvOfTi7nJu81dRp62tzbt8ExeUtd18kLmBnJGPs919dqXQAk8IYEsqkxAJBY/iYTkYdKZsiQiCxh0UpZnixj0TUIWNBQt+mNtr+FDWWNJ+b211MUPMRsDNnhOfddaVCXhjkvgPALX+O9UmU/yfmau4K66xn3NtreWco6nr8xryGAvfTNnDtNG+xIogSclkEXVkyLotkugBG5M4KiwOvoPf944vJovgRIogesQaFF1HY61UgIlsE+Avwrk31j5j9fped76D37uW+tqCZRACdwhgRZVd3goDakESqAESqAESuD9EWhR9f7OrBGXQAmUQAmUQAncIYEWVXd4KA2pBEqgBEqgBErg/RH4VFR9+PDCLwLspwz6DvQd6DvQd6DvQN+BvgOXvQP/BYAlN6p28YefAAAAAElFTkSuQmCC;" parent="1" vertex="1">
          <mxGeometry x="317.05" y="320" width="250.5" height="28.53" as="geometry" />
        </mxCell>
        <mxCell id="5Wq_7XuYk5Ms4TRdeuI5-31" value="" style="endArrow=classic;html=1;rounded=0;" parent="1" edge="1">
          <mxGeometry width="50" height="50" relative="1" as="geometry">
            <mxPoint x="265" y="360" as="sourcePoint" />
            <mxPoint x="95" y="360" as="targetPoint" />
          </mxGeometry>
        </mxCell>
        <mxCell id="5Wq_7XuYk5Ms4TRdeuI5-32" value="[{content:&quot;&quot;,date&quot;&quot;}]" style="text;html=1;align=center;verticalAlign=middle;whiteSpace=wrap;rounded=0;" parent="1" vertex="1">
          <mxGeometry x="152" y="339" width="60" height="30" as="geometry" />
        </mxCell>
      </root>
    </mxGraphModel>
  </diagram>
  <diagram id="dcQCkHp0V7RuW5l5hXQN" name="spa">
    <mxGraphModel dx="989" dy="520" grid="1" gridSize="10" guides="1" tooltips="1" connect="1" arrows="1" fold="1" page="1" pageScale="1" pageWidth="827" pageHeight="1169" math="0" shadow="0">
      <root>
        <mxCell id="0" />
        <mxCell id="1" parent="0" />
        <mxCell id="5OwjOXRMpdOAYrQS_AZP-1" value="Client" style="shape=umlLifeline;perimeter=lifelinePerimeter;whiteSpace=wrap;html=1;container=0;dropTarget=0;collapsible=0;recursiveResize=0;outlineConnect=0;portConstraint=eastwest;newEdgeStyle={&quot;edgeStyle&quot;:&quot;elbowEdgeStyle&quot;,&quot;elbow&quot;:&quot;vertical&quot;,&quot;curved&quot;:0,&quot;rounded&quot;:0};" vertex="1" parent="1">
          <mxGeometry x="80" y="130" width="100" height="190" as="geometry" />
        </mxCell>
        <mxCell id="5OwjOXRMpdOAYrQS_AZP-2" value="" style="html=1;points=[];perimeter=orthogonalPerimeter;outlineConnect=0;targetShapes=umlLifeline;portConstraint=eastwest;newEdgeStyle={&quot;edgeStyle&quot;:&quot;elbowEdgeStyle&quot;,&quot;elbow&quot;:&quot;vertical&quot;,&quot;curved&quot;:0,&quot;rounded&quot;:0};" vertex="1" parent="5OwjOXRMpdOAYrQS_AZP-1">
          <mxGeometry x="45" y="70" width="10" height="100" as="geometry" />
        </mxCell>
        <mxCell id="5OwjOXRMpdOAYrQS_AZP-3" value="Server" style="shape=umlLifeline;perimeter=lifelinePerimeter;whiteSpace=wrap;html=1;container=0;dropTarget=0;collapsible=0;recursiveResize=0;outlineConnect=0;portConstraint=eastwest;newEdgeStyle={&quot;edgeStyle&quot;:&quot;elbowEdgeStyle&quot;,&quot;elbow&quot;:&quot;vertical&quot;,&quot;curved&quot;:0,&quot;rounded&quot;:0};" vertex="1" parent="1">
          <mxGeometry x="260" y="130" width="100" height="190" as="geometry" />
        </mxCell>
        <mxCell id="5OwjOXRMpdOAYrQS_AZP-4" value="" style="html=1;points=[];perimeter=orthogonalPerimeter;outlineConnect=0;targetShapes=umlLifeline;portConstraint=eastwest;newEdgeStyle={&quot;edgeStyle&quot;:&quot;elbowEdgeStyle&quot;,&quot;elbow&quot;:&quot;vertical&quot;,&quot;curved&quot;:0,&quot;rounded&quot;:0};" vertex="1" parent="5OwjOXRMpdOAYrQS_AZP-3">
          <mxGeometry x="45" y="80" width="10" height="90" as="geometry" />
        </mxCell>
        <mxCell id="5OwjOXRMpdOAYrQS_AZP-5" value="HTTP GET&lt;div&gt;&lt;span style=&quot;color: rgb(25, 28, 32); font-family: &amp;quot;Segoe UI&amp;quot;, tahoma, sans-serif; font-size: 12px; text-align: start; text-wrap: wrap;&quot;&gt;https://studies.cs.helsinki.fi/exampleapp/main.css&lt;/span&gt;&lt;br&gt;&lt;/div&gt;" style="html=1;verticalAlign=bottom;endArrow=block;edgeStyle=elbowEdgeStyle;elbow=vertical;curved=0;rounded=0;" edge="1" parent="1" source="5OwjOXRMpdOAYrQS_AZP-2" target="5OwjOXRMpdOAYrQS_AZP-4">
          <mxGeometry x="-0.002" relative="1" as="geometry">
            <mxPoint x="235" y="220" as="sourcePoint" />
            <Array as="points">
              <mxPoint x="220" y="210" />
            </Array>
            <mxPoint as="offset" />
          </mxGeometry>
        </mxCell>
        <mxCell id="5OwjOXRMpdOAYrQS_AZP-6" value="main.css" style="html=1;verticalAlign=bottom;endArrow=block;edgeStyle=elbowEdgeStyle;elbow=vertical;curved=0;rounded=0;" edge="1" parent="1">
          <mxGeometry relative="1" as="geometry">
            <mxPoint x="305" y="230" as="sourcePoint" />
            <Array as="points">
              <mxPoint x="230" y="230" />
            </Array>
            <mxPoint x="140" y="230" as="targetPoint" />
          </mxGeometry>
        </mxCell>
        <mxCell id="-FiYHlb7NXyIGKOcGMWs-1" value="" style="shape=image;verticalLabelPosition=bottom;labelBackgroundColor=default;verticalAlign=top;aspect=fixed;imageAspect=0;image=data:image/png,iVBORw0KGgoAAAANSUhEUgAAAxUAAACdCAYAAADCFlUiAAAgAElEQVR4Ae2dzcu1WXbW698oqEGBAyeCEFDIWEQEEcVvtGlpFAcRQxCigaZtBYOOjAYq3SWtiJpMUlUidISkiR9VjYgYJIhdFQ3Y0YHgWz2wcZLJkd/bfb11vavu+3w85zznOfd5fhtO76+111r72muvvdZzzlv9xu6NN3Z+xEAb0Aa0AW1AG9AGtAFtQBvQBh5qA2+w8H/81gs/YnATNvBf/+du9/3v/7YfMdAGtAFtQBvQBrQBbWAjNkA+YVJhMnETyUQSW5MKEyqTSm1AG9AGtAFtQBvYlg2sJhW//suf7j762cOf//jzn95UQJrA1Hq73zyZVGzLiej0PS9tQBvQBrQBbUAbWEwqSBR+4fd9b/f+nzr8gY4E5BpB/I//xF/f/e2/8/euIusa+1HGcuJjUqFj8nHSBrQBbUAb0Aa0gW3ZwGJSwTcUJBTHBL3QQX8MrTTLQbS4vI6LScW2nIhO3/PSBrQBbUAb0Aa0gQclFflpFMGwScXrAbEJwvl4mFTomHyctAFtQBvQBrQBbWBbNnByUkFCwU+evvljP/h24pikgp8t/eL7v7R78623X374CdN//vX/9lq/g3HoQ0s7c+FD/+v/8J++/CkUvEL7q//mP7yizZrUf/xP/rlXdKwNj6xtORmj3sczvK3PTyQaQ5OKbTkRnb7npQ1oA9qANqANaAMnJRUzoSAQPDapIEBP4EibIL/7Cd5JNhL0Mw8dCQntmVTAJ3Os6cQgvMOjebIGea1D6FtGxqwvmzQcwvM5JhX//Od/cfczf//n/M/mbeQ/m+fj6eOpDWgD2oA2oA28bgMnJRX9DUUCw2OTigT/rJuB++yHNzXfRCQhaDrG+h9t55uPXkt7LXlgvBOdrENG5GXM+j6Sij/zZ//8q2+rOPtbCuJNKl53TDpq8dAGtAFtQBvQBrZlA0clFd/6Gz/4T8t+8mufDy4fI6kgqCfoyydB/kOSCpKZTj46QWAuMno8P5WK3J6z/XkbuDQma99UvPNz39gd+iw5oP/0a//l5TlT9/xf+6mvvNbvuWu3TSq25TivbR/K0z60AW1AG9AGbt0GDiYV+c/L5t9QzADy0kkFCUAnAbQT3D8kqeAbCdZNvbtPcrH0U6j+6VXT237cxGItqfg/L/7v7nf/yO99lQgmIaT+kd/zo7vvfe//LSYJfEMxE4qli9n8Qk/N+l/+lX/7Si4JQK8nOcnanmM865LANG3G4GVS4WPRNmVbe9AGtAFtQBvYmg0cTCr4z8WSUKz9f1E8RlKRJILgnWAt/WOTivwUihoeMzkIvyQH0C0lFSQ0/bOt0Fs/TVLB5frGP/pnrwL4BPLU//if/MJrgX4uIklBB+8Zn3USB8ZZA89u56dSPcc845mjzzpoaCeBoM3nu9/93y+Th/RbpkmFj0fswlpb0Aa0AW1AG9iiDRxMKg4F0JdOKpIQJGB8yDcV4ZGkgj2EHzWJQv/0iTG+0YCO5CK0h77hOISN8w9LPta+qcgF+8N/5E+8OiPO6o/+sT+9mFBAzzcFHfQT2Od8qaFZSjxICBjnQ/Af2dT0kziER+ZJDvJtBTzSznzX6JV56taz6Wz7uGgD2oA2oA1oA9rArdvAYlLBtxIkC8d8rvn/qG2Q/rAgfWu4HUoqfuVb/+61xOBX//W3Xwv6+9ItJQzMJ7mgnZ8odbJB+1BSER5zXRIFkgp4tz7MNX1oTSp8LNpObGsP2oA2oA1oA1uzgcWkgn+Qzb+l4KdPhz7QbS1oVd/bTk4OJRVcsr/8V/7qy+D8x3/iJ18L2pcuIEE8CUDPJSFgbC3xyNwp31S0jJlU8E1EfxvhNxU+GG0vtrUHbUAb0Aa0gS3bwGJSYdB920H3vZ/PMUnFb/zGd3dv/47fufvN3/xfryULS5cx3w50YtFJBWvyzcRcT8KxL6nY9xOnpaQi30xEZvp+U+FDMm3PvjahDWgD2oA2sCUbMKn4LROIW0tSjkkquGT/4Ge/fjChyGUkOeifHdHunyYlyQhNEolDSQX8oc066iQvM6mYMvymwsci9mmtLWgD2oA2oA1s3QZMKkwqbu7na8cmFVu/fOrvA6INaAPagDagDWgD92IDJhUmFSYVP/xPvt7LpXYfPlDagDagDWgD2oA2cG0bMKkwqTCpMKk4+mdk13ZQyvNR1Aa0AW1AG9AGtmEDr5KKnUUEbgQBf/60Deehk/ectAFtQBvQBrQBbSA2YFJxI4G0anyGgEmFDioOylpb0Aa0AW1AG9AGtmEDJhWfxbK2bgQBk4ptOA+dvOekDWgD2oA2oA1oA7EBk4obCaRV4zMETCp0UHFQ1tqCNqANaAPagDawDRswqfgslrV1IwiYVGzDeejkPSdtQBvQBrQBbUAbiA2YVNxIIK0anyFAUuFHDLQBbUAb0Aa0AW1AG9iODZhUfBbL2roRBHAgFhEQAREQAREQAREQgQ0h8MYbuzfILCwicCsImFTcykmohwiIgAiIgAiIgAgciYBJxZFASXY1BEwqrga1gkRABERABERABETgMgiYVFwGR7lcDgGTisthKScREAEREAEREAERuAoCJhVXgVkhJyBgUnECWJKKgAiIgAiIgAiIwC0gYFJxC6egDo2ASUWjYVsEREAEREAEREAENoCAScUGDumZqWhS8cwO3O2KgAiIgAiIgAhsHwGTiu2f4b3twKTi3k7U/YiACIiACIiACNw9AiYVd3/Em9ugScXmjkyFReBuEHjzrbd3L158ejf7echGvvDFL73C4Mtf+eruna+9+xA2F1uDDh9++NHJ/L7z8Sc79rKvvPf+Bwdpsn5ND+Ss2Q22xBwfCvVD9hIdnrJe2+NT6nQp2fvO8FIyngUfk4pnccyb2uSxSUU76zhtHohbLDzK+x6SJWc9H0Qex+yTmgeuC/OssYiACDwcgaW7GG74nBmkHrrbWfuQGn82A/rpFybfJR0nzaE+e4TPrZS1YP6QfoewOrR+zj9Ej2PXHEs3dbpmf9/duKYeyFq6G9fWQXkLCJhULIDi0JMicGpS0cri9PYF7017zfahwGPJWc8HcSYNPEIdcMz5a+5PWSJwLwgs3cXsbSlgP3S3s/Yh9VJwf0jeko6nyl6SeyqPS9I/NOCePvRcnR6ixzF++RJndu7ejlm/724cs/6SNLdmo5fc26Z5mVRs+vjuUvlzkor54PII4Aj5zG8x5hxOioKDh77LfEzgFb7MpfCIZTw8Wg5j8J9laXw+iPNxInk6Jqlg3S0mWhMD+yJwCwhwF/se5373GDTcvaW7nb+gMg8dn75/kw97Zj7+JxhAF9kZo4ZfyvRDkzc6nOrPWIMu8VPo0PpPmdFlys5419EluLCGssYza6MDemVt5qjXZDPeuC7JYYw9hw/07DdymE+JHvRDQz3lhD48qHOWtINt6JAx5WRtxiMva7o/908/BT6hTXv2Q5v9Nc6t69Qd+qknvA7p0/N9PoxP/HM20TH8gyf4QBNdwi97SD/roY/O1CmRHf5Tj5xD6LtGfnhGr95jy2n5oW1em2+bVGz+CO9uA+ckFVzeOEEuejsk5rjolDnH5Y7zycPXwDKPI6ZQh5Y+c3E4Lb/XIy/rezztpXXt5KBDZvSn3zotzYd3nGP61iIgAusIcBf7ftPP3cU39Bxc5t1O0NBr+n53O1pMn8I497vvO2Pwjq+Z/iG8po6n+rPoz7rokb1MPY/xfa0Xe8+e4E97bR9ZFx0aN+TGt2d/0Rf9mac07243b+jDCxrkzH7o4QsGoYvMNd6sm3679xG+jKUgO/IZYw7+FMZz/vCN/KafZ8T6xoN+6LOPyIaO+fBd4pU5eITPkp7hucSj71DziT7NF1p4dEHPYBJ7TX/ugX4wg0fznrKj19Qj/dYhbXggIyW6No6Zg09kZOzuapOKuzvSzW/o1KSCy5tPb56xLjiWOJd54XGUuey051qcRpwF7Tgw+NOOU2Fdz0U+jifrM9b11Cd8oxN92tDlM+UwP8dahm0REIHDCMy7yN2N32g/EU7zbkMbf7BEA/9D93RJDry448xR4AGvWeZa+pNu+rPpm1rOpG3daWevh/YFLmA1y9o+mq51YBx9Ixe+OZ+syX7hzV4oa3Jar6YPr/ar0WPudWnd0nrGWJszpM9eGpfonvVzf8xD32tCSz3Pe8rb12d/E8u2hV5Lu8vUM3NL+oBXCvP7zmji0/Tw6PM7ph+51G1HfYbdDn3bQcaoG5M53vtkjv7ErdfcRduk4i6O8a42cWpSkc1z6XESlDgyLnB/cEDTKYU+ji1rw5c6jwlt6Jon7TxwWctYOxQegOjWfNOGJ2u7TMcGTXguPSo933xsi4AIHI8Ad7fvInctgRbj3LMu827PIAfaySP+I/e5+dGGR2RmDtr4mYzhU8IrY1NH+tB0mf6s9wtd+6NJG3mpo1PkML60r4lT67O0j55vHRiHPnLhG126hg49+ryW5PR5TXp4tF9FJjKQ2WVpXeZ7PWOsb7zhGbwaw95L20L2EP6pm552ypS3rz9xhkfrn7XH6Altf9b0CS/ml3Dss4Zm3o0+v8z3+cx5ZLResaOW3e3o3ThkDN0ZXyrZF7Lgl5LzY/wui0nFXR7rpjf10KQiziKb33dp59x0InO+nW0/ApE16zgUasq+B5X5JYc1nemkQcd2VnN+6mRfBETgMALcq9xbqLm7CeoYn0HEvNsziIFH+49oMH1ExqmR0TowNuU0Pb4iei3peKo/awxa94f4vugJLsExY7PuffRc68B4+8Z9fKdfD8+W0+e1RN9+NXow1ntZWhdZvZ6xxvaYswqf1KxHj8ifdpR+0zOW0vIZ6372F9o537S0l0rkR2b6oW0ejDV23Q59nw9j4Bne9Of8vn6fO2vbjlp2t6PHPMeMr+GQ+ey/dY5seN5dMam4uyPd/IYemlSwcR5ePpR2vBMU5kIX2r7gtHE4FBwMjiN9nBbrDxV4xJEgi3VrhbmWD13rkD66pEwHCX3Ph27yybi1CIjA5xGYQU/f3QQIvarnGecuN4/4j16TNncTnn2XoV/yL/uCF3jAi7KkY/uA6NP+LGtZP/VHl6Zd0i37SZ19RRfqbkOHHny6QBNdwJUPpXWgjz7RI/tpPmkzF34Zo2457DdyluhZHz1bj34Tet3cZ69HdtsGsvl0QcYcy3zbWvhEXmhY27YSuszv6yO78YJXcGZ9r13T8xh9gjc8mw84IiP2FpnBn7r1YR4dm9++fttNZIdfn2G3oaP0OdKOjsie8n+45FUFPbh0od9Y99ym2yYVmz6+u1T+nKQCQNopcWnp59MXO2Oh7wuOU8k8TodPnAgycCKZz/o404zj3FKaX+uQ+SWevZ559INPF/SKQ5t7RY+sa917vW0REIHXEeDe9B3lfvVd5M5Bk3s373aCmr6P4bfmI7if8T/wn/ccnq0DGrMmvoa61+zTkTk+7RNCDx/koEt0nrSn+L7sN7waK2QxvrYP5ATjqQNrGEuZPLIOecF10gSvnBe8mj68WR/a1oMx9oCsXjf33OvhmX2nHTldswa6fOCZcwkdfeYp6BDatEPHePBnbF+f/YUvdMFujdeSnsfo0zJyVqwLjtkDOnBuKeiXs8gYvJrHoX7rzLrYUWS3HpFBzbrIpj31Qlc+8IwNZAydKGs22HI23zap2PwR3t0Gjk0qLrlxnACOwiICIiAC5yAwg5pTeK35IXxTB4an8JT2NhEgwOxg+Ba07KTpsfQh0F6z5Q7sp/y1uzHp7D8xAiYVT3wAiv8cAiYVn4PEAREQgY0gcE5SQZCZv2pmuwSf+Wtqxqy3j0D/5ftWdnPLScXS3bgV3NSjEDCpKDBs3gQCJhU3cQwqIQIi8AAEzkkqHiDOJSJwMQRuOam42CZl9LgImFQ8Lr5yPx2Bp0gqTtfSFSIgAiIgAiIgAiIgAq8QMKl4BYWNG0HApOJGDkI1REAEREAEREAEROBYBEwqjkVKumshYFJxLaSVIwIiIAIiIAIiIAIXQsCk4kJAyuZiCJhUXAxKGYmACIiACIiACIjAdRAwqbgOzko5HgGTiuOxklIEREAEREAEREAEbgIBk4qbOAaVKARMKgoMmyIgAiIgAiIgAiKwBQRMKrZwSs9LR5OK53Xe7lYEREAEREAEROAOEDCpuINDvLMtmFTc2YG6HREQAREQAREQgftHwKTi/s94azs0qdjaiamvCIiACIiACIjAs0fApOLZm8DNAWBScdkjufT/S+oXvvil3YsXn15WSbmJgAiIgAiIgAhsGwGTim2f3z1qf2xSQWD75ltvv/Z57/0PbhKSd7727u7DDz9a1Y1Anc9aYZ/H7m0G/SYVa6g6LgLrCHCP2r9wh1PmXO5u03f7Ox9/kqXWIiACInC/CJhU3O/ZbnVnpyYVvU8e8n3Be9Nes31MUoHuS8EHyQRBi0nFNU9MWc8VAe7g0l0kOU/hPi7d1czjgzoJybi1CIiACNw1AiYVd328m9zcOUnFDN4JBPIXwxmUz7n8tTHfgDR486/98ArfDjYSkGQOHi2H8aWfDiEb3ZtX5LMGeVP/yKBOgNNj2U90p5/58KaeOk85vVd0hE/2QPsWk7jen20ROAUBbDr3aW3dIRqTijXkHBcBEbhrBEwq7vp4N7m5c5IKguYEvATAfFI6+J5zBN4ECpRDSQUBQ2ihZ20C8ZYfudTI2xd8J0ihjv6sS3DC+shgHLrwS1IQeZMH+rVe9INL9toyoQ1vavilJMEIfesRGmsR2CoC3CXux6GC3e9LPHJvD/FxXgREQATuCgGTirs6zrvYzKlJBUFwPg0AY10IiBOYM5fAGBraCZ5pz7UEGgm0aXdA0YEI63ou8o9NKtAvAT9r0Ql9OqloeeHfOmVNz0V3xmgncGpMQt8BUe8785N/xq1FYOsItO2zl/gC7nX7BO5Axqj7zrJu8tk6LuovAiIgAkchYFJxFEwSXRGBU5OKqMZDz2NOmcFAAgCCaOag7dJjWdvzHVzPgALeCdKzlrFOLo5NKpDJWviwl/DtpILx7KfryEM/1qe07oxNvsEs9D0/eUGzNJa11iKwZQSWEnb2k3udvXEHct8y1jV3aCYaPW9bBERABO4SAZOKuzzWTW/qoUkFjzxBdkq3M5Z6zrGWQCFlzndgTntfQAGPBCEJ7k9JKvLtQcvppALZzK2VGfS37qzppCGymlcHRK1DaMAm+8qYtQjcCwJL9p37nD2aVAQJaxEQAREoBEwqCgybN4HAQ5MKlCf4zl8ICYgJmpcKc6Fjnn4nFbQJrilJVtKHJ/SHSgf3nRQsresgJQFMy5jrCXzWEpvmhSz4RHf6tMM7sjpJaN7sFX4p9DvoYq55h85aBLaKwLRx9pF7kj3NO5bx1NyJ9i8ZtxYBERCBu0bApOKuj3eTmzsnqWDDBL0JdHn86eczg+eMQ9/BcxIJ5gnAZ2BOwJC11KxP4JFxgpOU5tc6ZH4GKfDPHqCZScWU1bonKMrY1B2+SSrg3bplL9GLGtreE3yzB9qtZ6+zLQJbRWDeiXkvsPvcidS9V+6ESUUjYlsEROBZIGBS8SyOeVObPDapuOSmCJIThF+Sr7xEQAREQAREQARE4FkgYFLxLI55U5s0qdjUcamsCIiACIiACIiACOx2JhVawa0hYFJxayeiPiIgAiIgAiIgAiJwAAGTigMAOX11BJ4iqbj6JhUoAiIgAiIgAiIgAveEgEnFPZ3mfezFpOI+ztFdiIAIiIAIiIAIPCMETCqe0WFvZKsmFRs5KNUUAREQAREQAREQgSBgUhEkrG8FAZOKWzkJ9RABERABERABERCBIxEwqTgSKMmuhoBJxdWgVpAIiIAIiIAIiIAIXAYBk4rL4CiXyyFgUnE5LOUkAiIgAiIgAiIgAldBwKTiKjAr5AQETCpOAEtSERABERABERABEbgFBEwqbuEU1KERMKloNGyLgAiIgAiIgAiIwAYQMKnYwCE9MxVNKp7ZgbtdEbhBBL7137+9+wvv/dTud/3MH9y9+dM/+rKmz7hFBERABERgAQGTigVQHHpSBEwqluF/52vv7j788KPlSUdFQAQuhsBP/qu/+zKRIJlY+jBvuQwC7dfee/+D3Re++KVXjF+8+HT35ltvv/wwSPshPpA1yLGIgAg8MgImFY8MsOxPRuCUpILHIo9OPzg8Rv047VPiFNp9fJbmvvPxJ6/p9+WvfHWJ7KixfnyPWiCRCIjAyQgcSiiSZOxLLDoYxi8RLHeZfqHn0g4N9VKJ71sKspF5bDnkV5iHH3taKvi0x/Jr8F3a35Ie+8bgYVKxDyHnROBCCJhUXAhI2VwMgWOTCh6KmTjk8T4lUTiF9pRNost83NF5LUg4xPvQ439ovfMiIAL7EeCnTUkajqnXfgrFPU8QTt1B+ezjJ5aCcsZYt+Yv4v+mj2GHS2NrOz/kV5JUxLc2H3TDBy/p33T72vvkw3tt//t4zjmwQo5FBETgkREwqXhkgGV/MgLHJhU8cksPBY8Qj2o+ockjzXgewSXaPPqtOPQ8TCnhTb306C3xyNqum090ynzrxuM6H98kLb0f1kLbuoaftQiIwH4E+DcTxyQToYH+mNLB8ZLf4g7jM1ISBPe6zKWGBp+xxi901O0r2mexvn1Q65D1+B0+0M0S+dN3Nc85t8+v9V6WeDDWOjbN9MM913znHuyLgAhcEAGTiguCKauLIHBsUpHAnQdjFuZ4kFPoN10H3ku0PEhdeBgTqHe7abqNrJbXc2m3DozBNwlQ9kZNyUMcHah7f6yNvMk38qxFQAT2I5B/lJ2k4VAN/aHC3e27Ov84wHrmExS3P+rxKSdJRdbHN9Bv/zV9RXxJfMuSPi2LeXzLpIuerceSLqf4tciJ/Ll/9hW9mcues6delznGWIf+FhEQgUdGwKTikQGW/ckIHJtUhDGPC49GPyJ58EIz6zyUjE9a+v0oQ9OJRAfwk2/68wHOeGoeQfh0aT3m4wpd82RtghDmlvg1b9siIAKHETiURCzNr3HljuJH5j3ve5y1HTyvtUObuoP5GVS3/5q+gvWtQ7fDu2vm8UfIQLeUrJt6zP2e4tem32sskMu+4Lfk77LPqSfr0BF9LSIgAo+MgEnFIwMs+5MRODWpiAAeoDwc/ZBlngeLRykf+pRJS78fZWh4sDppQRY04REZqfMQpz/rpUeu5ebB7nU9FvnZC/V8zHutbREQgcMIPNY3FdxPgl1K3+NolOB5+o2Mh67rDuYZ74AceSnwwLd0aTlL+qzRxg+2r2o9zvVrvQd0mPtnX8hGDu35AeMlHZbGeo+2RUAELoSAScWFgJTNxRB4aFLRDx1tHqQUHk4+Kf2oTlpo+lGmn8c061MjgwdrlqW/ljUN8zMJaD14XGfC0jrQTpDSfG2LgAg8HIHH+jcVfZ9n4Iy2CZZnkJz+ko9hbPqQBOHtv5Z8RScS3V5Crn1l/Fbvp/XIfPM5xa9NbLKf8AtOS3JCszQ3+YbWWgRE4MIImFRcGFDZnY3AsUkFDwUPVgqPWxIJxvth7YcReuZYT5m0jHWywCMF/dLDvu9B5jGPPi8F/fCvifCbMuhDH50iM/tLPzpANwOKyGjdM2YtAiJwGIFL/def8Atd2n/E3+Ruc5cnfdZyl+MvMpa6g/mMxU+072u/CF1osmb6xoynnvPoNPm3L5r+51S/1ljM/SM3uNFew4a5+Er2Qb/5Zm/WIiACF0bApOLCgMrubASOTSryOPNg5NPCeczymEza+VA2LTzy8LKeOT55pPKoZq5lzjYBQ3SLLk2zb67XIh+dowM86Pf6zM1HveXZFgER2I/AJf5/KvruckdzNyOZfu4u93WtzKC66eCBX5glfqHHpz4JzKFpX9fjWT99JXIZS1nSI3ujblrWtC7TrzHX9HP/8IuO06c3jr0n1kydo7u1CIjAhREwqbgwoLI7G4Fjk4qzBclABERABBYQOJRY7Ps/vltg55AIiIAIPA8ETCqexzlvaZcmFVs6LXUVgftEgJ9C8W8s8o+3qemv/R/e3ScK7koEREAETkDApOIEsCS9CgImFVeBWSEiIAIiIAIiIAIicDkETCouh6WcLoOAScVlcJSLCIiACIiACIiACFwNAZOKq0GtoCMRMKk4EijJREAEREAEREAEROBWEDCpuJWTUI8gYFIRJKxFQAREQAREQAREYCMImFRs5KCekZomFc/osN2qCIiACIiACIjAfSBgUnEf53hPuzCpuKfTdC8iIAIiIAIiIALPAgGTimdxzJvapEnFpo5LZUVABERABERABERgtzOp0ApuDQGTils7EfURAREQAREQAREQgQMImFQcAMjpqyNgUnF1yBUoAiIgAiIgAiIgAuchYFJxHn6uvjwCJhWXx1SOIiACIiACIiACIvCoCJhUPCq8Mn8AAiYV+0F752vv7j788KNVoi988Uu7Fy8+XZ13QgREQAREQAREQAQujoBJxcUhleGZCBybVBA4v/nW26993nv/gzOln76cAJ9A/5wCD/ZyTDJgUnEO0q4VgeMQ4D7Oe41/aZ8zOZHQZ34t8f/Ox5+8ooGW/ixf/spXd/BaK9FjbZ7x0LRPmT6z/SV7je5dL+nXtI1Rjx/iEd2Dx5KcpbkpI3ysRUAEbgABk4obOARVeA2BU5OKXsxDtvaYN90l25dIKggi+PQDvaYjNPv26DcVa8g5LgKHEUjQSsA972P3mefOpjCX+QTvHdA3XdoJmtPnXuPD4L0vqUjAnnVdRzY8oGsd4J9+6NJvHrSh7f1lfu4bPdf80RqP8KJGBnouJRVLc8hPacwzZi0CIvCECJhUPCH4il5E4JykgkemH7g8SnmoI5Bx6PI4sy6PLGMJDkKfBzr0eQDneGQnWAh9+CzVyE0iAP0szQu6ucfWgbnwgk/vk3ZK9KLOXkKfuX68Mxb6YLUWkESOtQhsFQHsf/qB3kvubca4X/MudT90s+77mgDaw3UAABH2SURBVDnWMb5U0Cl3fmm+x7iv++4oMtZ0XNIL3nPNvsSheUBHvwtj8VlTj31z4bFPdmisRUAEroiAScUVwVbUUQick1T0I8pj1UFBAmKUIACgn0K7H7ymnY8hjx/zeazz+IUX4z1PANABfehSd/ACHfxSJq/IDs3ULcFGdJv7hC/7zPrwY7z1iHzqqRNjU6+mty0C94DA2n3I3rhDfa+bPvcjtGv1Gh33sv1R1iMTn7a2LnSp2w9lLPWaDOYjJ7RdoxdrU9b4TB70e0/sIf3Jc99c5FIv+aaety0CInBlBEwqrgy44g4icGpSwcOZTzNnrAuPPh/KfIz29ZnrR5T1POw8kpT5eLaclwS73WsJTMZS94MKL+SldKCSsZY99YYGfjzKFOazZ/rso/mHhnHo5lzmmwdjFhG4dwSW7l72nKA+9yzj3M34ojkXmq65q/EjPb4UqEcmdN3udbONLlMP7jjjS3c969uHZCw1e+y1tKGfZR8PaJmPX+32oTnWBOOsn7Lti4AIPBECJhVPBLxiVxE4NakIIx6mPNB5dPP4pE5wzEMYWtbv6y89jjys4QUf+ikdWEQu9VJZCh6gTSAAr9YTHj22pFuPzX3Bq3VKO49zdGddF3hCmz33nG0RuEcE1pIK7hD3YRbG+q7OftPHP+We9xztJb8Av9zTrJ/rZr99yZyDF/PhmXn68/5nLjXz8R3gNOkP8cDPtC/pve2bi/zUyJ2yM2ctAiLwBAiYVDwB6Irci8BDk4o8kmHOo7dWeIg6ANjXZ24+vB3Yw4d+Co9lP5gZX6pZl8e566xf4tW6LukGnwQrTYv8Q499dESv3lPG9wVKobEWgXtAgLs378DaveC+cTe6TL+QOcYnbeZSc0+bhjXtH7qdu561Xbcv6PG0l/wLe0TeseVUHkmIeg9pf/Obv7S6zzWdWGsRARG4EQRMKm7kIFTjFQIPTSpg0I8+ATUP3lKZwfa+/gwCZvLCPOtT5nzGl+qlR78DivBK4JB+Hlj218EH/eY594UOzMNnX4H/DKigT8CRwCB67ePlnAhsEQHuUt8BbL3v+dzTvFfQxv9wR3Nn+75OHum3D8hY17l/GWu/lzHq9gX0ez+Zj15Zh37zXkOzpHf8UdamPoUHa6Bf80k9B03rO/1f5FuLgAg8EQImFU8EvGJXETgnqYApD2keHh4k+vnksZzB9qF+gvXJJ5vIeORSZ4x6Puasg+dakILe4dWyoYdX5uDDWGTlkV3bJ/QJSLIGWRT4Zow6pTGMvuEROaG1FoF7QYC71Pc2AXTfEdoJhnMnMt9r+z5nvmtkdYFn7mWPpx1Z6SOr5WUcGX1H25cw136ENdAuyYUu47Rb98hKfQyP0KaGd3DMWOo517KjU2itRUAEnhgBk4onPgDFfw6BY5OKzy10QAREQAREQAREQARE4GkQMKl4GtyVuo6AScU6Ns6IgAiIgAiIgAiIwE0iYFJxk8fyrJUyqXjWx+/mRUAEREAEREAEtoiAScUWT+2+dTapuO/zdXciIAIiIAIiIAJ3iIBJxR0e6sa3ZFKx8QNUfREQAREQAREQgeeHgEnF8zvzW9+xScWtn5D6iYAIiIAIiIAIiMBAwKRiAGL3yREwqXjyI1ABERABERABERABETgNAZOK0/CS+vERMKl4fIyVIAIiIAIiIAIiIAIXRcCk4qJwyuwCCJhUXABEWYiACIiACIiACIjANREwqbgm2so6BgGTimNQkkYEREAEREAEREAEbggBk4obOgxVeYmASYWGIAIiIAIiIAIiIAIbQ8CkYmMH9gzUNal4BofsFkVABERABERABO4LAZOK+zrPe9jNtZKKd7727u7Nt97evff+B5uF7ctf+eruww8/eqk/bfZkEQERuD4C3/n4k5f+5MWLT68vfLd7KTu+4JAC+L1jaQ/xWpvHr+qP1tD5bPwUuzmF9jMJtkTgigiYVFwRbEUdhcCxSQWPN49jf45NEHDOX/jil47S57GJeNx7D7SPDUw6qXhsPeUvAs8VAe7jpfwFgfZjB/S3cE4mFbdwCuogAldGwKTiyoAr7iACpyYVzZCA/JgHGxoC8lsoUxf67OOYYlJxDErSiMB5CJhUnI6fScXpmLlCBDaPgEnF5o/w7jZwTlIx/wpI0J1vAfItBnXGqPnWgrJEm/EE+tDkW47wyfr04QldCu1en/HUM6lgnL+KLvFtfaEL79mmH5nZK2NzffaSb32O/YYEXhYRuEcE5j3mjuQOUecnPbRzx1iTuxRMcqeylnnua/rU++7blIuMFNroEX6MT36ZYxw9+5uWpo0PYZ5xPvtK6ENDv3WDD/uKjugZvuypS8apM0cNj2DLXPPv9d1uetZQwov1LaOxCW14hZZx6FLo5xNdMzfr5sGapg9+4R8dm0fkULOv2NykDe/Qt77Nz7YIXA0Bk4qrQa2gIxE4J6nAueahxhHHGSM6Dpg2jrod8D5a6FibgmOn3w8d/PrRZk3m5/rwST11YTwP8+Qb2dkjvKGhdJux1jk07DN6sSZ9+EEfvi8Z+j8i8MwQmEFbts+96PvNOPeFO5fSa3OfGKPQT5s7l/uYtbPOeuoU5GVdgtbwhKbv7/Rn6Nn6Ny1zs98+IvJTowP8KdEzONCPnOjYOmeOtbQzxz7QgZJ2ZKT/cnLlf+CT9ZBMvr2fiQ1z0QtZabco9heePb7Uhq55RP+cZfDO2imzcYGGfTUWzZu52YefRQSeDAGTiieDXsErCJyaVOBY82mWjHXh8cjjguPPQwjNPlrosg7aPBLNG5p25rTDf67vdbSnLv3ITb7Q88DkgWP+ULvloVc/QrTz2DWdbRF4jggs3W1w6GA5uOAz5p3P3eIOJxAMfeq+v4zRj//q9e1zoOOehydz8S/hC4/c5W4zP/Xv+fYhkRPeyIxuWdO8mEcX5rI2elNH3+gQuvaPLxf+8I8ijPMJDpmjH6xpR6fwn3vIOtZEZsZmn3F4sq8leubhn32FT9Yt6RJdQ4ue7aebF7TZb7ezts99ziM7Zw49cpp3eFiLwNUQMKm4GtQKOhKBU5OKsMUxx3HjaOPsu47DhS4P5yHa+WBNx478fugiL/zn+uibGl2yhjoPTPj2o8FYPxzNu9vwmOsiL3PsIzpmzloEnjsCfR+DBXep7yXj3NW+Y+0XOogMj9T75vbRtM/Cj8GnS/RZ0nWOhZb17Tfot5zm3+34EHSIH6FOH9qpIzogl9IYM5YPPBrHyEQe42sl+sz5yWviEPrm37plnhoa9Mwb0nPdXtIFXLJu4t06Inuea481LTLRhz2ltJyMWYvAVREwqbgq3Ao7AoGHJhU4XJxsSrczlhpH3QH1Ptp9j0D4QYP8pTLXT5qpS88v8eXhYA2lec/2mj48bnnww6dl2hYBEfhB4EuASFkKRmdA1wFf7tgSjn1/l+YZW1rPXU3Amfvb66NPB++Zb90YCy3t9hv09/mj8EN+00Xf4AXd1LH1Qh/kLpWpKzTwZXytwGtpfonXkq9fSgTYX+8nshljbq0s6dJnPvFuHRvT8G8cm5b5Pkf6yIHeIgJPhoBJxZNBr+AVBB6aVMAOp5qHF+e95mCn895Hu+8RyBaQA91SmesnzdSl55nrh41HpR/F5t3tua5x4HGHtvnmwae2iIAIvJ5I5H40LjOg64Av9LlPzPGhHBP4zfWsQ154cJ/j56JT68P97vl53yct/iJlnz8KDXq0DPTFnzCWMnXMnjLf+8kYNbzbNzFGP3tv2rTX/N0SL3BpbNZ8d/YUGalZ23hlPPXUBR3YawoY9fqpI7Q9Tz/6LtGiZwp07eszbi0CV0PApOJqUCvoSATOSSoQ0U6Zx4h+PnHAOO1+AFm3RnvoEci2cOiR0zrM9aFPvaRL5qh5JJpv9sBc8+72XDcfaWjzUEELT2Q0b8YtIvCcEOAu9l0jiEvhzjCXezPvywz46Dev3K0ez1hkdN108OlAcwbsrJv6tGzWtg9o2uk3Dvmj6Dh1gn8HtFPH+JisTz96Rr+JI/TMMb6vtJ/cxwseOUtkh5bxtfOHJnqy9lBpXVjX5zzxnvtdOvfY3KSdvKHrMzikp/MicHEEklQQyPkRg1uxgYsbugxfQ+CYR/q1BXZEQAQ2iwDB6DHB8GY3eMeKkySYKNzxAd/b1pJU3Nu+3M92ETj2m4rt7vBpNZ9/tXxabZQuAiLw2AjwRwQD08dG+fL8820OSaFFBDaBgEnFJo7pWSlpUvF4x52v8fvr+MeTJmcREIGnQKB/3sNPZEwonuIUHiYzP7NKbULxMBxd9UQImFQ8EfCKXUXApGIVGidEQAREQAREQARE4DYRMKm4zXN5zlqZVDzn03fvIiACIiACIiACm0TApGKTx3bXSptU3PXxujkREAEREAEREIF7RMCk4h5Pddt7MqnY9vmpvQiIgAiIgAiIwDNEwKTivEM3AD4Pv6XVYrqEimMiIAIiIAIiIAIicMMImFScdzgGwOfht7RaTJdQcUwEREAEREAEREAEbhgBk4rzDscA+Dz8llaL6RIqjomACIiACIiACIjADSNgUnHe4RgAn4ff0moxXULFMREQAREQAREQARG4YQRMKs47HAPgh+H3F//Sj+1+/x/4Q7uPP/mNzzEQ089B4oAIiIAIiIAIiIAI3DYCD0kqCAa//u43bntje7RD929/+9/voTh+6tQA+IN/8S9fBtNgyKcLemV8zkGXQJy5ffo3HbTIXCuXxGJNxhxHn332cyqmk799ERABERABERABERCBKyNwSlKRoPdQUHjlLZws7pKB9KkBcAfT4Pg3/9ZPv9K/g3/omha6zL948enL5IN6qZBU9DcAJBbd7zWXxKL57msjM3tZojsV0yUejomACIiACIiACIiACFwRgVOSiqhFQNgBb8ZTE8AS2ELXAS2BMf2lv57POdZTEkCHNzW0/Zf6yIEvcynoEXnUWdtjCcx7bC0AD9+uzwmAkZ19Nk/a7C97WcJgX2A+kwr4LO2J8d43cnK2mUOXiWN4USMLXcOH9SlzHePhG/rQ0k85B9PwsBYBERABERABERABEbgiAo+VVBAkdoBJENyJCPMJTuccgWeC7aWAmvkkFdShBTbmIhcZrJ8FeVmfNd2f9Pv65wTAyETfpdJ7XMIgwf/S2k4qWNv4TPqJBXz7bKDvc2u8kzRkPv3I2Id/zgha9Gv8z8E0sq1FQAREQAREQAREQASuiMBjJhW9DQLMLgSVCSxn8NmB8FJA3QE37SQn8KedQH0Gx5E/A2noo0tojq0fGgBnX9QpCcqX9Cbwbh2hSTCf9amhZT6fDthDk3pigYzgF5quozdj6DsTFvo5j6V9sA6Z2UufV+Q8FNOstxYBERABERABERABEbgyAo+VVHSwmUA0QW5qAkvmmpbt91jWNiwEvQmUWRt+qRMUZy3jCXThMwNpxsInwW7L29d+SADcf+1f480eso/QZH/U6LmmK3vp/cJnjXZiAR1js7Rs2hRkzLNr2fvwjz5gEd6RCaZ+xEAb0Aa0AW1AG9AGtIHt2MDuGkkFwWIC0QSOXc+5GazOeYLkJBW0O4BuvmknuKWmzEA6dNQExeHd42ttjP2UguyloH2Jx9x30+zbdwf2rGE/0C+VicVMKiZ26cNrnhNjUzZjWdP4J6mAx9QNTL///d/2IwbagDagDWgD2oA2oA1sxAaullQQOCaQnMEtcx1o0yc4TelAnyCUYDuBPzxnUJp1XcNjKahtGtozyJ7zs39KUoH8NV3ZV/aEDPbVGLTcQ3tmHfxSkLmGPfvtOdp9FkkIwov5JDvImDpO2VnH+Br+8Gt9TSpMqEwqtQFtQBvQBrQBbWBbNnC1pILgksCSADKfBJnMZYya4LqDVQLOzBMg8+kAnCA481mfYDjjHTg3P+har7WgP8HxrE9JKlpu9KJOQN1jvX9k9h4P6dj7gWcnCVP/1gksZlIxZUcPxlk79aTP+D784dHnEdroZlKxLSei0/e8tAFtQBvQBrQBbeBBSUWCv8eqE+g/Fv9L8j0lqbik3HvmZVKhY/Jx0ga0AW1AG9AGtIFt2YBJxZnRuUnFmQAuLDep2JYT0el7XtqANqANaAPagDbwWVLxxhs7On7EQBvQBrQBbUAb0Aa0AW1AG9AGTrWB/w+eT7oQcgF6TwAAAABJRU5ErkJggg==;" vertex="1" parent="1">
          <mxGeometry x="50" y="50" width="336.7" height="67" as="geometry" />
        </mxCell>
        <mxCell id="-FiYHlb7NXyIGKOcGMWs-2" value="Client" style="shape=umlLifeline;perimeter=lifelinePerimeter;whiteSpace=wrap;html=1;container=0;dropTarget=0;collapsible=0;recursiveResize=0;outlineConnect=0;portConstraint=eastwest;newEdgeStyle={&quot;edgeStyle&quot;:&quot;elbowEdgeStyle&quot;,&quot;elbow&quot;:&quot;vertical&quot;,&quot;curved&quot;:0,&quot;rounded&quot;:0};" vertex="1" parent="1">
          <mxGeometry x="450" y="130" width="100" height="290" as="geometry" />
        </mxCell>
        <mxCell id="-FiYHlb7NXyIGKOcGMWs-3" value="" style="html=1;points=[];perimeter=orthogonalPerimeter;outlineConnect=0;targetShapes=umlLifeline;portConstraint=eastwest;newEdgeStyle={&quot;edgeStyle&quot;:&quot;elbowEdgeStyle&quot;,&quot;elbow&quot;:&quot;vertical&quot;,&quot;curved&quot;:0,&quot;rounded&quot;:0};" vertex="1" parent="-FiYHlb7NXyIGKOcGMWs-2">
          <mxGeometry x="45" y="70" width="10" height="220" as="geometry" />
        </mxCell>
        <mxCell id="-FiYHlb7NXyIGKOcGMWs-4" value="Server" style="shape=umlLifeline;perimeter=lifelinePerimeter;whiteSpace=wrap;html=1;container=0;dropTarget=0;collapsible=0;recursiveResize=0;outlineConnect=0;portConstraint=eastwest;newEdgeStyle={&quot;edgeStyle&quot;:&quot;elbowEdgeStyle&quot;,&quot;elbow&quot;:&quot;vertical&quot;,&quot;curved&quot;:0,&quot;rounded&quot;:0};" vertex="1" parent="1">
          <mxGeometry x="630" y="130" width="100" height="300" as="geometry" />
        </mxCell>
        <mxCell id="-FiYHlb7NXyIGKOcGMWs-5" value="" style="html=1;points=[];perimeter=orthogonalPerimeter;outlineConnect=0;targetShapes=umlLifeline;portConstraint=eastwest;newEdgeStyle={&quot;edgeStyle&quot;:&quot;elbowEdgeStyle&quot;,&quot;elbow&quot;:&quot;vertical&quot;,&quot;curved&quot;:0,&quot;rounded&quot;:0};" vertex="1" parent="-FiYHlb7NXyIGKOcGMWs-4">
          <mxGeometry x="45" y="80" width="10" height="220" as="geometry" />
        </mxCell>
        <mxCell id="oHocSyPtUOJaEbkN8pJ2-9" value="HTTP GET&lt;div&gt;&lt;span style=&quot;color: rgb(25, 28, 32); font-family: &amp;quot;Segoe UI&amp;quot;, tahoma, sans-serif; font-size: 12px; text-align: start; text-wrap: wrap;&quot;&gt;https://studies.cs.helsinki.fi/exampleapp/spa&lt;/span&gt;&lt;br&gt;&lt;/div&gt;" style="html=1;verticalAlign=bottom;endArrow=block;edgeStyle=elbowEdgeStyle;elbow=vertical;curved=0;rounded=0;" edge="1" parent="1">
          <mxGeometry relative="1" as="geometry">
            <mxPoint x="500" y="210" as="sourcePoint" />
            <Array as="points">
              <mxPoint x="585" y="210" />
            </Array>
            <mxPoint x="670" y="210" as="targetPoint" />
          </mxGeometry>
        </mxCell>
        <mxCell id="oHocSyPtUOJaEbkN8pJ2-10" value="spa.html" style="html=1;verticalAlign=bottom;endArrow=block;edgeStyle=elbowEdgeStyle;elbow=vertical;curved=0;rounded=0;" edge="1" parent="1">
          <mxGeometry relative="1" as="geometry">
            <mxPoint x="670" y="230" as="sourcePoint" />
            <Array as="points">
              <mxPoint x="595" y="230" />
            </Array>
            <mxPoint x="505" y="230" as="targetPoint" />
          </mxGeometry>
        </mxCell>
        <mxCell id="oHocSyPtUOJaEbkN8pJ2-11" value="HTTP GET&lt;div&gt;&lt;span style=&quot;color: rgb(25, 28, 32); font-family: &amp;quot;Segoe UI&amp;quot;, tahoma, sans-serif; font-size: 12px; text-align: start; text-wrap: wrap;&quot;&gt;https://studies.cs.helsinki.fi/exampleapp/main.css&lt;/span&gt;&lt;br&gt;&lt;/div&gt;" style="html=1;verticalAlign=bottom;endArrow=block;edgeStyle=elbowEdgeStyle;elbow=vertical;curved=0;rounded=0;" edge="1" parent="1">
          <mxGeometry x="-0.002" relative="1" as="geometry">
            <mxPoint x="500" y="270" as="sourcePoint" />
            <Array as="points">
              <mxPoint x="585" y="270" />
            </Array>
            <mxPoint x="670" y="270" as="targetPoint" />
            <mxPoint as="offset" />
          </mxGeometry>
        </mxCell>
        <mxCell id="oHocSyPtUOJaEbkN8pJ2-12" value="main.css" style="html=1;verticalAlign=bottom;endArrow=block;edgeStyle=elbowEdgeStyle;elbow=vertical;curved=0;rounded=0;" edge="1" parent="1">
          <mxGeometry relative="1" as="geometry">
            <mxPoint x="670" y="290" as="sourcePoint" />
            <Array as="points">
              <mxPoint x="595" y="290" />
            </Array>
            <mxPoint x="505" y="290" as="targetPoint" />
          </mxGeometry>
        </mxCell>
        <mxCell id="oHocSyPtUOJaEbkN8pJ2-13" value="HTTP GET&lt;div&gt;&lt;span style=&quot;color: rgb(25, 28, 32); font-family: &amp;quot;Segoe UI&amp;quot;, tahoma, sans-serif; font-size: 12px; text-align: start; text-wrap: wrap;&quot;&gt;https://studies.cs.helsinki.fi/exampleapp/spa.js&lt;/span&gt;&lt;br&gt;&lt;/div&gt;" style="html=1;verticalAlign=bottom;endArrow=block;edgeStyle=elbowEdgeStyle;elbow=vertical;curved=0;rounded=0;" edge="1" parent="1">
          <mxGeometry relative="1" as="geometry">
            <mxPoint x="500" y="330" as="sourcePoint" />
            <Array as="points">
              <mxPoint x="585" y="330" />
            </Array>
            <mxPoint x="670" y="330" as="targetPoint" />
          </mxGeometry>
        </mxCell>
        <mxCell id="oHocSyPtUOJaEbkN8pJ2-14" value="spa.js" style="html=1;verticalAlign=bottom;endArrow=block;edgeStyle=elbowEdgeStyle;elbow=horizontal;curved=0;rounded=0;" edge="1" parent="1">
          <mxGeometry relative="1" as="geometry">
            <mxPoint x="670" y="350" as="sourcePoint" />
            <Array as="points">
              <mxPoint x="595" y="350" />
            </Array>
            <mxPoint x="505" y="350" as="targetPoint" />
          </mxGeometry>
        </mxCell>
        <mxCell id="oHocSyPtUOJaEbkN8pJ2-15" value="HTTP GET&lt;div&gt;&lt;span style=&quot;color: rgb(25, 28, 32); font-family: &amp;quot;Segoe UI&amp;quot;, tahoma, sans-serif; font-size: 12px; text-align: start; text-wrap: wrap;&quot;&gt;https://studies.cs.helsinki.fi/exampleapp/data.json&lt;/span&gt;&lt;/div&gt;" style="html=1;verticalAlign=bottom;endArrow=block;edgeStyle=elbowEdgeStyle;elbow=vertical;curved=0;rounded=0;" edge="1" parent="1">
          <mxGeometry x="-0.002" relative="1" as="geometry">
            <mxPoint x="500" y="390" as="sourcePoint" />
            <Array as="points">
              <mxPoint x="585" y="390" />
            </Array>
            <mxPoint x="670" y="390" as="targetPoint" />
            <mxPoint as="offset" />
          </mxGeometry>
        </mxCell>
        <mxCell id="oHocSyPtUOJaEbkN8pJ2-16" value="&lt;span style=&quot;font-size: 12px; text-wrap: wrap; background-color: rgb(251, 251, 251);&quot;&gt;[{content:&quot;&quot;,date&quot;&quot;}]&lt;/span&gt;" style="html=1;verticalAlign=bottom;endArrow=block;edgeStyle=elbowEdgeStyle;elbow=vertical;curved=0;rounded=0;" edge="1" parent="1">
          <mxGeometry relative="1" as="geometry">
            <mxPoint x="670" y="410" as="sourcePoint" />
            <Array as="points">
              <mxPoint x="595" y="410" />
            </Array>
            <mxPoint x="505" y="410" as="targetPoint" />
          </mxGeometry>
        </mxCell>
        <mxCell id="oHocSyPtUOJaEbkN8pJ2-17" value="" style="shape=image;verticalLabelPosition=bottom;labelBackgroundColor=default;verticalAlign=top;aspect=fixed;imageAspect=0;image=data:image/png,iVBORw0KGgoAAAANSUhEUgAAAKsAAAChCAYAAAC4c09/AAAOzUlEQVR4Ae2db4slRxXG52sIvvAj+B1EVPBlECRKRBEFQdE3ibDEP6AEBaMvzJqVvJAQ9UXchAVDMEQM2SWKKCGumigYd1dNNJOQZINgRFp+A8/dM2e66nb39O2pe+/T0FvdVadOnXrOr+vWvXN35qA7OOh8WoNtYOCAIG/efHt1/vrqy92DP/392vPxyy+u+sT+vr6lpbUYp8UfbnRFpuD0GKwAeNtdl7pP3/PE2hM7wHZCxiXEepX1GgUrKyqgDhEUO+yH2NqmnCBrc0ubybCeO3+5uLoisGG9JbKBm0eLybCyJeg79dI/BNbf/PZq9453vmt1KqnUxbYP3/6xYyv0nV+8e9WHa/VzOQ8Ureo4GdYXb7zRlU4mOwRWoLx27eS+lvoI6Le/c77jxC/2D/3w4RWg2P3siadW960K7bhO/yBNhhUYeROVT+rHwMoKmhOplVX1ABrhVT0lEEd4Y5uvTw9ISxpOhrW2qjLBISsrEAJmhpP7uOLKTsIBp/pRGtbdglJ5zmUJ1vvOP3D0s4BjH13FTwP69qsArAGGwCpbwShAM6ysvlpZ45aA/l5Z9wNUcl2C9ZXDN+uw9n0aoDdXOB4DK/bAGGHVHpU23kRp9cxwemU1rDBy4ocCcWXFoHaug1WrqV7OBSM+BaDaIri5X4a3FpPb6jlrXZ/SykrcJ2Bl5QTCIedpfoIFpFplWxfQ8S33AIyClT0pe1VW2HUndlMTaViXA2Bqjs6i3yhYlwrQsBrWPtaahLUvUNcZYMO65o2iH5J2HhLDalgnv7dY+kE2rIZ1t2DtfFiBBhQYtLI2EKdDsALFH7eyHVn9UMA6WYEWFPDK2kIWHMMgBQzrIJls1IICo2H957P/7X73g3+vPf/y+H9amJ9j2CEFgLV0ntizAuCP3vNad+n219ee2AH2Ese5u7/c3fe9C0sM5THOUAFALR76vQEyYEUF1CEHdtj7sAJzKTArrNoiEJxhnStF9iMFZoMVUHnpf/ILbx75HgIrL99PP3159f+peCk/PHz12L0CpcReX8jmWof8cP+Ti48cbQnwJds/Pv+CTE+UH73j4ys7+sqH+sZxVEdZ83liEFfMosAssGZQiWworCReB9fAoyNCAcSCiXbsAJ0jw0o/tdEnAiff8hF90gcIYwyyj2OozuWyCswCa1xRFf5QWAUV/TIQ+V6+KVk5BVq0oy6+2dJKHftyXYKS+vgAqR9jaDzVuVxWgVPB+stvvHX0Juqtl/53IupNwAosgKRT8EyBlYckQh0nQJvGiPXaMmjc2ObrzSswGVZ9jKU9ag51blgBK8LFtaCZAisrKP1qB9D2bQniFqTW323zKjAZVj6WAtTSZ6mbgFVwIgErn+6HwqotASVHhk7+JDF2fbDyoMTti+xdblaBybCuC2tuWAWaXp6nrKzyIViZg/xRAmDcAlDHCswBtLJdtyKv08bt0xQYBSurKBAOOZf8Cda0qbvXtikwClbeSLFX9XcDti3NuxHvKFh3Y8qexbYqYFi3NXN7GLdh3cOkb+uUDeu2Zm4P4zase5j0bZ3yIFiX/mUGHq+d34LSUi4Mq3/JxVb9koviq4L+p0BLT5dj2d9V1yurV1avrF4B93cF3FTuR6+srz/3TPfqo99de7721MWteWI3Ja79zvvAjoIVAF/+7Lu7f33pA2tP7ADbCZs3Yfus5yhYWVEBdYhg2GE/xHYTNvw5ovhXXjYxhn0u+yDuLKwGaVmQltD7VLDyMv/G9WtHqydl3Kee9cq6hHgeY9kHYjKsgMq+VIBSRkDjdSmp8c+08y182XEd2/SnMNU+5E+4YxP/Wra+5S/f8uVyWeBOo/ckWFlFAfWVez+xAowguAdS2ofACjh9f5yN+ggoe0/tP7GPf40QuwilxIiwxmu1u9weSJWrSbDSWZ8MxJU1fgIwFNZN/Qn3CCjXEXBN3uV2ATsZVgGrhLOaxo+qhsAa/w5rhDavuLLTWICHjc4+ECOs9GMFxr7PVn5dtg3vqWCtJXcIrOovGCmpy7ACsrYFcUuALfd9AGZYNVZp26B2l+0C2wSsAAJEEVbtUWmLL+MZzrhaRhBLsNK/b49rSNuFVLkZBSsv86yYQ864f9VgsdRq2vdSLgDVFsHN/SK8JViply8gjnH4un1IlaNRsOqz1E1/NwCwtMoq0LElUMZ98Nj+tm8P4lGwLpXA08Kq1XepeD3OMmDvHKx6ufe+dBmAlnxQm4R1SQE81vZAbVj9PwW25g2nYTWsuwXrX68fdj6twVkzMGhlPesgPb4fFBgwrH7V2JpXTcNqWA2rX7r90j03A15ZvbLu9sp647GHur9fuLP724+/dWyi3FN//cqTx+rnfsLsbz9X7dEr67WrV4/+S0sJ1n98847upXPvnwTss8/9ubvtQx/ZGOg//8Wvjr59xTgGfvuAHw2rVk8lG3jzaso9p2yGlmNgBWpDt33ADWWhz240rBlEXvL57mrcEmSbvoH76gzrfsHXx0CtbjCsrKC8xANm3pPSxqmB2NNih322lY3Kz33+rtUXo+///oPHtgHc61tUlOoT67Rt0Eu82riXvUrqZE9d9E8csov1+Iu+sHv44mNHfjSW+rnc7MM2GFatoICYk0JbhJV2Vto+sGPfr91zb8epOkCIMMW2bJu3AdFWMMmvyghrvFY7Ze6LHVBqy6GHK94Dd/Th681AOwpWvXmKwAriuA2IK2uGOCYyQkB9bRsARHH1y7BGv/jBd6zjOgIqCLMNY9AW63kQGJ862nXNfY4r9vP1vNAOhlXC5/2oYI0A5zdh6hvLPjBznYDSy+06WGWnMo7HdYSVe0DLtn0PAbBq9TSs8wKYc1S7PzWsgMlHVXEQgI4rbWyL14AS7yNMgBS3BHkFi1BpJaXEn+6jb66j/9gWx/LKenYwxpz0XY+GVSspW4IMpFZU9qpxpe0bmDrAiHtN7gVohpM2TvnCDvi4z3DqDVJsw6YEK21xXF3Tnz7xoSIGYlMcOU7Vu5wf+tGwkgSA7Vs9BSvtQ5Oll2HKuMLRH2jUDtQRVgEpsGiPtlzjQyBnWBlL9pQCnz7yrXb6aj6GdX4Ipe26chKs65y22g6QEfhW43Rc/Q/EXsEa3ygZiH4gWtZlL2DVy7q2DC0nxLGVH6K9gNUAlAHYJm0Mq7/Punrz2Dq4htWw7hasxT/u6gYrsKACg1bWBePxUFagqIBhLUrjhtYUMKytZcTxFBUwrEVp3NCaAoa1tYw4nqIChrUojRtaU8CwtpYRx1NUwLAWpXFDawoY1tYy4niKChjWojRuaE0Bw9paRhxPUQHDWpTGDa0pYFhby4jjKSpgWIvSuKE1BQxraxlxPEUFDGtRGje0poBhbS0jjqeogGEtSuOG1hQwrK1lxPEUFTCsRWnc0JoChrW1jDieogKGtSiNG1pTwLC2lhHHU1TAsBalcUNrChjW1jLieIoKGNaiNG5oTQHD2lpGHE9RAcNalMYNrSlgWFvLiOMpKmBYi9K4oTUFDGtrGXE8RQUMa1EaN7SmgGFtLSOOp6iAYS1K44bWFDCsrWXE8RQVMKxFadzQmgKGtbWMOJ6iAoa1KI0bWlPAsLaWEcdTVMCwFqVxQ2sKGNbWMuJ4igoY1qI0bmhNgUGwYuTTGrTAQPEBOjjoDrqDg2K7G6zAkgoMWlmXDMhjWYGSAoa1pIzrm1PAsDaXEgdUUsCwlpRxfXMKGNbmUuKASgoY1pIyp6yvCntK3/vavaqpP7qajkVV2Olu97pnVVPDOp2NqrDT3e51z6qmhnU6G1Vhp7vd655VTQ3rdDaqwk53u/M9P/mpz3Tvfd8Hu+df+NOJuVY1nQIrAz3y6KUTA21Dxf0XHuiuXHlmllCrwqYRGBPd8ikdDw9fPdbGfTyUYPrX4o926/I0pxYx1to182Xc0lHVdCysDLZOhFIgLdTPmaCqsGsmKzhlBmSCkJJ7HcSsBKtfhlm29IsrFrmK97KjnFOL6Ld2zZh6QPvsqpqOgRWBEKM2IMJgI6gl1Fe++vXVypGDzW1KlBITJ4Wtkkq9xiEptOlgXOp0Uh/HoV4Jlw2l4pWfWlkVttaxBxTGjke8J+4YV76P/TKsJds+LdCS3KoNv1lHxUHJWORC+sW85n74kl/ZK+4416qmY2AlOBK8DlYGj4Fjz6mDdk06tzGhobDmFYi+GpcxBKPGpWS8CDt94n20XXddFbbSmbg0R5nFOIiHex2CiHv6xuTKRiV+pW3fOLKjzFowTsyNbNQn6i0YlVfdy7amv3KELfFG/auaDoWVoDRIvFZwKnPQ1Gdx8SNfeVJR4L7ExKRyrcQwDtdKchZd8eUEYa9YZDO0rApbcZJjkCmJI+4MMu30oS3rpb4q5UO2EQTZqMxxoIP0k00sYz7QOsfJvfLB+LqOPhhTesd8yaaq6RBY85MeB9QgKvMkNEGJp5KAI5jqH+vUV22UiKkE5MTgW2KrbxYtJwif8iMR43i166qwlY7EFA/FSsmR74lPc6Y930dftEVIag9j1oL5U5cP5Uwl7TnP1MWxNYc+/aUzc4o+8YGmpZPvXa/98jVByGks+ybWNwn6lI7clvvn9ggr1zExfWNINIGQExT71CCIdrqeAisJyrr11SlO4iauePTZqz0CQx22eoBlo1Jj6D7DmrXTPfY5T9TlsalTH0oOxhSs+MixoenNm2/3noNgPRol/BMHDNVHl32TICAFmO1pw58O7mNyuEZwDnwDr+7xmScrP7HER59Y0YbrnLzcnu+nwNo3huYV/TNP6jniNfc1PTMwNducxxKsiot2LR59ec5jq19N/zy3M4eVoAmYwHQKHtpURwmI2OpQImlDeE7Big2C5/56mlUfH5ToD7sYF77HHFNgjYmLYzEnxUsZ55jnw5xLR5wPfmq2WYsMK2NEfXVNfQ3WHG/UHx/xXraaz+ywyvEmSgG0Cd9z+5wC69wx7Jo/w7qhjBrW+YU1rPNreuTRsM4v7FbBOv/0N+fRsM6vrWGdX1N73JAChnVDwtrt/AoY1vk1tccNKWBYNySs3c6vwDBY+X1XPq1B4wz8H7OzI3EZdodUAAAAAElFTkSuQmCC;" vertex="1" parent="1">
          <mxGeometry x="730" y="237.25" width="90.81" height="85.5" as="geometry" />
        </mxCell>
      </root>
    </mxGraphModel>
  </diagram>
  <diagram id="o-0H79sR4QU62fh1rTwU" name="SPAsendform">
    <mxGraphModel dx="1195" dy="628" grid="1" gridSize="10" guides="1" tooltips="1" connect="1" arrows="1" fold="1" page="1" pageScale="1" pageWidth="827" pageHeight="1169" math="0" shadow="0">
      <root>
        <mxCell id="0" />
        <mxCell id="1" parent="0" />
        <mxCell id="UQ8uSboledrjgLjYZK1I-1" value="Client" style="shape=umlLifeline;perimeter=lifelinePerimeter;whiteSpace=wrap;html=1;container=0;dropTarget=0;collapsible=0;recursiveResize=0;outlineConnect=0;portConstraint=eastwest;newEdgeStyle={&quot;edgeStyle&quot;:&quot;elbowEdgeStyle&quot;,&quot;elbow&quot;:&quot;vertical&quot;,&quot;curved&quot;:0,&quot;rounded&quot;:0};" vertex="1" parent="1">
          <mxGeometry x="274" y="130" width="100" height="460" as="geometry" />
        </mxCell>
        <mxCell id="UQ8uSboledrjgLjYZK1I-2" value="" style="html=1;points=[];perimeter=orthogonalPerimeter;outlineConnect=0;targetShapes=umlLifeline;portConstraint=eastwest;newEdgeStyle={&quot;edgeStyle&quot;:&quot;elbowEdgeStyle&quot;,&quot;elbow&quot;:&quot;vertical&quot;,&quot;curved&quot;:0,&quot;rounded&quot;:0};" vertex="1" parent="UQ8uSboledrjgLjYZK1I-1">
          <mxGeometry x="45" y="70" width="10" height="390" as="geometry" />
        </mxCell>
        <mxCell id="UQ8uSboledrjgLjYZK1I-5" value="Server" style="shape=umlLifeline;perimeter=lifelinePerimeter;whiteSpace=wrap;html=1;container=0;dropTarget=0;collapsible=0;recursiveResize=0;outlineConnect=0;portConstraint=eastwest;newEdgeStyle={&quot;edgeStyle&quot;:&quot;elbowEdgeStyle&quot;,&quot;elbow&quot;:&quot;vertical&quot;,&quot;curved&quot;:0,&quot;rounded&quot;:0};" vertex="1" parent="1">
          <mxGeometry x="454" y="130" width="100" height="450" as="geometry" />
        </mxCell>
        <mxCell id="UQ8uSboledrjgLjYZK1I-6" value="" style="html=1;points=[];perimeter=orthogonalPerimeter;outlineConnect=0;targetShapes=umlLifeline;portConstraint=eastwest;newEdgeStyle={&quot;edgeStyle&quot;:&quot;elbowEdgeStyle&quot;,&quot;elbow&quot;:&quot;vertical&quot;,&quot;curved&quot;:0,&quot;rounded&quot;:0};" vertex="1" parent="UQ8uSboledrjgLjYZK1I-5">
          <mxGeometry x="45" y="80" width="10" height="370" as="geometry" />
        </mxCell>
        <mxCell id="UQ8uSboledrjgLjYZK1I-7" value="HTTP GET&lt;div&gt;&lt;span style=&quot;color: rgb(25, 28, 32); font-family: &amp;quot;Segoe UI&amp;quot;, tahoma, sans-serif; font-size: 12px; text-align: start; text-wrap: wrap;&quot;&gt;https://studies.cs.helsinki.fi/exampleapp/spa.js&lt;/span&gt;&lt;br&gt;&lt;/div&gt;" style="html=1;verticalAlign=bottom;endArrow=block;edgeStyle=elbowEdgeStyle;elbow=vertical;curved=0;rounded=0;" edge="1" parent="1" source="UQ8uSboledrjgLjYZK1I-2" target="UQ8uSboledrjgLjYZK1I-6">
          <mxGeometry relative="1" as="geometry">
            <mxPoint x="429" y="220" as="sourcePoint" />
            <Array as="points">
              <mxPoint x="414" y="210" />
            </Array>
          </mxGeometry>
        </mxCell>
        <mxCell id="UQ8uSboledrjgLjYZK1I-9" value="spa.js" style="html=1;verticalAlign=bottom;endArrow=block;edgeStyle=elbowEdgeStyle;elbow=vertical;curved=0;rounded=0;" edge="1" parent="1">
          <mxGeometry relative="1" as="geometry">
            <mxPoint x="499" y="230" as="sourcePoint" />
            <Array as="points">
              <mxPoint x="424" y="230" />
            </Array>
            <mxPoint x="334" y="230" as="targetPoint" />
          </mxGeometry>
        </mxCell>
        <mxCell id="UQ8uSboledrjgLjYZK1I-11" value="" style="shape=image;verticalLabelPosition=bottom;labelBackgroundColor=default;verticalAlign=top;aspect=fixed;imageAspect=0;image=data:image/png,iVBORw0KGgoAAAANSUhEUgAAAjYAAABECAYAAACSw3/WAAATrklEQVR4Ae2dy41k2XVFy40GNKABcoAmyAiCgCAbCBAgBI0IcKYRIciHloaccNakDSIBmdC0IYVV7NXafeq+T0RGREZm7Qs83s/573fPeSeri5WfXj59eulTDHoHegd6B3oHegd6Bz7CHfj0OYiXjiJQBIpAESgCRaAIvHMEPn16aWPzzt9h3S8CRaAIFIEiUAR+QKCNTa9CESgCRaAIFIEi8GEQaGPzYV5lAykCRaAIFIEiUATa2PQOFIEiUASKQBEoAh8GgTY2H+ZVNpAiUASKQBEoAkWgjU3vQBEoAkWgCBSBIvBhEGhj82FeZQMpAk+LwDf/8LOX77//29P69wjHfvHLf/4Rg9/867+9/P4//vMRZjdt4MN33/1pk75F+J+//PWFWPbGt//134c8ym/5gZ2te8NdgsbDYL4mFn14y3krxrf06Z62L7kbV/sxG5u8MF4cHHnGQWHYu8yrCzOTkgQ1TmaSLAd0ZDqKQBG4HoFVLqqNmjM/lEe5rew1M/VsNhWzLky9Kx8nz9GeGNHzLGOroTjy7wirI/lJv8aPszJn+aZPj9zv5cYj/cDWKjce7cNN7G01Nqkc4PcaiOR95Pqo+K0uzEzK2biQCFn0Jv2R8dVWEfgoCKxy0dhWTcNRbit7zbxqMI7srXy81PbK7qU6bsl/7Ud/1tDX+nSNH2fq8i3e2WtjOyO/lxtn5G/J82x39OrYzjQ2M+m5iLwMnvmnOZMGUAwuGfw55oVGl3qhOUgkz9WRdjhD/xyr85mUM0Fo4M40Nsg9Y7M3Mei+CDwDAuRi5rH5nWfwkHur3PYnSejw8WT+TT3EDN36IwbwadszZvQ5Zh2auvHh0nqGDL5Yp/Ah/Z829WXa9jxnfREXZBhbOpXVB/xSVhrzlm3OE9eVHc6IWT3wE692oDv0g708zNOO/Opg9l2yFlv5sDHtKOu59pTJ/YyfvQM98rqee3mNL3FOX6fv8E8/0XXkT9Lz/XA+8ffd6KP6xZO9PjAb+1Es4Jpyqd81PGl/K175r5rPNDY46ovAoXQqg540HBZgky+dFCTOuBTysofm5Uv7KY895LbGSs6XrAw2fWmcpU/sJz3l9mzL17kIFIG/F8nMb3LT/KE2JA28Zm5bMFMm8zvX4g3v1Et+Z77Di25rzawP6po+XlrP9B85RtaZ6eeZ2pd+EbsxoZ/1VhzK6UPihl1ru/HpL/5DZ6TuXKdu+NUFD3bmXn6xkE+bW7qRm3U541AvZw5sa58zaOhncO77R6/2k3++I+QTD/byG4e24YOu3pUuaehQz8pPda505F1PPfqTeuFFRw78FBPfSdJZH8WSNtKH1JN3I9fJ8+r1VmPDi/BJI5zlwDEvRb48eHhZgs16yiZ4CSqyAMwZAzkB/3zww/8A3Hw5SZ/+QEOPPrFnDZ/PtAN9nqWNrotAEThGYOYiuWvdyDqhppnb8FoPVjzoP8rTlR10kePQGOhA1xxTlv3km/Vs1qa0M3nTd9bGehQXuIDVHFtxJF/6wDn+ahe9vh9ljBfdxMLYspN+Jb+6sq7qx4x1JbeS5wxZ3yF7Yklc9F35GR90+FNGXub5vqe9vT3xTSzzLqQs6xzTT2krf8DLAX3vHU18kh8dK5+3zjMW7TPnfcrzvBusvXPJ8+r1VmOjYpzGQYZgAn4+ODeBkV9wlVUvsxeaNXypk7UBK8tZvjwuob6lXtcrwGeywKPO1cVOuno7F4EicBkC5C557CDXqBuMVe2YuZ3FcEuH9cN8ls8ZHdr0DF7rjGfUFHV5Nn20JklnnvUs44We9Wjyas9Zn7TD+SquiVP6s4oj6ekD5/BrF736kjN8+EEsjpWdfF+TH7msq9jEBjZzrOSkpzxnyCfe6BSvxDBjybtgDOp3Tn7Wjmlvbz9xRkf6r+wZP+HNZ8sfdUFf4ZjvGp5VbuAjthKno1iwlf7BP0feDWjetRXvlD29P2psdFSFOL01Jm0COukJEmv494Yvi5mxl9TQ8/Kod77QyYOP6cekq6dzESgC5xEgr8xbpMhdCybn5FmOmduzGMKb9UPZWSM8Z8ZG+sDZtJP81Ar9Wvl4aT1LDNL3a2qffoKLOHo254wjaekD51kb9/TOuq7OtJPva8WfdVU/OMtYVnLaSnnOEtsz70o9zsjjh/bnPXKf/Jw50j5nuTc+eSc9eVmvhva16V7e1MFZYpdr+fP9cAae6pbHGRrvlrEXS75/ePM+qYt52pZGLvLcZBw1NhhJg/nypwPQ0jH2gOJIgACblyFgBAv/0cgXgC0v4koOWtqHJ31wjy+O+XLgT7p8U4/nnYtAEfgSgVl4M3dnkUY66ezJ5dRh/fjS0v8X6cxl+Ff1BZ1bA7+sHysfswboT9YzZVf+40vyrnybfqEPP/RlruHHD54c8OkLuPIw0gf2+KMfxpN6XENTn2fMaYf3pZ0VP/L6mX7kNyHlMmZspTz7vBvY5smBjXkmPe+aerQnD7J5V+STvrfHduKFLnFGPmW3/Dzjj3ijM/WAIza8b9oUf+b0x5ic0assfFux5P3RB/VCU47401ftwLM6l37RfKaxQWECg4PsfQDd4Zn8BgNdgKERMI+AQSeoKe8L9TwvZ+pLH/RlpTPloeOfL1g5/BLgGSt+KJe+K9u5CBSBLxEgbzJHya/MRXIOHvNu5rbFMPNRfVs1Iosp+meeozN9wGtkrDXMKbPnIzSerAnyowc7+K7Pk/eS2me86kqssMX5VhzYEePpAzKcOaYO5bBHLHt4+b7gSX51Iy+26YexYCvlZswpj07jdq2dnJGBzwedvhf52ENn4IO8ruXjXPw529sTn3rhE7stXSs/z/iTNnxXyImjMeDDvKe+C31KH/JOHMWScthTFnvGjZ/6lz7h183GbGxupnh08LfUW11FoAh8XQhkMbw0cj5AFtWU5Sw/Tknr+n0iwAfUj+azRMDHPRuJe/g1G6u0YWOTZ663ckP6nG8RC7nMc9fRxuau8FZ5ESgCN0DgNY0NH7pZSPnQ+NPkDdyriidBgGZ1/unDW7t2i2bgKIZrG5tVbuzZukUsD3lHbWz2XmNpRaAIPAMCr2lsnsH/+vD1InCLZuAIvWsbmyO9k/6aWJDFz4f8ido9G5sJSvdFoAgUgSJQBIpAEbgrAm1s7gpvlReBIlAEikARKAKPRKCNzSPRrq0iUASKQBEoAkXgrgi0sbkrvFVeBIpAESgCRaAIPBKBNjaPRLu2ikARKAJFoAgUgbsi0MbmrvBWeREoAkWgCBSBIvBIBNrYPBLt2ioCRaAIFIEiUATuikAbm7vCW+VFoAgUgSJQBIrAIxFoY/NItGurCBSBIlAEikARuCsCbWyug/c1/wLjymJ/b80KlZ4VgSJQBIpAEbgQgdnY8Eux+GeP85m/Z+VCE3dj559m3vvlYjQLPFuDGM/GNhuPNjZbqPa8CGwjQB5lbcl/Xn3SzN3kz/Wz/U6g7ahLKQJF4KEIbDU26QTFZK+BSN5Hrs80Nvi+KoA0NBTONjaPfGO19bUiQA6ucpEfEBzk4ypXpVODshHyvHMRKAJF4CcInGlsZgPhL7OiUM3GYNL8qcs/CUrj80890IVOnix4FkVp6Eg7nKN/Dmzje+qSBxnsTf+1wWyRzTPj0Xf20tXNPH2edjJWfESPMbB+xkYy4+u6CFyCAHfafNqSO+JpY7OFXM+LQBH4CQJnGhs+3H50+QjzOLIBmDQ+/hQrxlFjQ9GSF35kbQbSvnaZsbfXAFgomfUfOQsk8trgHD712Zhob+rAv/SLvbgYa9qEV93M6HPY5MiffsjTuQi8VwTIJfLjaHDv95of8/ZIT+lFoAh85QhsNTZ8iH0SIs5y8FG2OYDmxxke1n7AWU9Zip0fe9ZZ1LIYIpc07Z9tbPDPpgNZfMKfbGzSnvrTJ2WSpu+csbZ4JybyZ1HOuKVP/Z53LgLvHYG8+8RiLSCvsyaQA54xZ84iN/W8d1zqfxEoAndCYKux0RzFhoLCmAXJIsSHHBq8OfJM2aTnB34WNXTbKCjLWTY4ZxsbbCKLHmJRbzY2nBtPztrDP+Qd6TtnU6+YyZ/0qQue1ZmynYvAe0Zg9UMD8ZjXxkYOmG+e5UwOzWYn6V0XgSJQBD4jcNTYUGj40Dty7ZnzpCFLsXJMejYHrPeKGjoshDYYlzQ2/ilK2snGBtvQtsZsPNJ3ZLJx0VbqyqKcPsgDNsblWeci8FEQWN1v89kY29iIROciUARehcBRY4NyGgB/UuKjzId7NaDJB519Njas+cAzbJjcoxP+o5ENRjYmK7kslBbRtDHlKb5bzVXqwhZ69J09a3VrKxuV1E2s6HOwz8IPLXXL17kIvFcE5h0nDvPEmGaOee5MTmR98bxzESgCReAnCJxpbBDgw+vHlgLE3md+wD2HPz/gNjPQaQJmc0DRUpYZeYuf5xRIR+pLH6TPQol+Y4BnNjbTVvpuYfZs+o5eGxt0p2/Gol/M8GZM6DUG1ulnynVdBN4rAjMnZl5w780J54yVnGhjk4h0XQSKwBKB2dgsma485ENtI3CliooVgSJQBIpAESgCReA8Am1szmNVziJQBIpAESgCReDJEWhj8+QvqO4VgSJQBIpAESgC5xG4Z2Nz3otyFoEiUASKQBEoAkXgBgi0sbkBiFVRBIpAESgCRaAIPAcCbWye4z3UiyJQBIpAESgCReAGCLSxuQGIVVEEikARKAJFoAg8BwJtbJ7jPdSLIlAEikARKAJF4AYItLG5AYhVUQSKQBEoAkWgCDwHAm1snuM91IsiUASKQBEoAkXgBgi0sbkBiFVRBIpAESgCRaAIPAcCbWye4z3UiyLwNSDwx//988u/fPvrl3/89396+ea3P/88s+e8owgUgSJwEwS+9sZm/mLMm4BaJUWgCHyBwK/+8LvPzQwNzeqB3nEbBLKu8Qt883f25S/7xdr8ZaRnPegvJT2LVPkejsCqseHC+tt189Jf8kstL+G9NOj5W4Lzt2pfqisLwKWy5S8CReAcAkdNjY3OXnOTH2TqEh/sHLMuJM21PMyrYe1jngObZ8dRXYGOPmJaDWraveoaelfxrfzYO0MHcXQUgadDYDY2XNbs7nHYAnJJs3IJ7yWg4MssMPi8VaiOdB8VoCP50otAEdhHgP/MZONyZt76z1LkuY0AczYGc0+dWDUGnCG3VS+sf7PGEOHqbCvyo7piY2NtTT34Rg1e+Z98e+s9++jein9P56SBFXY6isDTITAbGxJtdVlJBBLbRx4LBecm4orXwpMAwE9yONTNvEq8lQ5lc049+iQ9fSPBZwGwccp4kIU3fVVf5yJQBPYR4O/QnGlo5IH/zMgP9KpukcPUDIcf4pST5gwPNWNLn3zMWSuyZiGfNSh9UJ66wwPfHNqftSt1TtpeXctYVjo4Sx+TZ9bhpKXeGUP3ReBNEZiNjc0Dl3YOaBQFB/vky4//ipekyEFy2izkOnlyja20lzTX6QNn6LUJMzZmhsVAH5gzPmS1N/Vqr3MRKAL7CPgXhW1cjmb4jwa5m7k6f0BBHrof5qxHeT7t2Ngob21gn/Vr1gpribVl5U/agk5tmXz6mX6sfLmkrmlH+zN+4tJvaMZsTCknjTPk8L+jCDwdArOx0UEuOBc3L7JJJ8+cTVbOJy/7LAzwZDOTTcTU634WAc+dSUT05Eg/ZoLDlzqRtRBCW+lL3V0XgSJwjMBRI7Oib2klR6kjM88zj5XND/jWWl7nbCjmhz3r16wVyKcPuVZ3ztCpR9jAN4dy048Z7yV1bda9xAK7xIW+Vb0zzukncviIvx1F4OkQ2GpsdJQk8PJmMkknaUgMH/aMycs+CwM8JE02TtiCRx3acLYYuJ/zKtHSrkUj5fJM+8bCPAtKynZdBIrAMQL3+hMb8pMPLiPzWI/8gM+64bl8OWdDwXk2BdhzoIPakiPtrPzZ4rUOZq1KP15b1zIGfJjxExe2scN6PmC88mF1ljF2XQTeDIGjxiaTjTVJ4SB5eRyZ2JMXniwM7E1o5Z2xQdLMsfqpIXmgz0Yk/SDBZ9OUPrC2UKberotAEbgegXv9HZvM5/nxxls/2PND7X5VYzibNcRGIOvXqlZkM5PrFXJZK61bGU/6IT31XFLXJjbGoz5xWtmRZ0WbeuXtXATeHIHZ2HBZSRoHCWYzw3kmdyYn/NCQZ0xezrJhIVHgXxWXvaJAQdGfz4Z++KkKfdMGe/j1SZvG514f4JtFTRvpu2edi0AROEbgVv+vKOpCjqwf1htzm1ye/MqSy9YLz5yzofDMOpG1L+sifPIoM2uj586Tjk9Tf9aiWX8urWuJxYwfu+LGegsbaNZK4mCfeo2tcxF4cwRmY2OB4NL6pJMklBd68s5kTV50mPzIQ+MxUUxsaWlzrila+qYvybNHS1ns47M+oIN9ykubhSXtdV0EisA+Arf4d2wyd8lRc1PL7M1d8nVrzA978qGDujCHdSHPpz82B/Bkrctz5WetxC5njpUfxsacvMikL7OuQUv+GT/69HHW9MQxY0Jm+qzvnYvAmyMwG5s3d6gOFIEi8CEROGpu9v5xvg8JSIMqAkXgPgi0sbkPrtVaBIrAlwjwn6X4Ozf+hWJm9lv/KN+XGnpSBIpAEThAoI3NAUAlF4EiUASKQBEoAu8HgTY27+dd1dMiUASKQBEoAkXgAIE2NgcAlVwEikARKAJFoAi8HwR+bGw+fXp56VMMegd6B3oHegd6B3oH3vkd+D9GcPb0/kXFBwAAAABJRU5ErkJggg==;" vertex="1" parent="1">
          <mxGeometry x="600" y="210" width="249.71" height="30" as="geometry" />
        </mxCell>
        <mxCell id="UQ8uSboledrjgLjYZK1I-12" value="" style="shape=image;verticalLabelPosition=bottom;labelBackgroundColor=default;verticalAlign=top;aspect=fixed;imageAspect=0;image=data:image/png,iVBORw0KGgoAAAANSUhEUgAAAKcAAAB6CAYAAADatkMdAAAMW0lEQVR4Ae2dTcslRxmG378huPAn+B/c6D4IEiWiKzeKbowwJG4EP8Dowq+4GiR+QBwliyDGqCEGFVRCHDQiijMRE+PMEE0UVKTlOnAf7qnTH3VOd5+3u+du6Knqep56qvqpq5+qPu+ZUxfNxUWTMz5YIgMXdOpPN2/ljA8WwcBvXmoaTrgMnIFyEVAqQALm66//J3DKIUmXM3MGzkTLRUVLDw6BM3CuF86bzz3d/Pmbnx08X3ryscXepD+NyS9n2h4ai97ICXCvfPCtzctX3j54ogfIQw3OJf/Qhx9sPvHJRy6t/bnu61622wsnERMwaxyEHvo1utFZT/S6zLEKnFlzLjagHAUn0/aN69d3N0Pq68yayPnDH/+8edOb37I/9VRS5rL73vnuuxzGlK165FXPU8ofv/bkXiZ92Xbd5NcRuavhBEzWlQKS1IH0fNfgA8rzL/x+D5D0KHcgWTtq/Yj+V776tX0d9BxC2XA4PS950nUA6eNUBSdREjD/8pkH9pBghGugRF4LJxHSO0C+jG4A6bC6PtA6rJI5kOTbdKSbdB2gVsHJYOrN3SOnv6HXwAl0gFjCyLVHVOkJIkBTPdI28BxO6gF3l67sJl02pNVwMpACkzzR0j86qoFTMAg+AVnCSXRV5PQpnvo1kVPtkHYtA1wn+WVCehScfYN4DJyCxuHUGhOZT8sljB4NHbwycqqv1G9bo0qedJlgMi5ng1PRErgcMDqha8kc1LKew9oFJ+WyBbQBcLkA9o1NL5xM20TEmtPXn30NtskASVG0TV5TBoRtL1s1daOzTHh74dRnmXP/bX0snIqugWyZkJ06Lr1wnmr02Hpj4NT0nXXltsCEoUXAeSzM0d8eiG1jGjjzt/XFvjAGzsAZONvCdsrujen51HE+iJxNjnhgIR4InAsZiHTj0AOB89AnKVmIBwLnQgYi3Tj0QOA89ElKFuKBQTiv/+FW862nXhw8f/SLmwu5pXRjKx4ATs79byX5jQHcfQ8+0XzgUz8YPNED5BzxwFQe2IGJMf2QlxsmYgJmzYEe+jnigak8UA3nw48+1xk96UzgnGpIYkceqIaTKb7t1FReA+dvX/zd/kvAfJtIB3mXveeB90m0S6889PF9PfI57g0PVMP56p1/Nl0nrqqBEwhv3bp94FnKHcgvfvnRhpMD/W9f+86+DnrPPvuT/XUy2/VANZzAx0tPeVLOUQsnEbI8FDlVDpAOq8pJgdZhdVny2/JANZx9UROX1MAJdIBYwsi1R1TpydXAqHqkgVOe2XZaDWfbehNgddTAKV3BJyBLOImuipw+xVM/kVNe3H5aDWfb27pehnDTMXCiD3wOp9aYyHjpUXQsYUzk3D6UusNqOFWhKx2CU9FS07Pgw56Ak8xBLeuVsHb1J+Xr90AvnERGoKs5x/yFCCgVRdfv0tzBVB7ohZM1JWvNuf+2HjinGs5t2emF81y3GjjP5el1tbMIONflsvT2XB4InOfydNo52gOB82iXpcK5PBA4z+XptHO0Bw7gZCPMnPHBEhgInHkYFxuMAmfgDJxLmCbSh3UtVxI5EzkTORO11hW1ljBeVZHzzjPXmttXrzS3v/uFu54yril/7YWf3lW+hBtLH9b/MAzC+febN3a7t3XB+bdH3t+8+vA7AmiWB5MHqEE4FR0ViYC1jJY7cK9embxzavMy0899/kvN9596ZpP3dpl+rWl7GE6mcwOPKZxtXXyKD5zrn0JrYDm3TiecREimbEAs15TIONVZ1qTooV/qSof0ox97aBeF3nX/e/f/Yc3lv/zV9X05X6OTjPyNG6/cdY0ucsqxJ90yRQ850Q87nI99/fG79OmXZKSyUZarD15e2lJdT9v0KaNP7gvZpy522/rkdree74RTERLwSicgcziRE0nbQPa6GiQNAtcaXMoYDMkoR059n1oFmepxjdzb8byAl46upUO5ZJRh12FHRhtd+vRZD4p0PMWe25es9IVAldzrkPdr6Ww97YVTLzsOqKD1ad0jZwmtO5AB8YEmLwAZRAGnOopi6GlwSNFTPa774EDmsGGba9VRG2pTcj0k2Pc+l/pt/XZb3lcvp//l/dIvteu67icv33q+E07deLmeFJwObPnSpLpl2gcnEDDw5YkNBkyAKRUkui7b0nUfnG5X+qTYFLwOJ/pl/7guIXNb5HVveqAoK31Rtkv73pbXLe1v9fpoOAGRj47cITuAi89AXa58OSAeEYYiEHUZMAYae7I1NGh9cGJHkKuPpMCpCOZwdul73b48tsr+uz59oV384g+d+8n1t54fhFORkinep3Ico4jJWtMjaZfTBJTk7nRFCsnKVNMjdZBpAIei1hCcDgx21Y7aR+5tcA9+Lb2alD47nA6gt+t+wS5tDj2ENe2vTWcQTm4IQNuio+BEXnPjfXBSn0HxqUwDiUzwKqJpiqW8r+0hOKlLv9SuA+PtKqpRho70vbytH9yD60qHNgFSsrJdbwMbgfPioneg5dik4z/XLB/U+PTQp1WRcw2O8+inaOSRd+57OLb9wHkIYzlGm4GzvLGlXwfOwJllyoq/kJLIueLBW/rsMLZ/gTNwLnZ2OYDz6P9cnArxwEweCJwzOTZmx3sgcI73YSzM5IHAOZNjY3a8BwLneB/GwkweGITzr8//t/n11X8Nnn/83r9n6mLM3qse6IUT4L7xtjvNE/e/NniiB8g54oGpPNALJxETMGsO9NA/x8FWML7jxjnaTBvn98AoODXl0+1zwnl+N6XFy/DAyXACJlP50x/5x67fgfMyhm/bbZ4EZwkmLqqBk+mYHX/1lTamZt8Eq5yq0ZcueR2ywzWbbVGPU7ptm7+qLjvHSU8bdZGqzNtRGWmfTdlOOq0HToLTI6a6UwsnA62DvPa4pMwhAFrBgww9bWVdwkk9yajjgKkt2XCb1PF9Nl3X2/Dy5M/ngaPg/Nmn39i99Lzx8v8OelgLpyDCQAlAee2NEBkFlutR5hFXkdjrku+CkHJ/YFSPNtSeypKe1wPVcOpjJa0xy27OASdwAI5OwXIKnDwUDrH3H5na8HItAdSuy5Kf3wPVcPIxEWB2fZY5NZyA5DCRFySnwEmEpF7fAaS+zJCuLylUlnR+D1TDOdSVOeAUjLRNZNN1LZya4kk5SshkT/eGXhucPBi+HJF+0nk90AsnURLoas6avxA5VNxW37XA0nR7SuSUDcFJm7JHCnA+pVNGhOUAUukORdxdhfwzuQd64eTFh7Vm/rY+ud9jsMIDvXBW1I9KPDCbBwLnbK6N4bEeCJxjPZj6s3kgcM7m2hge64HAOdaDqT+bBw7gHPsf4VN/+GdW4qM6HwXO/KjCen5UIU913VMdP83vp0TORM5EzkSa+SPN1nycyJnIue7IyWYEU/wm/Nae7NzPvLPBYORk0yt2y+iCUxtp1W5a4APKpgPlD/W7fGy+3ORgrL3UnxfG0r+DcGrHDFUEVkB1GHfg2uat0h1Kj4ETiLWTxpDdyM8L0Vz+HoZzxl2DA+c2IDo7nERIpuy2zVaRcapTvvelR1TJPfVdJ9iHx6d135eHL/qqnr70Syp9TdmSte1HVO5B5Pbph+x7OfbcljYWoF21pXpJ5324OiMnkHXtzIbM4WSQmP7bQPYBZOsV336FgRds6Lms1EXPp3XX1W5u3hZ5h9PzrlfWRQ8I1ZYeJr8GZreR/DyQ9sKplx3fOlDQAqMGxSNnCa10SH3Que6b1sst9ko43S52sO1l5B1IQVfqAB8yLwd82qdMkVPysl8qTzo9oJ1wytnly47gdGDLlybV9bQNxLJMAGn6BAzZaINTekqlq9ThpAywSt02u8Cp6Bg4p4dO4zOUHg0nIJ66azBgeIccHsABFMnLCOUQKVKSoq9r1VXq9lVG6m0lcl4efD4mbflBOBUpp9o12NeKgCEgSxiRcarT6AEb1yWMeqFxGTpdcCLzdpWnPnX8IaIP9E39KPup8qTTQz4IJ04H0K4P4cvPPIcGSdMqqUcw6gGJ5EDscApAgYTcdcljQ+CWcNKW9EkFOnVkW3Lq6j4C5/TQybdDaRWcQ0aWKgdAB3yp/Uy/2h+ATcPpLzYBoB2AJftlk3BqmtYSYMkDkL51PzSbhDMD3j3ga/JN4Mz3Ofcvf0sDN3AGzvXAOdt/Qo7heOBIDxxEziPrRz0emM0DgXM218bwWA8EzrEeTP3ZPBA4Z3NtDI/1wCGcFxdNkzM+WBgD/wdfGvtOpW4QpwAAAABJRU5ErkJggg==;" vertex="1" parent="1">
          <mxGeometry x="70" y="200" width="136.89" height="100" as="geometry" />
        </mxCell>
        <mxCell id="UQ8uSboledrjgLjYZK1I-14" value="HTTP GET&lt;div&gt;&lt;span style=&quot;color: rgb(25, 28, 32); font-family: &amp;quot;Segoe UI&amp;quot;, tahoma, sans-serif; font-size: 12px; text-align: start; text-wrap: wrap;&quot;&gt;https://studies.cs.helsinki.fi/exampleapp/spa&lt;/span&gt;&lt;br&gt;&lt;/div&gt;" style="html=1;verticalAlign=bottom;endArrow=block;edgeStyle=elbowEdgeStyle;elbow=vertical;curved=0;rounded=0;" edge="1" parent="1">
          <mxGeometry relative="1" as="geometry">
            <mxPoint x="329" y="270" as="sourcePoint" />
            <Array as="points">
              <mxPoint x="414" y="270" />
            </Array>
            <mxPoint x="499" y="270" as="targetPoint" />
          </mxGeometry>
        </mxCell>
        <mxCell id="UQ8uSboledrjgLjYZK1I-15" value="spa.html" style="html=1;verticalAlign=bottom;endArrow=block;edgeStyle=elbowEdgeStyle;elbow=vertical;curved=0;rounded=0;" edge="1" parent="1">
          <mxGeometry relative="1" as="geometry">
            <mxPoint x="499" y="290" as="sourcePoint" />
            <Array as="points">
              <mxPoint x="424" y="290" />
            </Array>
            <mxPoint x="334" y="290" as="targetPoint" />
          </mxGeometry>
        </mxCell>
        <mxCell id="UQ8uSboledrjgLjYZK1I-16" value="HTTP GET&lt;div&gt;&lt;span style=&quot;color: rgb(25, 28, 32); font-family: &amp;quot;Segoe UI&amp;quot;, tahoma, sans-serif; font-size: 12px; text-align: start; text-wrap: wrap;&quot;&gt;https://studies.cs.helsinki.fi/exampleapp/main.css&lt;/span&gt;&lt;br&gt;&lt;/div&gt;" style="html=1;verticalAlign=bottom;endArrow=block;edgeStyle=elbowEdgeStyle;elbow=vertical;curved=0;rounded=0;" edge="1" parent="1">
          <mxGeometry relative="1" as="geometry">
            <mxPoint x="329" y="330" as="sourcePoint" />
            <Array as="points">
              <mxPoint x="414" y="330" />
            </Array>
            <mxPoint x="499" y="330" as="targetPoint" />
          </mxGeometry>
        </mxCell>
        <mxCell id="UQ8uSboledrjgLjYZK1I-17" value="spa.css" style="html=1;verticalAlign=bottom;endArrow=block;edgeStyle=elbowEdgeStyle;elbow=vertical;curved=0;rounded=0;" edge="1" parent="1">
          <mxGeometry relative="1" as="geometry">
            <mxPoint x="499" y="350" as="sourcePoint" />
            <Array as="points">
              <mxPoint x="424" y="350" />
            </Array>
            <mxPoint x="334" y="350" as="targetPoint" />
          </mxGeometry>
        </mxCell>
        <mxCell id="UQ8uSboledrjgLjYZK1I-19" value="HTTP GET&lt;div&gt;&lt;span style=&quot;color: rgb(25, 28, 32); font-family: &amp;quot;Segoe UI&amp;quot;, tahoma, sans-serif; font-size: 12px; text-align: start; text-wrap: wrap;&quot;&gt;https://studies.cs.helsinki.fi/exampleapp/data.json&lt;/span&gt;&lt;/div&gt;" style="html=1;verticalAlign=bottom;endArrow=block;edgeStyle=elbowEdgeStyle;elbow=vertical;curved=0;rounded=0;" edge="1" parent="1">
          <mxGeometry x="-0.002" relative="1" as="geometry">
            <mxPoint x="329" y="390" as="sourcePoint" />
            <Array as="points">
              <mxPoint x="414" y="390" />
            </Array>
            <mxPoint x="499" y="390" as="targetPoint" />
            <mxPoint as="offset" />
          </mxGeometry>
        </mxCell>
        <mxCell id="UQ8uSboledrjgLjYZK1I-20" value="&lt;span style=&quot;font-size: 12px; text-wrap: wrap; background-color: rgb(251, 251, 251);&quot;&gt;[{content:&quot;&quot;,date&quot;&quot;}]&lt;/span&gt;" style="html=1;verticalAlign=bottom;endArrow=block;edgeStyle=elbowEdgeStyle;elbow=vertical;curved=0;rounded=0;" edge="1" parent="1">
          <mxGeometry relative="1" as="geometry">
            <mxPoint x="499" y="410" as="sourcePoint" />
            <Array as="points">
              <mxPoint x="424" y="410" />
            </Array>
            <mxPoint x="334" y="410" as="targetPoint" />
          </mxGeometry>
        </mxCell>
        <mxCell id="80jz31QU0U-3kjWuf_tq-1" value="HTTP POST&amp;nbsp;&lt;div&gt;&lt;span style=&quot;color: rgb(25, 28, 32); font-family: &amp;quot;Segoe UI&amp;quot;, tahoma, sans-serif; font-size: 12px; text-align: start; text-wrap: wrap;&quot;&gt;https://studies.cs.helsinki.fi/exampleapp/new_note_spa&lt;/span&gt;&lt;/div&gt;" style="html=1;verticalAlign=bottom;endArrow=block;edgeStyle=elbowEdgeStyle;elbow=vertical;curved=0;rounded=0;" edge="1" parent="1">
          <mxGeometry x="-0.002" relative="1" as="geometry">
            <mxPoint x="329" y="460" as="sourcePoint" />
            <Array as="points">
              <mxPoint x="414" y="460" />
            </Array>
            <mxPoint x="499" y="460" as="targetPoint" />
            <mxPoint as="offset" />
          </mxGeometry>
        </mxCell>
        <mxCell id="80jz31QU0U-3kjWuf_tq-2" value="&lt;span style=&quot;font-size: 12px; text-wrap: wrap; background-color: rgb(251, 251, 251);&quot;&gt;[{content:&quot;spa&quot;,date&quot;&quot;}]&lt;/span&gt;" style="html=1;verticalAlign=bottom;endArrow=block;edgeStyle=elbowEdgeStyle;elbow=vertical;curved=0;rounded=0;" edge="1" parent="1">
          <mxGeometry relative="1" as="geometry">
            <mxPoint x="499" y="490" as="sourcePoint" />
            <Array as="points">
              <mxPoint x="424" y="490" />
            </Array>
            <mxPoint x="334" y="490" as="targetPoint" />
          </mxGeometry>
        </mxCell>
        <mxCell id="80jz31QU0U-3kjWuf_tq-3" value="" style="shape=image;verticalLabelPosition=bottom;labelBackgroundColor=default;verticalAlign=top;aspect=fixed;imageAspect=0;image=data:image/png,iVBORw0KGgoAAAANSUhEUgAAAqoAAABLCAYAAAC4AqVkAAAWg0lEQVR4Ae2czcpkZ1eG+zSCGeQAPAEHH449AUeGQPAEHHwfCCFkJOpIJyGED6eOkuBIEAdCx5kzwSQgTpx28BBKrsDVuXv1U7t+ut7qqrfuDZvnb/091977WaurO3mxe/Fi17sM+g70Heg70Heg70Dfgb4DfQdu7R148UtAu14lUAIlUAIlUAIlUAIlcEMEXrzYtVC9oefRUErgORL4r//d7XqXQd+BvgOP9A48x7P8veyphep7wV6nJfBQBB4pOXWvLcb6DvQd4B3odSECLVQvBLJmSqAE9hJo4m7i7jvQd+DR3oG9B2IXTiPQQvU0XpUugRI4ncCjJajut0VZ34G+A6eflNVYEmihusTSyRIogQsSaNJu0u470Hfg0d6BCx6hj22qhepjP//uvgSuQeDRElT326Ks70DfgWucrQ/ho4XqQzzmbrIE3isBkvaLP/jN7vv//L+H/q////hPf/eawZ/9xd/vfvvX//heeRDDP3z7HyfH8E//9j879rJVjP3t7//loIz6++LAz773hneJNW7fr3P2Ygzvs923x/cZU32/e6H9Xg/d5+R8Vai+evXz7oMPP3rj/ubb725y219+9fXu5cvv98bGPthPXj/8+NPu408+fT1FP/f72edfvF6jwzo6vUqgBM4jQNLbSsYUHbPwoYh7qsKDImoWiYeKr1WMpybzLFRP1X0K+X0F4iFfh1gd0p/r58RxrM6xcjOma463vo1rxoGv1bdx7RjO9cd5Mb/rc21dQu+807JabxHYKlRTmEJuqyBM2Wv2L1WoZiFKoYpdrxaqkmhbAucR4NDfSsarIvApC9VVwXjI3yrGU5PZyu+pNi4pf24RdwuFKiyJY4vHJZ7Zlv1LrW19G5fycaydW3tHj40buRaq553PN691bKE6C0KKOX+FnL+2zjV/vfSX2oSCbBbA2NIua14Uks7TcqUf5uYvp8is5le/qGahSjzHFKrsK2M31rYlUAJvEiCJkIwpLGi5KZKYzznmKRhZU46WgsNfelh3LX9xnXZMXCRe+t7I6ds5Wmw6xpc+kJ22iYGYUgddZDOmtINOFgFbshnf9G2M2RqLMaPDevpPm+oaA3Gp6xrtPt/MJ9eVH+bYs3aQh41+WNeXcTBWhnb6UV4btO6LPhyUocXH9KOu8/pTL8dz/4yVw46y9udYWfeXnDPWGTvyM05sHYon1/P5MD/5+2yMUfvyhA8y3MaS+0feeVrX3Kt2GcuaOeLIvStnqy1tG4/r2HJNWdbmPM+C+WSCvHb2tWlH38xNFtrXTsaEPPO9LkTg2EI1Cz6KuCzkWLPQm2sUk8cWqhR9yrI9dC2C039uHX9bxeJK71Chit+0SUzuL323UE0a7ZfAfgIc2hzkmTwZe9iTuHINeRKD64xNIM6hgw2TXvaR50Z22iX5mFSVw7bJhbWpg9yMUf/aoMW28U3fxm+8W7KsGc9qX+nTONwTY/r79pG6+En7jOGOjHaNl3hYZy1tZz9tI68tZPAzx8pjF17K6XOfbfR4RqxrI/eRc/bxrX/mkFefeXljV/8pP58n+snj0P4yvpWt9Jl+Z5zuZ2Uj31tsaEeujrGBLDa0R8t+ZAIPfCuTz3/qa5955PXDnrAhJ8YZY/q2j3zK5P7nnvUru/SNPf27PvegT1vspW/nJ4tpF79yy7X9J2JXTiKwVahS5HmnUebyopjcV1DyK6fF56FfVCkQsyCkzxwXPnNN/5cqVN3nys++QtUY2pZACWwT4MAn4ZgwGJPMSAD0mZ8JgnUSQCYLE55zKZMJzfXZrvwgg29jM/kd0kUenylHfMacfWXST67TN9EhS585+of2BUMLA/1oY8aX6/QzBsbErl/s+nzU0x7x+bz28cq4Ul5b6DOfccy9rvRW+syh6zNkzF6Si7GrP/fHOvKpoyztfN7T39YYppNlvgupSz/9zjhdW8UjT+PdekaTD/aURz+fn/aMDT++J8bDmPm0gw/sqOdYnVWbLFjnechOH6nHOnaZm3tasTOWtGGf+Ffr2Jn7Tb/q2/pub5+KXT2awFahqpH85dBiMws7+hSqWZSqm3Pqukabv17iZ9q1UFV3FpKHClVsopsXBS/zXvQtgucvwsjkujptS6AEjifAAb6VgDK5edjPRECyYM51WsYmMRM3fjJhp/wqca2SLgkPO5m0Zoz6S/skM5NmFiLK5NyU1Z+tiVE/zK/2NTnpi3a1j1zPGJTXL3aNJVvkiCOLmpWffF5THhsmc/r4xMd8vis95Kc+Y/Rh5To25ZUMcy++O+i4B/VtU55+zqe/6T/HkzM2cv/KHhMnsnnvi0dbrK84sl+fNTLz28jnx3rak1XGQV/evuc8T+Z8Fo6NedViJ7mi43PSburlOnExdp3+jJGx66s29+b6ZMF8+mXMHtMX++51IQLHFKoUcRSIXtl3znauzaJwrmehSt+CUXuztWC1+DymUJ02+Wt9C2Dsz0KUGFNnrs+YOi6BEtgmwEG+lYBITCQhE4OJgKTh3CpZrAoAE2omO23sS3TpR1la5o1rFeNMehmPyTntJYNDsqlHf9++4GIinzqOcx/O0WYMjJFjjv6W3VXho7688nmt5JFjPuNgLvey0kOeO/UZJ9tjnpV2bNFn7/qfvB2nPHPHjCdndDLe2ddmtvrXp2Nl0gZzyS77yufzYQ6e2mY819Mf9nxPtJctuqt3CR8pt+rPfWRBiE98px7r+GKOlrHrxMHt+JQWW8Y7WWAnnylyxsAaY+LsdSECxxSquMpfGiny/Kv+GQZryHoxptDzou+//6QYpCh0jM0sINWZLTayUN0XC3qspX/mMgbHWZgST+rQz3XjmXacb1sCJfAmAQ7vrQSUSdBkkgmKOZJF2iARMFY+WxIFNjPZ7Euu+2xgDxsmq1WMmaCMx4RFvOqu4s9Eh+xW4ndv7stYaLOPHHFwq0OLjLHA1WSeMSBH7MbhftKOfda05xxt+snkvpJH3zgzDp6HDFNv7jP18Z3vBr65MzZ8zDnX813Tjv6UQTffFeVc3xrjO3lhS87op+6+OI+Jx+eKzbQDR3zIVZ/yp814WCfGtDf9Y0995PPWnvrosv/pI3XsJwvm8tkQf3LED/Lq5vvL3FxX7pjWmJH12TO3spvvoj5pe12IwLGFKu6yqKRIY+xt4aic87PoszhlnaKU20IVXYpcdWlZ81dU57MwTXsZQ+KZNlMfuVUhSlwW3HOvxKFexp4+2y+BEviVAIf7VgJinSSGjMnNA189EydJgTnn0TWJOo8s85nYsI9N5r2RU9Y5dLRDmzpbMbLGjb62lMcOfojdZDdl2Xf6xc6+fTmvrWSFDeb37QM/Mp4xoMOc8U8b6uHPgmHKyIv9ruS1nck943Av6KafuefUx6b7tq+fbNFJxtj0uSjHGBnGxKC8feXSH3NbY/anXeRkt8/WKs5j4kkfskdPju6BGHhu+ic+n5tz2Eob8nfdMbb27Sl9sCdsqr+vxRa2XSeG1Ms9Tll0jEff8/3MPenDdsrKRBb5XDLG1IMlcuj2uhCBVaF6IdO/mKF4pNDrVQIl8LgETATv0poszrFBUiF5TF3mMuHM9Y5/LervhQVFw1Yx8j72kYX4U/lfFW36slB1nO2+byNlHr1/7tnzuCf+hXfeQvXCQGuuBErgLQKXSHTnJgt8z19lmKOgoYC4RGy1cTsFrb9m3dIzueVCdfVtPDU7vmV/+bRd/UHyqeI41f+5Z89bB2EnziPQQvU8btUqgRI4nsAlEs65yeISvmvjdgrRe3wWt1yo3iPPa8d87tlz/AlZyU0CT12objrvYgmUwEMQuHZiqb8Wln0H+g6873fgIQ73a2yyheo1KNdHCTw2gfedMOq/RUvfgb4D134HHvvUv+DuW6heEGZNlUAJLAlcO0HUX4uSvgN9B973O7A8DDt5OoEWqqczq0YJlEAJlEAJlEAJlMAVCLRQvQLkuiiBEiiBEiiBEiiBEjidQAvV05lVowRKoARKoARKoARK4AoEWqheAXJdlEAJlEAJlEAJlEAJnE6gherpzKpRAiVQAiVQAiVQAiVwBQItVK8AuS5KoARKoARKoARKoAROJ9BC9XRmanz2+Re7ly+/d/jO7ceffLp79ernd7ZTAyVQAiVQAiVQAiXwLAisClWKpQ8+/OiN+5tvv7vJ/X751debxSLFH/e+i30eu7dZSLZQ3Ue18yXwNgG+nzxX+HbnxTd1SCbt+G3zDaeefez1KoESKIESuGMCW4VqbouD/5K/Hqbtd+kfU6gS+w8//vSWG5Ibia6F6ltoOlECFyfAt5bf4fz2GM/ilUIzi01k8hyiP/8WApk5d/HN1GAJlEAJlMB1CBxbqM6CMH/5mIXeXCNxcPlLbe4M2Uw8+ctIJigSnL+S0HKlH+ZWycnkl7b0jw7+Zvzpx8Sac+7H2Bm7rm3aGfP0k3uFL3bcA/3kknbbL4F7JMA77fdE/Lzffpd8C7NIdY/5LfCd+Y24Ptv8juZaxyVQAiVQAndG4NhCNRMECSWTCmsmoLlGIiJxcB0qVElcyiKPrsVd+k/E+Nsq6LBHbDN5oWOs+sAuctqz0NTftEF8GRdjubjXTKrIapsWe14WrcpnHMq0LYF7JsA77TnBPvwG6fPt5FruM4tYvi++o61rfqdbsl0rgRIogRK4cQJbhSoJwTu3MRMFicRijzWLLXToW5DRn7okKIu3maxIXMxxobdKZMcWqpnssGcyQ9/Y098vTkcCVSfXjJ05+sabTJSfiTl1kZn21WtbAs+BAO93fsN8034DW+9+fjdwYIwuOqtry9ZKvnMlUAIlUAI3TGCrUDVsDn4TisUmiSJvCrMsStXNOXVdo81CFT9pk76Fn7rMZbI7tlDFF7rYYS/azULVBDhj0N9MgBk79qddmbnfXJ+2kFnNqdu2BO6dwPy+8/vgW/I7m/ucf8h0HX2/aedo+x0ljfZLoARK4M4JHFOokkBICF7Zd852rqFL4vCa61nsbSUr9S1YablOKVT9lTP9ZKFKrKztu2YCzNjRyUJUX2mLdfxxZQzKwMZ9Ode2BJ4LAb6fU4tR9r6ll9+vnOZ36nzbEiiBEiiBOyRwTKHKtkgIWWRRiK0uCjDlWGdM4vCi7y8pFsCOsYn8oSsT0SpRpT6yJkeL3PQx9SkWlU879NMWY+wYO2P62tZXFp5pm71iz4txFqqspW3l2pbAvRKY38/cB+9/nh2s8z35TTGe66vvhLn87qafjkugBEqgBO6IwLGFKlsikVg8kQwYe2dicE55ZL0sTlkzCWkTGRLR1Lfocz6L5LSXMegP31l4Yn/6S3vTV8ZuMekc8act+plUMzZZGBctsrkn7LoH+mk79dovgXskwDud3+JqD/lN8G3kt4n8PB/mOjL5Ha18dK4ESqAESuCOCKwK1UuGT+FF4uhVAiVQAiVQAiVQAiVQAicRaKF6Eq4Kl0AJlEAJlEAJlEAJXItAC9Vrka6fEiiBEiiBEiiBEiiBkwg8daF6UjAVLoESKIESKIESKIESKAEJtFCVRNsSKIESKIESKIESKIGbItBC9aYeR4MpgRIogRIogRIogRKQQAtVSbQtgRIogRIogRIogRK4KQItVG/qcTSYEiiBEiiBEiiBEigBCbRQlUTbEiiBEiiBEiiBEiiBmyLQQvWmHkeDKYESKIESKIESKIESkEALVUm0LYESKIESKIESKIESuCkCLVRv6nE0mBJ49gT+9b//fffn3/zl7g//7k92H/zVH/3SMma+VwmUQAmUQAm8QaCF6m735Vdf716+/P4NLh2UQAlcnsDv/vlvfilOKVBXN+u9jiPw6tXPu48/+fQ44UqVQAmUwL0S2FeoUrh98OFHr28LuVMOx1NkT+X3w48/vY6NOD/7/ItTTbyWb6H6GkU7JfBkBA4VqRauh4rVPJe++fa7N+Kd58Ibi7vdznXPs7meY2xv+UrZc/vvcvY85fl67n6qVwIlUAIXJ7AqVDnE55/UTQinHI6nyJ6yMRNI6hAzSeic612SxTn+qlMCj0aAv9a3ED2m3ffPAPj2OVe8KCT97pln7Dqy+QdYzjTG3IcKVeX0Q8s5cenrXc6epzpfL73H2iuBEiiBdyKwKlQ54FeHsr9G+CuDMhzqztHnWsmaSDLgmTS0Q2sCSvmVjVy3n3aMybWMjeQ1k4WFMDZSF9lDCU4fbUugBH4lwL9BPaZAVQb5Y678dlfnFt+whav25pnjvC3feH73zttyfnAWeE54TqHjucOaV543rK/kM859drA314ijVwmUQAk8awKrQtViMA9bIbCWhyPjlMtibiXLgZwXB6/FX/ZTJvv4Sn+5Zj9jYA67FtXujZbLJGIMtLk/dPU37eqvbQmUwDYB/8MpC9FDLfLHXHyTFn5ZtKqb684dOmdY16Y62XpmeC6whm/PGMZZkOb8PF9mzIfspC3izLMqY2y/BEqgBJ4NgVWh6uY4BDlwLeKYn8WnsrYcpB7gU9YiUVnaTBr01U2Z7M+DPdfok0Swk1fGgf087JFLm+hmklrZS9vtl0AJHCZwqDBdrR+yyneb33J+x+qeU6iiw5mx77JQzfX5B3DOmdVZNs/AGfOWHdYyrjzXMpb2S6AESuBZEdgqVN0oB7cJYXU4ciBziHp7QE9ZxvMgzkIVfxbH2jAGW+LYt4YMRbWxqpN+Z2JAJuf0715oZ+Gr3bYlUALHEbj0L6p8p/kHaKLI79iokMs/eDI/zxxlbVc6rtFiDxkvz5c8M+jnOTXX1M2Yt+ywlj7RX81pt20JlEAJPBsCxxSqHqBseh6OHLTcXvQ9oKcsMhzYee1LGhzKMxGhN5NE2nJ9FpYZB7EZn7oZA/2Z2JRrWwIlcB6BS/0bVc8i2nnxXedZxPo8b5jL733aYLyyk3KrM2jlB50Zr2PtEW+ec/vsID/XVnFot20JlEAJPBsCq0KVgzoTAQepf5pfHbRZ+HGYOp6yQMsClIMW+TyoBTsPcOdpSTTG4zw+LTDTh/LGpE/359gYkMP+6pp2VzKdK4ESeJvApf6rf84Fv/PpxfPGb5tveRau6BwqVJHhXJq6ngv4n+cPa54xGZcxOYdMFpz4SL19dow7Y0J2xqGftiVQAiXwbAisClUPVw5U79wwB6QH+ZRdHbzKYsPCkDnscFskcujqj/mtywNf+TzA0XOedq6lLn5YNwZ0Gae+ay1Ut55I10pgm8Al/j+qfK/5bdLPs4Jv1fV9RRzyftNbEU9f6qwKVezk+UUMFsx5ntjXb56Hyu+zg457oyWefXvUftsSKIESuHsCq0L17jfVDZRACdwkgUPF6qH/2f9NbqpBlUAJlEAJPB2BFqpPx7aWS6AE3ibAPwPg36z6H1jRMt73P/l/20JnSqAESqAEHoZAC9WHedTdaAmUQAmUQAmUQAncF4EWqvf1vBptCZRACZRACZRACTwMgRaqD/Oou9ESKIESKIESKIESuC8CLVTv63k12hIogRIogRIogRJ4GAItVB/mUXejJVACJVACJVACJXBfBFqo3tfzarQlUAIlUAIlUAIl8DAEWqg+zKPuRkugBEqgBEqgBErgvgi0UL2v59VoS6AESqAESqAESuBhCLRQfZhH3Y2WQAmUQAmUQAmUwH0RaKF6X8+r0ZZACZRACZRACZTAwxB4Xai+eLHb9S6DvgN9B/oO9B3oO9B3oO9A34Ebegf+H9jQPBctXw16AAAAAElFTkSuQmCC;" vertex="1" parent="1">
          <mxGeometry x="600" y="430" width="370" height="40.69" as="geometry" />
        </mxCell>
        <mxCell id="HTPf-rZY_4mJOMXqFO1n-1" value="HTTP POST&amp;nbsp;&lt;div&gt;&lt;span style=&quot;color: rgb(25, 28, 32); font-family: &amp;quot;Segoe UI&amp;quot;, tahoma, sans-serif; font-size: 12px; text-align: start; text-wrap: wrap;&quot;&gt;https://studies.cs.helsinki.fi/exampleapp/new_note_spa&lt;/span&gt;&lt;/div&gt;" style="html=1;verticalAlign=bottom;endArrow=block;edgeStyle=elbowEdgeStyle;elbow=vertical;curved=0;rounded=0;" edge="1" parent="1">
          <mxGeometry x="-0.002" relative="1" as="geometry">
            <mxPoint x="329" y="540" as="sourcePoint" />
            <Array as="points">
              <mxPoint x="414" y="540" />
            </Array>
            <mxPoint x="499" y="540" as="targetPoint" />
            <mxPoint as="offset" />
          </mxGeometry>
        </mxCell>
        <mxCell id="HTPf-rZY_4mJOMXqFO1n-2" value="&lt;span style=&quot;font-size: 12px; text-wrap: wrap; background-color: rgb(251, 251, 251);&quot;&gt;[{content:&quot;spa2&quot;,date&quot;&quot;}]&lt;/span&gt;" style="html=1;verticalAlign=bottom;endArrow=block;edgeStyle=elbowEdgeStyle;elbow=vertical;curved=0;rounded=0;" edge="1" parent="1" target="UQ8uSboledrjgLjYZK1I-1">
          <mxGeometry relative="1" as="geometry">
            <mxPoint x="509" y="570" as="sourcePoint" />
            <Array as="points">
              <mxPoint x="434" y="570" />
            </Array>
            <mxPoint x="344" y="570" as="targetPoint" />
          </mxGeometry>
        </mxCell>
        <mxCell id="HTPf-rZY_4mJOMXqFO1n-3" value="" style="shape=image;verticalLabelPosition=bottom;labelBackgroundColor=default;verticalAlign=top;aspect=fixed;imageAspect=0;image=data:image/png,iVBORw0KGgoAAAANSUhEUgAAASgAAACRCAYAAABwtSUQAAATo0lEQVR4Ae1d/23jPAz1jAG6T3HIAJ2hQG6EjpD7q1McDh1DX0iKEinJdvM1sWX7HRDY1k/ykXqmdJU8hGEI+AED+AB8oEcfGFiogH9AAAgAgc4QGIYAgurMJhAHCACBiAAICq4ABIBAtwiAoLo1DQQDAkAABAUfAAJAoFsElKAGuvl17VZOCAYEgMABEVCCAjUd0PhQGQj0joAS1FfvgkI+IAAEjocACOp4NofGQGAzCChBbUZgCAoEgMBxEABBHcfW0BQIbA4BENTmTAaBgcBxEFCCwiL5cWwOTYHAZhAAQW3GVBAUCBwPARDU8WwOjYHAZhBQgrr83YzIEBQIAIGjIKAEha0uR7E49AQCG0JACWpDIkNUIAAEjoIACOooloaeQGCDCICgNmg0iAwEjoIACOooloaeQGCDCICgljfa18cpDK/ncA1f4fI2hOH9+YfdXN+HMLxdwle4hvPrEE4f+NPc5S2PHu9GYE8E9fX7NvCHU3jsn0zcBjSB9MjD/D7PjqA8WUTSer19y4J/p3D5J2YVYtN0uhLJ2X9at0wPgesagjp/2nq4BwKdIgCCmjPMkwiKySIEimwsQZXPVjomGRNt5agolvp3Caf3K7dZElCuKyRW5tt+cA8EukFgHYL6CpcX+tqV/swb/88tukjpQzj9jlORv5dwGoZw/i1XLvNCU5YQQlEn1U9Rz3h/119DGF4u4ULX2O/5DzVa1tF8H6E9NmoT8rCEZR0lk0xMTZGYPFM+Ew+lGyKzbeAeCGwKgeUJKg58JReLViShREqReJgwYt4wRDKzebGNMbJQEhKq8/1z3qBE6POk2ekIaqxPq9Zd9xQFxeldGeWUBMURVCIiIjclelpn0vu7ekdhINAXAosTlEZCHKV4LOrBbshhirxiM3V9yohtmKjMRl9CUDqY7ycor8Ejn4hkblHb68QaVCKnEAJFTXHayFq/DxJNPVIktAUElkZgcYJqRD6qc00wDySoNN3T3uTaL0GJfDZqsvdeC1nLkkV1IrX4swRWVsAzENgCAosTlEY0rSleJK+pKV4zLwJdExxlxKho5H/3fkpQ7T4fZ3k7jRsnKIq2cqQlvVOaRobz8ogeQ5D1t/nyKAEEFkFgeYIitWJklKZdeSDpQPEL1iGEb0zxqnZT1KQkpQvduuYUwjxBheBleuYiOZGKiYDo3kRBowRVTO/EcaYX3CvnKl8OVQEkAIEVEFiHoFZQFF3OICAvDURQMzAhe1kEQFDL4t1jbxJFYnrXo20OLxMI6vAuAACAQL8IgKD6tQ0kAwKHRwAEdXgXAABAoF8EQFD92gaSAYHDIwCCOrwLAAAg0C8CIKh+bQPJgMDhEQBBHd4FAAAQ6BeBtQnq2VtFfop8PnNJ/sp77CiUn/aD+kDgqQjEUzLohAzekXDHNqinyjXX+LYIqnXawJyGP8tnY46dRMnnMenWlLxdR3r021bc0SnmSBV7WoGTVMuYrS4uv/EgjhflMScb8H5EOlo4baMp9+01GktJsmWG6lbk7PQ323JU9tRfLdO4rDqA6jpJpNGbjLnDm8vnPNKlzh9tVDJUJ2ePjA1j6/Jm2ovZ/AIs91FqX4xfw1YW92TnQhbFPskk+ieCSvW+J+dqpUBQ09DzQGIjiwNkxyaDZ1Kym3qVEHxZdTRqR+/tUbxWDmr7FM7vJ7cXz5ao7ov9eFnuqqS8QZPj1vk5RZ1adPcE5fUXnbNe2gbh4uvVR8M4We/QQ/vgKw9q6l9ltrkt29Wy2hr+vm0Pb/P6dFTfRv0kep+Ljd7T/sF1jN/VrWpKaR/RgY+PLjDWGl1eVyGouDFVNwTnc8TrTb16Frhux8h1bm9YOmEznStV1s3kIcDfDETKpg3EDzaHNbq9p27ouRWBUB4PLC+rDmo3cCfFLQegPNdnlksj2v5kky5T2vNEE/tQomMdvR7URN3XlKxTeVkgGaRjBEMDsYiQvmUPqWc3Z2uPqoO3B8layED9KB5aeeya7G6Io1U2laPMRp+tOhH3/IIcKbSF5MUJqtg1P7kGFctWJNQ4qoUJLKW3poLPJSh1YnYj+mpLdFR26rdLuJo06xfe6X10UeXZiu7eOrkMtPOnTVMi/D/TJtaIvz7jCUoEIL15ejMyZbC4xBomYihltTKXeVlhxqWcFqVsrZcSXMQ4bg+pp3ZLtQ25lfbwugm52kMDUxvVjSViq3NV0MmuL7MLfxUo4t4ixHuIsu6yr5SlCcofb6JHmZgjTKroqhElJSJSLG9GJkXKX1VOyz/2qk6vH3JSR+bBa4mqdCZyJBeuk7PmKETbydLGQaDrC6lsdPJPOi5Y3+rjjt+UN7VZRB/cufTrCSrKEnUSosqyq8x+EFPqlKxTedri3JXa8DoojrP2qJqmtrJO2k4uJn0xQRPuH9+LoKidjGXUOX65J7etkXfuXwjKTpkt0WlNL7OmbvbaFUHNnvnUiowI+ptRSJFnTd8mrFsOdi7KxGMdqTHVqcipWBw2hDG6kJ7kUuIqndk8p7J0c68TNwjKTT2ozdZgaegdyzliTm3dq4dTKj6Qbp6gWlPsmjjrtti2zg4xakkvAV/HE4/Py08in5CatteIhhr+oRGU/dRYqQfJsIupnQK2NEH5KV0kFj3t0k3p8prS/BRPy5pITBVM19jXA0mM38jNqQ05oUYyOr3Kz+L4Y+SRBPbhfU5u3nGbJkKz0UJZgcs25S5L6vMYQWWdhPQKYohrITlakPamZJ3KS9LwFMf2rTl0FQLwg3TaHlJb6lVTPNN0KZvJiuuMpU0bhOsq0UMhG1E961e2RWXLl0BRl4j+LrtWwvSXsDRBMcjmk1PyGSklFiUama7pJ6YyQdWfmMp5vi5N99LxwAz7zZiPjLL4rV+8Ae2b2+XbwRQHQvFmLgcxu+PIutWYFzEpabuGrHRqkN7aNm+sMU7XAeb1TIM/RorabkuH8g2v3Y3KGklN22wRhgxgiym12sLVlBm1R5JITjOdwKYiKKt/kxgUvxbZ2H6NnE09TDTu9LAvBO3L2+p7a2IqS4fX5QmqQxAgEhAAAn0iAILq0y6QCggAgRACCApuAASAQLcIgKC6NQ0EAwJAAAQFHwACQKBbBEBQ3ZoGggEBIACCgg8AASDQLQIgqG5NA8GAABBQgsp/8AhMgAAQAAKdIACC6sQQEAMIAIEaARBUjQlSgAAQ6AQBJSi/b60T4SAGEAACx0ZACcqfMnBsTKA9EAACnSCgBIUIqhODQAwgAAQyAkpQzf/FK47nzbVwBwSAABBYAIFJgoonXK5xUuUCqqMLIAAEekdgkqDoBL+X8uC33jWCfEAACOwGgTGCkkVzkNNuDA1FgMAWEVCC2qLskBkIAIGdIwCC2rmBoR4Q2DICIKgtWw+yA4GdIwCC2rmBoR4Q2DICIKgtWw+yA4GdIwCC2rmBoR4Q2DICIKgtWw+yA4GdI6AERV/ixV+M79zYUA8IbA0BJajr1gSHvEAACOwfASWor/2rCg2BABDYGgIgqK1ZDPICgQMhoAR1IJWhKhAAAltBAAS1FUtBTiBwQARAUAc0OlQGAltBQAkKi+RbsRjkBAIHQgAEdSBjQ1UgsDUEQFBbsxjkBQIHQkAJ6vL3QEpDVSAABLaBgBIUtrpsw16QEggcCgElqEMpDWWBABDYBgIgqG3YCVICgUMiAII6pNmhNBDYBgIgqG3YCVICgUMiAIJa3uxfH6cwvJ7DlT6M+jaE4X3dw26u70MY3i7hK1zD+XUIpw/82e7yXoEemwjsiaDkY6On8Ng/mbgNWgLp1wNJ5PPsCGoRQuA+hzC80o/IMf9jwjQEdf7MebgDAqsiAIKag/9JBMWEEAJFL88nKIqMMilxxGSiNiYofpaIDgQ15xPIXwyBdQjqK1xebm9y6px/efCEP7foIqWbT6//vYTTMITzb7lymRealoRQ1kn1U9Qz3t/11xCGl0u40DX2e/5DjZZ1NN9HaI+P2uK0jyOdW5+GWIhITh9XmRZy/ilc/qmryPRMIiRfT0ukK0VTkSBTGm6AQI8I0JgMw7CgaHHgK7nYniMJnX7HNZBIVkwYMW8YIpnZvNjGGFkoCUmrvn/OG5QIfZ40Ox1BjfVp1brrnsjDRDe2rqxdDUEjnBz52FJyL2TWXktaJmqrZUIKELgbgcUJSiMhjlK8uPVgN+QwRV6xmbo+ZcQ2TFRmoy8hKI3g7icor8EDnv7dIsTGOhG1XBESlU2RUBl5tRffuY1U5wHyogkg8EwEFieoRuSj+tUE80CCStM97U2u3RFUEu+mezGNmyKokniqskpwIKeEMG42gMDiBKURTWuKF8lraorXzIs41wRHGTEqGvzakZrmpwTV7lNb//mVpmNjUzo7VfML35HczFSR8/8vOZV2+blaaAEIfA+B5QmK5CqnXTrFCkEGvC5ID0EWrEMI35jiVe2mqElJKrerRDdPUKVMnugeTVAc+aQFcj9Nm8oLaWpIC+SncPkwa1kuj/Llp8Q36ym6/pfwnK2BAkDgMQisQ1CPkf1orbSmbctgIASvpL5Mn+gFCIRA/4FHYQWw2AACaxCURrQgpw04yB5FBEFtx6prENR20IGku0QABLVLs0IpILAPBEBQ+7AjtAACu0QABLVLs0IpILAPBEBQ+7AjtAACu0QABLVLs0IpILAPBEBQ+7AjtAACu0RgbYJ69F9iP9pIeYuIbB95/tlNj9YA7QGBEHSnAe0ekB0JefdG1/hsi6Bapw08F142Ju9hE4Jy20MmTqnkbTdmy4qr57ae2DOdjC5axuynM7nNW3G8uJXF7bsrTzoY6bPdajp/qiJnp7/ZlqOyG/15e42RaVxWHUAtPZoCmsS4B/E171/MmTmPZHH2yIWqOycn61NglzD4fwOeX4C0NSmd6xVFSO3qccwhBJtmsBVdShtH/JL/ZP/NPl2p218CCGraJmxMNrI4QHZsMnh2Sr9Zt1VWnZDy9D4ORjNwRRpq+xTO76fRs6Eqqcl5TTtZ7qpkfWxLXSSmqFOLPp6gvP68KdvopU0SLr5eHGhjst6hh/bBVyZFwlVltrlT9rDl6vtZHEkPJo7sC3Ur7RRp+8y2tgTF6ca32rUpVfzE1s1lS/uYsgXGuU6Hd6sQVNwdrydYDumkgXpTr54FLpt6aVeO/6XNxOnUAs0vHeZmIKr7rA2v1uj2nmzODtwYqJTHA8vLqoN6anB4VyoHoDzb0zhteW3fpk3ftwgq9qFvaNbR60Ft1n1NyTqVlyWUAZxJPudwj3xMTX6R1ITYtgcNYBMFxka/ZYMR3b1cxVOyuyEOLkIYjOnm25iSjXB3GPiq23lanKCKozsm16Bi2YqEGke1MIGl9NZU8LkEZQeidRy+f7uEK33JRQezcQ9blpMNuVV5pp6/tU4uA+38adOUCGPYb6IX387YkxBHFQlFAiqnb7YVi4ukW7lKWafycquMS2taxEW0zaJ8xH7cHlKvtJH0FXFrEBj3cjdBWSK2OqudzuHCX/6J/Tb8ZjJ6InmadTImm7lbmqD88SZ6lIk5wqSKrsyRKxolJSJSmG9GLiIre2qmlnrWVZ1eD9jl5/crRw/qKJrmZKgcm5w1RyF1HXFsPS4lR0jRyT/pNE59+xaObzpuylutaZgKhPtbGQFGWeJAICLK8uS6owTVlPU+PXIv9o7a8NGD4sgyWqK6exBL2xVRV3a08tT3JE9uo7BTXL/L+ZbMcluqU07RO2ov+5CmbvbaFUHNnvnUiowI+ptRSJFnTd8mrFsOdi7KDusHdDVQG07NbRmiyESkpDMmiBKXccw0hWjVudeJGwRVtd8eSJXekewcmaW27tVjTDdPUK0pXS1Xq606rVmvYcu6pqYQ9iYis/dEmAkLLd+YJnOZtk+QD+1iaqfqL01QfkoXiUXXoNyULq9HzU/xtKyJxFTBdH08iZGz2oXp1FW5eFk4lBCRIZNc0d1xuW++5cuyLNtIXS571zRvjKDsIJGBVw6O1oCeknUqT8HhMilS1FS9tuSgNCNrYQ+pKfU04tXW3LVZT9cYW/ZsEK5rkB4K2SKBZxzLfCGsppwk3112rYTpL2FpgspH8N7eIukzUkosSjQ2z07x6k9MVeRFCsWfP8PoZmhKf1SUxc5avwmTY7l8MzjYIet6OaTPPlIO1pzTvmNS0jeyJScnS70Q3G6NUnWAeXmTjjFS1EivpUOLoKjlUVln8lgqXp+xmHKLjcjElHEYmHSqyv/aBCVkqPoX9Qr967U4xa9FXrbfol0naxENcl5RnpvSvlTWeN06YS1PUGoYXIEAEAACMwiAoGYAQjYQAALrIQCCWg979AwEgMAMAiCoGYCQDQSAwHoIgKDWwx49AwEgMIMACGoGIGQDASCwHgIgqPWwR89AAAjMIACCmgEI2UAACKyHgBJU/oPH9WRBz0AACAABhwAIysGBByAABHpCAATVkzUgCxAAAg4BJSi/b80VwQMQAAJAYB0ElKD8KQPryIJegQAQAAIOASUoRFAOFjwAASDQAwJKUPhfvB6sARmAABBwCICgHBx4AAJAoCcEQFA9WQOyAAEg4BAAQTk48AAEgEBPCChB9SQTZAECQAAIMAIgKDgCEAAC3SIAgurWNBAMCAABEBR8AAgAgW4RAEF1axoIBgSAAAgKPgAEgEC3CICgujUNBAMCQAAEBR8AAkCgWwRAUN2aBoIBASCQCGoYQsAPGMAH4AOd+cB/dW74C0lLwO8AAAAASUVORK5CYII=;" vertex="1" parent="1">
          <mxGeometry x="600" y="480" width="153.1" height="75" as="geometry" />
        </mxCell>
      </root>
    </mxGraphModel>
  </diagram>
</mxfile>
